<svg width="101" height="101" viewBox="0 0 101 101" fill="none" xmlns="http://www.w3.org/2000/svg">
<path d="M13.7272 69.4725C14.3485 69.4725 14.8636 68.9574 14.8636 68.3362V25.0029H27.8182C30.1515 25.0029 32.0303 23.1089 32.0303 20.7907V7.83619H73.8636C74.9394 7.83619 75.803 8.71498 75.803 9.77558V30.6847C75.803 31.3059 76.3182 31.821 76.9394 31.821C77.5606 31.821 78.0757 31.3059 78.0757 30.6847V9.79073C78.0757 7.4574 76.1818 5.57861 73.8636 5.57861H30.8939C30.7424 5.57861 30.5909 5.60892 30.4545 5.66952C30.3182 5.73013 30.1969 5.80589 30.0909 5.91195L12.9242 23.0635C12.8182 23.1695 12.7424 23.2907 12.6818 23.4423C12.6212 23.5786 12.5909 23.715 12.5909 23.8665V68.3362C12.5909 68.9725 13.106 69.4725 13.7272 69.4725ZM29.7575 9.44225V20.7907C29.7575 21.8665 28.8788 22.7301 27.8182 22.7301H16.4697L29.7575 9.44225Z" fill="#DF9D34"/>
<path d="M91.7121 38.4876H78.0758V34.7907C78.0758 34.1694 77.5606 33.6543 76.9394 33.6543C76.3182 33.6543 75.803 34.1694 75.803 34.7907V38.4876H61.5152C57.5455 38.4876 54.3182 41.7149 54.3182 45.6846V54.0482C54.3182 54.6694 54.8333 55.1846 55.4545 55.1846C56.0758 55.1846 56.5909 54.6694 56.5909 54.0482V45.6846C56.5909 42.9725 58.803 40.7604 61.5152 40.7604H91.7121C94.4242 40.7604 96.6364 42.9725 96.6364 45.6846V88.3664C96.6364 91.0785 94.4242 93.2907 91.7121 93.2907H61.5303C58.8182 93.2907 56.6061 91.0785 56.6061 88.3664V58.7907C56.6061 58.1694 56.0909 57.6543 55.4697 57.6543C54.8485 57.6543 54.3333 58.1694 54.3333 58.7907V88.3664C54.3333 90.2755 55.0909 92.0028 56.303 93.2907H41.5758C40.9545 93.2907 40.4394 93.8058 40.4394 94.427C40.4394 95.0482 40.9545 95.5634 41.5758 95.5634H61.5303H91.7121C95.6818 95.5634 98.9091 92.3361 98.9091 88.3664V45.6846C98.9091 41.7149 95.6818 38.4876 91.7121 38.4876Z" fill="#DF9D34"/>
<path d="M92.8482 45.6847C92.8482 45.0635 92.333 44.5483 91.7118 44.5483H61.53C60.9088 44.5483 60.3936 45.0635 60.3936 45.6847V56.2908C60.3936 56.912 60.9088 57.4271 61.53 57.4271H91.7118C92.333 57.4271 92.8482 56.912 92.8482 56.2908V45.6847ZM90.5754 55.1544H62.6663V46.8211H90.5754V55.1544Z" fill="#DF9D34"/>
<path d="M60.3936 67.9878C60.3936 68.609 60.9088 69.1242 61.53 69.1242H68.5603C69.1815 69.1242 69.6966 68.609 69.6966 67.9878V62.3515C69.6966 61.7302 69.1815 61.2151 68.5603 61.2151H61.53C60.9088 61.2151 60.3936 61.7302 60.3936 62.3515V67.9878ZM62.6663 63.4878H67.4239V66.8515H62.6663V63.4878Z" fill="#DF9D34"/>
<path d="M81.2727 62.3515C81.2727 61.7302 80.7576 61.2151 80.1363 61.2151H73.106C72.4848 61.2151 71.9697 61.7302 71.9697 62.3515V67.9878C71.9697 68.609 72.4848 69.1242 73.106 69.1242H80.1363C80.7576 69.1242 81.2727 68.609 81.2727 67.9878V62.3515ZM79 66.8515H74.2424V63.4878H79V66.8515Z" fill="#DF9D34"/>
<path d="M92.848 62.3515C92.848 61.7302 92.3329 61.2151 91.7116 61.2151H84.6813C84.0601 61.2151 83.545 61.7302 83.545 62.3515V67.9878C83.545 68.609 84.0601 69.1242 84.6813 69.1242H91.7116C92.3329 69.1242 92.848 68.609 92.848 67.9878V62.3515ZM90.5753 66.8515H85.8177V63.4878H90.5753V66.8515Z" fill="#DF9D34"/>
<path d="M60.3936 78.1695C60.3936 78.7907 60.9088 79.3058 61.53 79.3058H68.5603C69.1815 79.3058 69.6966 78.7907 69.6966 78.1695V72.5331C69.6966 71.9119 69.1815 71.3967 68.5603 71.3967H61.53C60.9088 71.3967 60.3936 71.9119 60.3936 72.5331V78.1695ZM62.6663 73.6695H67.4239V77.0331H62.6663V73.6695Z" fill="#DF9D34"/>
<path d="M81.2727 72.5331C81.2727 71.9119 80.7576 71.3967 80.1363 71.3967H73.106C72.4848 71.3967 71.9697 71.9119 71.9697 72.5331V78.1695C71.9697 78.7907 72.4848 79.3058 73.106 79.3058H80.1363C80.7576 79.3058 81.2727 78.7907 81.2727 78.1695V72.5331ZM79 77.0331H74.2424V73.6695H79V77.0331Z" fill="#DF9D34"/>
<path d="M92.848 72.5331C92.848 71.9119 92.3329 71.3967 91.7116 71.3967H84.6813C84.0601 71.3967 83.545 71.9119 83.545 72.5331V78.1695C83.545 78.7907 84.0601 79.3058 84.6813 79.3058H91.7116C92.3329 79.3058 92.848 78.7907 92.848 78.1695V72.5331ZM90.5753 77.0331H85.8177V73.6695H90.5753V77.0331Z" fill="#DF9D34"/>
<path d="M60.3936 88.3665C60.3936 88.9877 60.9088 89.5028 61.53 89.5028H68.5603C69.1815 89.5028 69.6966 88.9877 69.6966 88.3665V82.7301C69.6966 82.1089 69.1815 81.5938 68.5603 81.5938H61.53C60.9088 81.5938 60.3936 82.1089 60.3936 82.7301V88.3665ZM62.6663 83.8513H67.4239V87.215H62.6663V83.8513Z" fill="#DF9D34"/>
<path d="M80.1363 81.5786H73.106C72.4848 81.5786 71.9697 82.0938 71.9697 82.715V88.3513C71.9697 88.9725 72.4848 89.4877 73.106 89.4877H80.1363C80.7576 89.4877 81.2727 88.9725 81.2727 88.3513V82.715C81.2727 82.0938 80.7727 81.5786 80.1363 81.5786ZM79 87.2301H74.2424V83.8665H79V87.2301Z" fill="#DF9D34"/>
<path d="M91.7116 81.5786H84.6813C84.0601 81.5786 83.545 82.0938 83.545 82.715V88.3513C83.545 88.9725 84.0601 89.4877 84.6813 89.4877H91.7116C92.3329 89.4877 92.848 88.9725 92.848 88.3513V82.715C92.848 82.0938 92.348 81.5786 91.7116 81.5786ZM90.5753 87.2301H85.8177V83.8665H90.5753V87.2301Z" fill="#DF9D34"/>
<path d="M47.0454 80.412C47.0454 72.0484 40.2424 65.2605 31.8939 65.2605C27.4545 65.2605 23.4697 67.1847 20.6969 70.2453H10.2575C8.84846 70.2453 7.71209 71.3817 7.71209 72.7908V77.6544C7.71209 77.7453 7.72725 77.8363 7.7424 77.9272H4.63634C3.22725 77.9272 2.09088 79.0635 2.09088 80.4726V85.3363C2.09088 85.8514 2.2424 86.3514 2.51512 86.7453C2.2424 87.1544 2.09088 87.6393 2.09088 88.1544V93.0181C2.09088 94.4272 3.22725 95.5635 4.63634 95.5635H28.3182H31.8939C40.2424 95.5635 47.0454 88.7605 47.0454 80.412ZM9.98482 72.7908C9.98482 72.6393 10.106 72.5181 10.2575 72.5181H18.9697C17.9697 74.1393 17.2727 75.9726 16.9394 77.9272H10.2575C10.106 77.9272 9.98482 77.806 9.98482 77.6544V72.7908ZM4.36361 80.4726C4.36361 80.3211 4.48482 80.1999 4.63634 80.1999H16.7424C16.7424 80.2757 16.7272 80.3363 16.7272 80.412C16.7272 82.2453 17.0757 83.9878 17.6666 85.609H4.63634C4.48482 85.609 4.36361 85.4878 4.36361 85.3363V80.4726ZM4.63634 93.2908C4.48482 93.2908 4.36361 93.1696 4.36361 93.0181V88.1544C4.36361 88.0029 4.48482 87.8817 4.63634 87.8817H18.7121C19.9697 90.0938 21.7727 91.9575 23.9394 93.2908H4.63634ZM31.8939 93.2908C31.4545 93.2908 31.0303 93.2605 30.606 93.2302C30.2121 93.1847 29.8182 93.1241 29.4242 93.0484C23.5 91.8969 19 86.6696 19 80.412C19 73.306 24.7727 67.5332 31.8788 67.5332C38.9848 67.5332 44.7575 73.306 44.7575 80.412C44.7575 87.5181 38.9848 93.2908 31.8939 93.2908Z" fill="#DF9D34"/>
<path d="M31.8939 69.3513C25.7879 69.3513 20.8333 74.3059 20.8333 80.4119C20.8333 86.518 25.7879 91.4725 31.8939 91.4725C33.2273 91.4725 34.5454 91.2301 35.7879 90.7604C36.3788 90.5331 36.6666 89.8816 36.4545 89.2907C36.2424 88.6998 35.5757 88.4119 34.9848 88.624C34 89.0028 32.9545 89.1847 31.8939 89.1847C27.0454 89.1847 23.106 85.2453 23.106 80.3968C23.106 75.5483 27.0454 71.6089 31.8939 71.6089C36.7424 71.6089 40.6818 75.5483 40.6818 80.3968C40.6818 82.8968 39.606 85.2907 37.7273 86.9574C37.2576 87.3816 37.2121 88.0937 37.6363 88.5634C38.0606 89.0331 38.7727 89.0786 39.2424 88.6543C41.606 86.5483 42.9545 83.5331 42.9545 80.3816C42.9545 74.3059 37.9848 69.3513 31.8939 69.3513Z" fill="#DF9D34"/>
<path d="M29.1436 79.5938H36.6436" stroke="#DF9D34" stroke-width="1.5" stroke-linecap="round" stroke-linejoin="round"/>
<path d="M30.1436 76.5938H32.3658C33.9 76.5938 35.1436 77.8374 35.1436 79.3715V79.3715C35.1436 80.9057 33.9 82.1493 32.3658 82.1493H30.1436L34.1436 86.5938" stroke="#DF9D34" stroke-width="1.5" stroke-linecap="round" stroke-linejoin="round"/>
<path d="M47.545 23.1543C47.545 29.624 52.8177 34.8967 59.2874 34.8967C65.7571 34.8967 71.0298 29.624 71.0298 23.1543C71.0298 16.6846 65.7571 11.4119 59.2874 11.4119C52.8177 11.4119 47.545 16.6846 47.545 23.1543ZM59.2874 32.624C54.0601 32.624 49.8177 28.3816 49.8177 23.1543C49.8177 18.321 53.4692 14.321 58.151 13.7452V23.1543C58.151 23.7755 58.6662 24.2907 59.2874 24.2907H68.6813C68.1207 28.9876 64.1207 32.624 59.2874 32.624ZM60.4238 13.7604C64.742 14.2755 68.1662 17.7149 68.6965 22.0331H60.4238V13.7604Z" fill="#DF9D34"/>
<path d="M18.9697 33.1846H30.9545C31.5757 33.1846 32.0909 32.6694 32.0909 32.0482C32.0909 31.427 31.5757 30.9119 30.9545 30.9119H18.9697C18.3485 30.9119 17.8333 31.427 17.8333 32.0482C17.8333 32.6694 18.3333 33.1846 18.9697 33.1846Z" fill="#DF9D34"/>
<path d="M36.4393 33.1846H39.2878C39.909 33.1846 40.4242 32.6694 40.4242 32.0482C40.4242 31.427 39.909 30.9119 39.2878 30.9119H36.4393C35.8181 30.9119 35.303 31.427 35.303 32.0482C35.303 32.6694 35.803 33.1846 36.4393 33.1846Z" fill="#DF9D34"/>
<path d="M18.9697 38.3362H30.9545C31.5757 38.3362 32.0909 37.8211 32.0909 37.1998C32.0909 36.5786 31.5757 36.0635 30.9545 36.0635H18.9697C18.3485 36.0635 17.8333 36.5786 17.8333 37.1998C17.8333 37.8211 18.3333 38.3362 18.9697 38.3362Z" fill="#DF9D34"/>
<path d="M36.4393 38.3362H39.2878C39.909 38.3362 40.4242 37.8211 40.4242 37.1998C40.4242 36.5786 39.909 36.0635 39.2878 36.0635H36.4393C35.8181 36.0635 35.303 36.5786 35.303 37.1998C35.303 37.8211 35.803 38.3362 36.4393 38.3362Z" fill="#DF9D34"/>
<path d="M18.9697 43.503H30.9545C31.5757 43.503 32.0909 42.9878 32.0909 42.3666C32.0909 41.7454 31.5757 41.2302 30.9545 41.2302H18.9697C18.3485 41.2302 17.8333 41.7454 17.8333 42.3666C17.8333 42.9878 18.3333 43.503 18.9697 43.503Z" fill="#DF9D34"/>
<path d="M36.4393 43.503H39.2878C39.909 43.503 40.4242 42.9878 40.4242 42.3666C40.4242 41.7454 39.909 41.2302 39.2878 41.2302H36.4393C35.8181 41.2302 35.303 41.7454 35.303 42.3666C35.303 42.9878 35.803 43.503 36.4393 43.503Z" fill="#DF9D34"/>
<path d="M43.6367 55.0484C44.2579 55.0484 44.7731 54.5332 44.7731 53.912V48.8969C44.7731 48.2756 44.2579 47.7605 43.6367 47.7605H38.6216C38.0004 47.7605 37.4852 48.2756 37.4852 48.8969C37.4852 49.5181 38.0004 50.0332 38.6216 50.0332H41.2125L32.2882 58.9575L28.4094 55.0787C28.1973 54.8666 27.9094 54.7453 27.6064 54.7453C27.3034 54.7453 27.0155 54.8666 26.8034 55.0787L18.1519 63.7302C17.7125 64.1696 17.7125 64.8969 18.1519 65.3363C18.3791 65.5635 18.667 65.6696 18.9549 65.6696C19.2428 65.6696 19.5307 65.5635 19.7579 65.3363L27.6064 57.4878L31.4852 61.3666C31.9094 61.7908 32.667 61.7908 33.0913 61.3666L42.5004 51.9575V53.8969C42.5004 54.5332 43.0155 55.0484 43.6367 55.0484Z" fill="#DF9D34"/>
</svg>
