<svg width="100" height="100" viewBox="0 0 100 100" fill="none" xmlns="http://www.w3.org/2000/svg">
<path d="M53.5623 49.5426C53.3086 47.5754 51.5082 46.1858 49.542 46.4396C47.5748 46.6923 46.1852 48.4927 46.4389 50.4589C46.6927 52.4262 48.492 53.8157 50.4593 53.562C52.4265 53.3093 53.815 51.5089 53.5623 49.5426Z" fill="#0D6EFD"/>
<path d="M99.5848 43.6143C96.0583 16.229 70.9997 -3.11162 43.6147 0.414969C16.2298 3.94254 -3.11161 29.0014 0.414947 56.3867C3.9415 83.7729 29.0011 103.112 56.386 99.585C83.771 96.0584 103.112 71.0015 99.5848 43.6143ZM93.369 58.5501C91.6925 58.3256 90.1527 59.5005 89.9263 61.176C89.7292 62.6485 90.6133 64.0175 91.9687 64.4801C91.6877 65.2949 91.3793 66.098 91.0524 66.8923C89.3682 66.1565 81.8106 62.8378 77.4946 60.5944C72.6819 58.0895 67.4702 54.8644 57.074 52.3527C56.9569 52.7059 56.8125 53.0475 56.6456 53.3763C65.742 59.0028 71.6993 60.4412 76.8652 62.104C81.4944 63.5941 89.1662 66.6337 90.8738 67.3158C90.5509 68.075 90.2113 68.8264 89.8483 69.5651C89.7917 69.5377 89.737 69.5085 89.6785 69.4841C88.1182 68.8322 86.3256 69.569 85.6738 71.1293C85.1029 72.4974 85.5996 74.045 86.7833 74.8442C86.3012 75.5565 85.7977 76.2533 85.2757 76.9373C83.8266 75.781 77.399 70.6297 73.8158 67.349C69.815 63.6848 65.6152 59.2195 56.2211 54.1013C56.0182 54.4107 55.7918 54.7044 55.5439 54.9796C62.8742 62.7705 68.2577 65.7018 72.8176 68.6439C76.8974 71.2776 83.5075 76.1899 84.9946 77.3003C84.4872 77.9502 83.9652 78.5874 83.4226 79.208C83.3767 79.169 83.3328 79.1271 83.2831 79.09C81.9452 78.0566 80.0229 78.3044 78.9895 79.6423C78.084 80.8181 78.163 82.4429 79.1037 83.5211C78.4548 84.0852 77.7883 84.6287 77.1072 85.1547C76.0153 83.6753 71.1304 77.0232 68.5143 72.9219C65.5986 68.3472 62.6975 62.9471 54.9497 55.5738C54.6735 55.8188 54.3798 56.0452 54.0675 56.2481C59.1319 65.6677 63.5718 69.8929 67.2145 73.9152C70.4786 77.5199 75.6016 83.9876 76.7413 85.4328C76.0836 85.9295 75.4142 86.4105 74.7292 86.8711C74.6941 86.8184 74.6599 86.7648 74.6209 86.713C73.5943 85.3684 71.6749 85.1107 70.3303 86.1354C69.1476 87.038 68.8061 88.6334 69.4394 89.9186C68.6685 90.2943 67.8839 90.6465 67.0867 90.9783C66.4192 89.2775 63.4177 81.5763 61.951 76.9334C60.3185 71.7587 58.9143 65.7926 53.3376 56.6648C53.0107 56.8287 52.6673 56.9702 52.3121 57.0863C54.7652 67.4973 57.961 72.7277 60.4385 77.555C62.6604 81.8857 65.9391 89.4697 66.6603 91.151C65.8991 91.4584 65.1283 91.7492 64.3447 92.0166C64.3232 91.9551 64.3047 91.8946 64.2793 91.8341C63.6372 90.2709 61.8486 89.5244 60.2844 90.1664C58.9143 90.7305 58.1708 92.1756 58.443 93.5769C57.6038 93.7389 56.7549 93.8775 55.8972 93.9926C55.6893 92.1464 54.7867 83.9603 54.574 79.1085C54.3359 73.6879 54.5232 67.5607 51.4982 57.3C51.3187 57.3362 51.1372 57.3693 50.9518 57.3928C50.7674 57.4171 50.5829 57.4318 50.3995 57.4415C50.0745 68.1335 51.8076 74.0138 52.9512 79.3183C53.9739 84.0647 55.1751 92.2147 55.4415 94.0512C54.6179 94.1526 53.7972 94.2317 52.9805 94.2873C52.9756 94.2268 52.9737 94.1663 52.9658 94.1048C52.7492 92.4274 51.2153 91.2437 49.5388 91.4594C48.0654 91.6497 46.9725 92.8577 46.8759 94.2863C46.0142 94.2258 45.1584 94.139 44.3085 94.0297C44.5827 92.2127 45.8327 84.05 46.8837 79.3008C48.0566 74.0031 49.8238 68.1335 49.5583 57.4406C49.1846 57.4191 48.8187 57.3693 48.4586 57.2932C45.379 67.5363 45.5312 73.6635 45.2629 79.0822C45.0218 83.9407 44.0695 92.1425 43.8538 93.9682C43.0341 93.854 42.2203 93.7204 41.4143 93.5613C41.427 93.4979 41.4406 93.4354 41.4494 93.37C41.6748 91.6936 40.5 90.1538 38.8235 89.9274C37.352 89.7302 35.9839 90.6143 35.5204 91.9688C34.7056 91.6868 33.9026 91.3804 33.1092 91.0525C33.844 89.3682 37.1627 81.8115 39.4071 77.4955C41.911 72.6828 45.136 67.471 47.6477 57.0746C47.2955 56.9575 46.9529 56.8131 46.6241 56.6453C40.9976 65.7418 39.5593 71.7001 37.8975 76.8651C36.4074 81.4954 33.3678 89.1653 32.6857 90.8749C31.9256 90.5519 31.1742 90.2113 30.4355 89.8483C30.4629 89.7917 30.4921 89.7371 30.5165 89.6785C31.1674 88.1182 30.4307 86.3266 28.8703 85.6738C27.5023 85.1039 25.9556 85.6006 25.1564 86.7843C24.4441 86.3022 23.7474 85.7987 23.0643 85.2766C24.2197 83.8285 29.3719 77.3999 32.6526 73.8167C36.3167 69.8158 40.781 65.6159 45.8981 56.2218C45.5898 56.0178 45.296 55.7914 45.0209 55.5446C37.231 62.8749 34.2987 68.2584 31.3567 72.8174C28.723 76.8983 23.8098 83.5094 22.7003 84.9946C22.0505 84.4882 21.4123 83.9651 20.7917 83.4236C20.8317 83.3777 20.8727 83.3328 20.9107 83.284C21.9441 81.9452 21.6962 80.0238 20.3574 78.9895C19.1826 78.0839 17.5579 78.1649 16.4786 79.1036C15.9156 78.4557 15.3721 77.7892 14.8451 77.1071C16.3235 76.0171 22.9765 71.1303 27.0788 68.5151C31.6543 65.5984 37.0534 62.6983 44.4266 54.9503C44.1817 54.6741 43.9553 54.3804 43.7523 54.0682C34.3329 59.1326 30.1077 63.5726 26.0864 67.2153C22.4808 70.4804 16.0102 75.6044 14.567 76.7412C14.0713 76.0845 13.5893 75.416 13.1287 74.73C13.1814 74.6939 13.236 74.6598 13.2877 74.6207C14.6314 73.5952 14.89 71.6748 13.8644 70.3301C12.9618 69.1484 11.3664 68.8068 10.0803 69.4401C9.70557 68.6693 9.3533 67.8837 9.02251 67.0875C10.7194 66.421 18.4234 63.4184 23.0682 61.9518C28.2419 60.3182 34.208 58.914 43.3356 53.3392C43.1707 53.0104 43.0302 52.6679 42.9151 52.3117C32.5042 54.7659 27.273 57.9617 22.4466 60.4392C18.1141 62.6612 10.5282 65.9409 8.84881 66.662C8.54144 65.8999 8.25065 65.128 7.98328 64.3444C8.04475 64.324 8.10525 64.3044 8.16575 64.28C9.72996 63.637 10.4765 61.8483 9.83437 60.2851C9.27036 58.9131 7.82422 58.1705 6.42297 58.4427C6.26098 57.6035 6.12242 56.7555 6.00727 55.8978C7.84959 55.69 16.0405 54.7883 20.8932 54.5736C26.3128 54.3355 32.4398 54.5229 42.7004 51.4998C42.6643 51.3193 42.6311 51.1378 42.6077 50.9524C42.5833 50.767 42.5696 50.5825 42.5599 50.3991C31.867 50.0741 25.9878 51.8082 20.6834 52.9518C15.9351 53.9745 7.78324 55.1757 5.94873 55.4421C5.84724 54.6185 5.7682 53.7979 5.71258 52.9801C5.77308 52.9762 5.83456 52.9743 5.89603 52.9655C7.57246 52.7498 8.75611 51.2159 8.54046 49.5384C8.35115 48.0649 7.14213 46.972 5.71356 46.8764C5.77406 46.0148 5.8609 45.159 5.97019 44.309C7.78519 44.5832 15.9497 45.8333 20.7009 46.8852C25.9976 48.0571 31.867 49.8234 42.5599 49.5589C42.5823 49.1862 42.6321 48.8183 42.7072 48.4592C32.4652 45.3785 26.3381 45.5317 20.9195 45.2634C16.06 45.0224 7.85545 44.07 6.03167 43.8543C6.14584 43.0346 6.27952 42.2208 6.43858 41.4138C6.50201 41.4265 6.56543 41.4411 6.63081 41.4499C8.30627 41.6753 9.84706 40.4995 10.0725 38.824C10.2706 37.3515 9.38648 35.9834 8.03207 35.5209C8.3131 34.7061 8.62048 33.903 8.94737 33.1086C10.6316 33.8434 18.1892 37.1622 22.5052 39.4075C27.3188 41.9115 32.5296 45.1365 42.9258 47.6483C43.0439 47.295 43.1873 46.9535 43.3552 46.6246C34.2587 40.9981 28.3005 39.5597 23.1355 37.8979C18.5063 36.4069 10.8346 33.3672 9.12594 32.6861C9.44893 31.926 9.78949 31.1746 10.1525 30.4349C10.2091 30.4632 10.2637 30.4915 10.3213 30.5159C11.8816 31.1677 13.6742 30.431 14.326 28.8707C14.8968 27.5026 14.4002 25.9559 13.2175 25.1567C13.6986 24.4444 14.203 23.7477 14.7241 23.0636C16.1732 24.22 22.6018 29.3713 26.184 32.652C30.1857 36.3161 34.3856 40.7815 43.7787 45.8986C43.9826 45.5903 44.209 45.2966 44.4568 45.0214C37.1256 37.2305 31.7421 34.2991 27.1832 31.3571C23.1024 28.7233 16.4923 23.8111 15.0061 22.7006C15.5126 22.0507 16.0356 21.4135 16.5772 20.7919C16.624 20.8319 16.6679 20.8729 16.7167 20.91C18.0545 21.9434 19.9769 21.6955 21.0102 20.3577C21.9168 19.1818 21.8358 17.5571 20.8971 16.4798C21.545 15.9158 22.2124 15.3722 22.8935 14.8463C23.9845 16.3246 28.8703 22.9768 31.4855 27.0791C34.4022 31.6537 37.3032 37.0529 45.0511 44.4271C45.3263 44.1822 45.621 43.9558 45.9323 43.7528C40.8678 34.3333 36.4279 30.108 32.7862 26.0867C29.5222 22.4811 24.3982 16.0124 23.2595 14.5682C23.9162 14.0715 24.5856 13.5894 25.2716 13.1288C25.3067 13.1825 25.3399 13.2362 25.3789 13.2869C26.4045 14.6316 28.3258 14.8892 29.6695 13.8646C30.8522 12.962 31.1937 11.3665 30.5604 10.0814C31.3313 9.70569 32.1168 9.3544 32.9141 9.02262C33.5805 10.7215 36.5831 18.4236 38.0487 23.0685C39.6813 28.2423 41.0864 34.2084 46.6622 43.3362C46.99 43.1722 47.3325 43.0307 47.6887 42.9156C45.2346 32.5036 42.0388 27.2733 39.5622 22.4459C37.3403 18.1143 34.0606 10.5293 33.3385 8.84991C34.1006 8.54155 34.8725 8.25076 35.6561 7.98436C35.6766 8.04486 35.6951 8.10536 35.7205 8.16586C36.3626 9.72911 38.1512 10.4766 39.7154 9.83353C41.0864 9.27048 41.829 7.82433 41.5577 6.42306C42.3969 6.26107 43.2459 6.12348 44.1026 6.00736C44.3105 7.85165 45.2131 16.0407 45.4268 20.8924C45.6649 26.3131 45.4775 32.4402 48.5006 42.7019C48.6811 42.6648 48.8626 42.6316 49.048 42.6082C49.2334 42.5848 49.4169 42.5692 49.6013 42.5594C49.9262 31.8674 48.1922 25.9881 47.0496 20.6836C46.0269 15.9353 44.8247 7.78432 44.5583 5.94881C45.3819 5.84733 46.2026 5.76926 47.0203 5.71266C47.0242 5.77316 47.0261 5.83366 47.0349 5.89514C47.2506 7.57256 48.7845 8.75623 50.461 8.54057C51.9344 8.35029 53.0263 7.14223 53.1239 5.71461C53.9856 5.77414 54.8413 5.86099 55.6913 5.97028C55.418 7.78822 54.1671 15.9509 53.1161 20.7002C51.9432 25.9979 50.176 31.8674 50.4414 42.5604C50.8152 42.5828 51.1821 42.6316 51.5412 42.7077C54.6218 32.4646 54.4696 26.3375 54.7379 20.9178C54.9789 16.0592 55.9303 7.85555 56.147 6.03273C56.9657 6.1469 57.7805 6.27961 58.5855 6.43867C58.5728 6.5021 58.5592 6.56455 58.5504 6.62993C58.325 8.30638 59.5008 9.84621 61.1753 10.0726C62.6487 10.2697 64.0158 9.3866 64.4793 8.03217C65.2941 8.31321 66.0972 8.62059 66.8915 8.94846C66.1558 10.6337 62.838 18.1894 60.5927 22.5054C58.0898 27.3182 54.8648 32.53 52.3521 42.9263C52.7053 43.0444 53.0468 43.1878 53.3757 43.3557C59.0022 34.2591 60.4415 28.3008 62.1023 23.1348C63.5923 18.5056 66.6339 10.8347 67.315 9.12606C68.0742 9.44906 68.8256 9.78961 69.5643 10.1526C69.5369 10.2082 69.5086 10.2629 69.4833 10.3205C68.8324 11.8818 69.5691 13.6734 71.1285 14.3262C72.4975 14.896 74.0442 14.4003 74.8434 13.2167C75.5567 13.6987 76.2534 14.2022 76.9364 14.7243C75.7801 16.1734 70.6289 22.6011 67.3482 26.1843C63.6831 30.1851 59.2188 34.386 54.1017 43.7792C54.41 43.9831 54.7038 44.2095 54.9799 44.4564C62.7688 37.1261 65.702 31.7425 68.6441 27.1825C71.2778 23.1026 76.1909 16.4915 77.2994 15.0063C77.9493 15.5128 78.5875 16.0348 79.2081 16.5774C79.1681 16.6232 79.1271 16.6672 79.0891 16.7159C78.0567 18.0548 78.3045 19.9761 79.6414 21.0105C80.8172 21.9161 82.4419 21.836 83.5212 20.8973C84.0842 21.5452 84.6277 22.2117 85.1547 22.8938C83.6753 23.9858 77.0233 28.8707 72.922 31.4859C68.3455 34.4016 62.9464 37.3027 55.5732 45.0516C55.8181 45.3268 56.0445 45.6215 56.2475 45.9328C65.6679 40.8683 69.8921 36.4284 73.9144 32.7856C77.519 29.5216 83.9896 24.3966 85.4328 23.2598C85.9285 23.9155 86.4105 24.5849 86.8711 25.2709C86.8184 25.306 86.7647 25.3402 86.713 25.3792C85.3674 26.4048 85.1108 28.3252 86.1344 29.6699C87.038 30.8516 88.6324 31.1931 89.9195 30.5598C90.2942 31.3307 90.6465 32.1162 90.9783 32.9135C89.2784 33.5809 81.5764 36.5825 76.9325 38.0492C71.7588 39.6817 65.7928 41.0869 56.6651 46.6627C56.8291 46.9906 56.9696 47.3331 57.0847 47.6893C67.4965 45.2351 72.7268 42.0393 77.5551 39.5617C81.8867 37.3398 89.4736 34.0601 91.151 33.3389C91.4593 34.101 91.7501 34.8719 92.0155 35.6555C91.955 35.677 91.8945 35.6955 91.835 35.7199C90.2688 36.363 89.5243 38.1507 90.1654 39.7149C90.7304 41.0859 92.1746 41.8295 93.5768 41.5572C93.7388 42.3964 93.8774 43.2454 93.9925 44.1031C92.1492 44.311 83.9593 45.2126 79.1076 45.4273C73.687 45.6644 67.56 45.4781 57.2994 48.5011C57.3355 48.6817 57.3687 48.8632 57.3931 49.0486C57.4165 49.233 57.4311 49.4174 57.4409 49.6009C68.1328 49.9258 74.012 48.1928 79.3174 47.0491C84.0647 46.0255 92.2175 44.8252 94.052 44.5588C94.1525 45.3815 94.2316 46.2021 94.2872 47.0198C94.2267 47.0238 94.1662 47.0257 94.1047 47.0345C92.4273 47.2501 91.2437 48.7841 91.4593 50.4615C91.6496 51.935 92.8577 53.0279 94.2862 53.1236C94.2257 53.9862 94.1389 54.842 94.0306 55.6919C92.2136 55.4187 84.0501 54.1677 79.2998 53.1167C74.0022 51.9438 68.1328 50.1766 57.4399 50.4411C57.4184 50.8148 57.3687 51.1817 57.2926 51.5408C67.5346 54.6224 73.6626 54.4692 79.0822 54.7376C83.9408 54.9786 92.1453 55.931 93.9681 56.1466C93.854 56.9663 93.7212 57.7802 93.5622 58.5862C93.4988 58.5735 93.4344 58.5588 93.369 58.5501Z" fill="#0D6EFD"/>
</svg>
