<svg width="231" height="311" viewBox="0 0 231 311" fill="none" xmlns="http://www.w3.org/2000/svg">
<g clip-path="url(#clip0_446_1030)">
<path fill-rule="evenodd" clip-rule="evenodd" d="M6.3317 237.504C6.63903 237.504 6.93996 237.53 7.21528 237.582C7.55462 237.197 7.85555 236.776 7.92598 236.417C7.92598 236.417 9.18093 220.41 19.7199 219.535C19.7199 219.535 21.9096 218 21.9096 217.017C21.9096 217.017 23.9649 212.739 33.5434 213.291C33.5434 213.291 128.151 202.212 196.379 212.979C196.379 212.979 205.163 213.416 206.975 217.303C206.975 217.303 209.562 218.458 210.548 218.458C210.548 218.458 218.09 222.221 219.115 230.437L219.544 235.922C219.544 235.922 227.208 237.364 224.115 241.569C224.115 241.569 222.239 243.614 219.825 243.556C219.825 243.556 218.551 258.871 207.346 260.453C207.346 260.453 206.514 267.947 198.421 267.947C198.421 267.947 196.596 276.434 181.198 278.563C181.198 278.563 125.084 286.535 66.8762 281.321C66.8762 281.321 24.3747 280.905 34.363 266.224C34.363 266.224 23.5551 267.291 19.9376 260.896C19.9376 260.896 10.0517 255.416 9.09769 250.696C9.09769 250.696 7.92598 244.644 7.13844 243.598C6.87593 243.64 6.61342 243.66 6.3317 243.66C4.12914 243.66 2.34277 242.281 2.34277 240.58C2.34277 238.883 4.12914 237.504 6.3317 237.504ZM24.0033 220.592V257.175C24.0033 262.884 30.643 262.904 30.643 262.904C30.3805 261.983 30.6366 261.463 31.0464 261.171V216.319C26.2827 216.215 25.6488 218.875 25.6488 218.875C25.175 219.411 24.5732 220.025 24.0033 220.592ZM22.1465 257.513V222.335C13.2467 223.199 12.1326 236.037 12.1326 236.037C8.05404 251.576 21.8904 257.565 21.8904 257.565L22.1465 257.513ZM32.8968 216.476V260.838C48.1545 262.176 126.659 264.632 126.659 264.632C144.497 265.959 196.635 260.287 196.635 260.287V215.929C183.739 211.662 140.085 212.083 140.085 212.083L97.4302 211.933L55.3577 213.541C46.1761 213.395 32.8968 216.476 32.8968 216.476ZM207.314 256.936V221.721C206.495 220.254 200.956 216.611 200.956 216.611L198.85 216.278V263.383C203.991 263.55 206.239 256.988 206.239 256.988C206.655 256.951 207.014 256.93 207.314 256.936ZM209.53 221.024V257.414C216.893 255.468 215.491 234.663 215.491 234.663C216.105 228.673 210.516 221.398 210.516 221.398C210.157 221.19 209.831 221.076 209.53 221.024ZM34.5231 263.102L40.324 263.945C40.324 263.945 40.4648 266.084 37.1546 266.011C35.1761 264.97 35.2466 264.471 34.5231 263.102ZM42.4241 264.226H47.239C47.239 264.226 47.239 267.473 45.2157 267.921C45.2157 267.921 42.9811 268.145 42.6994 266.183L42.4241 264.226ZM48.8524 264.668L53.6737 264.611C53.6737 264.611 54.0963 267.473 51.3687 268.368C51.3687 268.368 49.1342 268.316 49.1342 266.911L48.8524 264.668ZM55.7034 265.397C55.7034 265.397 60.1725 266.016 61.0817 265.959C61.0817 265.959 60.6655 268.988 57.8675 268.93C57.8675 268.93 55.633 268.145 55.633 267.083L55.7674 265.959L55.7034 265.397ZM62.4775 266.016C62.4775 266.016 67.0939 266.407 67.5805 266.183C67.5805 266.183 67.9263 269.274 64.5776 269.383C64.5776 269.383 62.4007 268.483 62.4007 267.583L62.548 266.688L62.4775 266.016ZM70.481 266.261H75.3023C75.3023 266.261 75.3023 270.242 73.279 270.788C73.279 270.788 71.038 271.064 70.7627 268.665L70.481 266.261ZM78.0619 266.443H82.5694C82.5694 266.443 82.5694 270.408 80.6742 270.955C80.6742 270.955 78.5805 271.225 78.3244 268.832L78.0619 266.443ZM84.7399 266.974L89.5676 266.917C89.5676 266.917 89.9838 269.779 87.2626 270.674C87.2626 270.674 85.0217 270.622 85.0217 269.222L84.7399 266.974ZM96.8604 267.525L91.4052 267.463C91.4052 267.463 90.925 270.7 94.0111 271.72C94.0111 271.72 96.5402 271.652 96.5402 270.065L96.8604 267.525ZM98.8516 267.624C98.8516 267.624 103.468 268.061 103.955 267.786C103.955 267.786 104.352 271.517 100.997 271.678C100.997 271.678 98.8196 270.611 98.794 269.524L98.9285 268.441L98.8516 267.624ZM106.189 267.442C106.189 267.442 110.806 267.879 111.292 267.598C111.292 267.598 111.689 271.329 108.341 271.491C108.341 271.491 106.157 270.424 106.144 269.336L106.272 268.249L106.189 267.442ZM112.79 267.692C112.79 267.692 118.13 267.687 118.643 267.369C118.643 267.369 119.731 271.043 115.928 271.512C115.928 271.512 113.258 270.658 113.059 269.581L113.015 268.493L112.79 267.692ZM120.487 267.754C120.487 267.754 125.833 267.749 126.332 267.432C126.332 267.432 127.427 271.095 123.624 271.574C123.624 271.574 120.954 270.721 120.755 269.643L120.717 268.556L120.487 267.754ZM127.92 267.479C127.92 267.479 133.228 267.989 133.779 267.723C133.779 267.723 134.304 271.465 130.462 271.574C130.462 271.574 127.939 270.471 127.907 269.388L128.029 268.296L127.92 267.479ZM135.239 267.562H140.053C140.053 267.562 140.053 271.548 138.037 272.089C138.037 272.089 135.796 272.365 135.52 269.961L135.239 267.562ZM141.308 267.276C141.308 267.276 146.61 267.786 147.167 267.515C147.167 267.515 147.698 271.262 143.85 271.376C143.85 271.376 141.328 270.273 141.289 269.18L141.411 268.093L141.308 267.276ZM148.281 267.38C148.281 267.38 153.582 267.89 154.139 267.619C154.139 267.619 154.671 271.361 150.823 271.475C150.823 271.475 148.3 270.367 148.268 269.279L148.39 268.191L148.281 267.38ZM155.823 267.671C155.823 267.671 160.389 267.671 160.824 267.354C160.824 267.354 161.752 271.017 158.5 271.496C158.5 271.496 156.227 270.642 156.054 269.565L156.022 268.472L155.823 267.671ZM163.673 266.896H168.494C168.494 266.896 168.494 270.877 166.465 271.423C166.465 271.423 164.224 271.694 163.949 269.295L163.673 266.896ZM183.637 265.397C183.637 265.397 178.329 265.907 177.778 265.636C177.778 265.636 177.247 269.388 181.089 269.492C181.089 269.492 183.611 268.389 183.65 267.302L183.528 266.219L183.637 265.397ZM170.332 266.24C170.332 266.24 174.897 266.24 175.333 265.923C175.333 265.923 176.261 269.586 173.015 270.065C173.015 270.065 170.735 269.217 170.563 268.134L170.531 267.047L170.332 266.24ZM192.358 263.93C192.358 263.93 187.056 264.445 186.499 264.174C186.499 264.174 185.974 267.916 189.816 268.03C189.816 268.03 192.338 266.922 192.377 265.834L192.255 264.747L192.358 263.93ZM36.4439 269.217L41.6237 270.518L41.7902 275.565C41.7902 275.565 38.1086 273.952 36.9945 271.584L36.5271 269.867L36.4439 269.217ZM44.7035 270.726L48.385 271.21L48.4619 277.007L45.0428 276.289L44.7035 271.959V270.726ZM51.1638 271.21L52.4508 277.767L56.6894 278.074L55.9147 272.578L52.1051 271.444L51.1638 271.21ZM57.9444 272.558L62.2598 272.875L63.5532 278.589L59.5515 278.287L57.9444 272.558ZM65.0899 272.974L70.0264 273.286L71.3197 279.005L66.6905 279.291L65.0899 272.974ZM72.3122 273.218L76.1987 273.234L77.6009 279.749L74.3483 279.557L72.3122 273.218ZM79.2272 273.983L83.12 274.004L85.7516 280.41L81.2696 280.332L79.2272 273.983ZM87.3843 273.952L92.2504 274.009L95.8487 280.374L89.7789 280.462L87.3843 273.952ZM96.8412 274.728L102.674 274.743L105.965 280.571L99.9017 280.629L96.8412 274.728ZM105.824 274.816L115.352 274.826L113.13 280.795L109.301 280.639L105.824 274.816ZM193.286 269.482L187.325 270.788L185.065 275.836C185.065 275.836 189.585 274.223 191.724 271.85L192.927 270.133L193.286 269.482ZM184.015 270.991L179.962 271.475L177.484 277.277L181.364 276.554L183.503 272.23L184.015 270.991ZM177.049 271.475L173.002 278.037L168.443 278.344L171.51 272.849L175.967 271.72L177.049 271.475ZM169.397 272.828L164.755 273.14L161.042 278.859L165.357 278.558L169.397 272.828ZM161.752 273.239L156.444 273.551L152.744 279.27L157.463 279.562L161.752 273.239ZM154.095 273.484L150.01 273.499L145.861 280.02L149.344 279.827L154.095 273.484ZM146.533 274.254L142.454 274.27L137.057 280.681L141.782 280.597L146.533 274.254ZM138.005 274.218L132.889 274.275L126.505 280.634L132.805 280.733L138.005 274.218ZM127.786 274.998L121.684 275.009L115.825 280.842L122.151 280.899L127.786 274.998Z" fill="#DF9D34"/>
<path fill-rule="evenodd" clip-rule="evenodd" d="M50.6004 247.293C50.6004 247.293 49.8961 249.702 48.0842 250.597C48.0842 250.597 41.8543 253.787 40.8106 256.16C40.8106 256.16 40.0615 256.634 40.1447 259.251L36.1366 259.017C36.1366 259.017 36.4311 254.256 37.2507 252.476C37.2507 252.476 38.9602 247.657 42.1488 245.872C42.1488 245.872 39.863 242.474 39.2996 240.97C38.7297 239.466 39.1715 237.275 40.3496 235.949L42.2064 230.87C42.2064 230.87 40.8362 233.289 39.4724 233.211C39.4724 233.211 36.3479 232.665 36.2518 231.806C36.2518 231.806 36.9369 224.927 36.5464 223.917C36.5464 223.917 38.7873 218.209 39.8566 216.486L42.3985 219.301L46.8932 217.896L47.0853 220.16L50.402 219.15L49.2303 222.039L54.2052 223.444L52.2588 226.337L52.5533 233.445C52.5533 233.445 64.4496 234.934 65.7302 234.934C65.7302 234.934 71.6783 235.09 71.8768 236.968C71.8768 236.968 73.9257 236.027 73.5351 235.012C73.5351 235.012 70.9036 226.649 72.6516 224.38C72.6516 224.38 77.0503 218.833 82.7103 217.74C82.7103 217.74 74.8925 221.961 75.6801 227.118C75.6801 227.118 77.0182 234.642 77.3512 236.557C77.3512 236.557 75.8786 239.3 74.6172 239.3C74.6172 239.3 77.3064 246.075 74.6428 250.946L82.7551 261.812H74.7709C74.7709 261.812 71.339 256.936 69.1941 256.124C69.1941 256.124 65.3908 252.07 64.6289 249.629C64.6289 249.629 54.9927 250.238 52.0795 249.229L50.895 247.871L50.6004 247.293ZM43.7175 230.807L41.5469 239.206L44.8572 246.512L38.813 253.178C38.813 253.178 38.352 254.641 40.4008 253.636C40.4008 253.636 48.0457 247.975 48.5067 247.064C48.5067 247.064 49.9858 244.233 49.7617 243.411L51.1255 243.224C51.1255 243.224 52.1499 247.064 53.4113 247.423L66.7546 248.521C66.7546 248.521 67.8687 250.608 68.3105 251.68L77.0887 260.022H79.3232L72.7732 252.518C72.7732 252.518 72.0241 251.68 72.4787 250.374C72.4787 250.374 75.3023 240.72 70.9932 238.936C70.9932 238.936 69.8023 236.552 60.7232 235.954L50.1587 234.642C50.1587 234.642 50.0114 227.497 48.6668 225.947C48.6668 225.947 46.5859 221.778 45.6959 221.778L39.7478 220.467C39.7478 220.467 40.3368 223.563 39.7478 224.516L38.2559 229.761C38.2559 229.761 39.1523 230.594 40.4841 229.995C40.4841 229.995 43.4614 227.378 43.4614 226.311L45.1005 226.425L43.7175 230.807Z" fill="#DF9D34"/>
<path fill-rule="evenodd" clip-rule="evenodd" d="M165.786 261.182L160.798 261.067L161.08 257.305L156.957 260.495L152.961 260.271C152.961 260.271 159.089 245.102 158.66 243.39C158.66 243.39 156.233 239.055 157.238 233.352C157.238 233.352 154.524 236.318 151.969 233.471C151.969 233.471 150.259 231.754 153.538 226.623C153.538 226.623 159.377 218.526 160.369 217.043L162.937 213.509L164.493 216.018L168.066 214.534C168.066 214.534 170.768 218.411 170.057 220.467C170.057 220.467 173.617 218.76 175.185 219.213C175.185 219.213 170.057 221.95 170.057 222.98C170.057 222.98 169.346 223.319 168.347 223.319L168.488 224.687C168.488 224.687 172.759 223.319 174.046 225.827C174.046 225.827 175.896 229.475 174.897 230.5C174.897 230.5 185.014 227.648 190.136 232.212C190.136 232.212 196.116 236.089 194.983 246.013L194.695 254.906L193.273 254.453L192.985 244.077L191.269 246.471L191.423 257.872L189.143 259.241L187.293 251.716L183.727 259.47L179.744 260.042C179.744 260.042 178.316 252.065 179.744 250.462L180.737 249.322L172.048 249.431L167.067 258.101L165.786 261.182ZM167.912 217.959L167.348 221.378H165.216C165.216 221.378 163.212 225.941 166.356 227.086C166.356 227.086 170.057 227.992 170.486 226.623L171.766 229.704L169.205 231.868C169.205 231.868 167.912 234.267 170.198 234.267C170.198 234.267 181.025 229.933 186.294 233.013C186.294 233.013 194.695 236.203 191.128 243.161C191.128 243.161 184.866 251.029 183.874 255.478L183.157 258.101L181.595 258.221L181.454 250.8L185.295 247.839L169.346 247.496L164.646 258.903L162.937 258.788L164.646 244.186C164.646 244.186 159.23 255.135 159.511 257.19L157.379 257.534C157.379 257.534 159.8 247.73 160.798 246.242C160.798 246.242 161.227 240.653 160.229 239.747C160.229 239.747 158.807 231.421 161.08 229.131C161.08 229.131 156.387 232.212 155.1 232.326C155.1 232.326 152.257 232.67 153.96 228.913C153.96 228.913 161.656 218.76 163.366 218.411L164.646 219.665L167.912 217.959Z" fill="#DF9D34"/>
<path fill-rule="evenodd" clip-rule="evenodd" d="M114.878 208.347C134.848 208.347 151.041 221.3 151.041 237.275C151.041 253.246 134.848 266.204 114.878 266.204C94.9012 266.204 78.7086 253.246 78.7086 237.275C78.7086 221.3 94.9012 208.347 114.878 208.347ZM114.878 211.855C132.428 211.855 146.661 223.241 146.661 237.275C146.661 251.31 132.428 262.696 114.878 262.696C97.3279 262.696 83.0881 251.31 83.0881 237.275C83.0881 223.241 97.3279 211.855 114.878 211.855Z" fill="#DF9D34"/>
<path fill-rule="evenodd" clip-rule="evenodd" d="M114.263 233.602C117.138 233.602 119.469 235.47 119.469 237.765C119.469 240.07 117.138 241.928 114.263 241.928C111.388 241.928 109.058 240.07 109.058 237.765C109.058 235.47 111.388 233.602 114.263 233.602ZM114.263 235.558C115.787 235.558 117.023 236.547 117.023 237.765C117.023 238.982 115.787 239.971 114.263 239.971C112.746 239.971 111.51 238.982 111.51 237.765C111.51 236.547 112.746 235.558 114.263 235.558Z" fill="#DF9D34"/>
<path fill-rule="evenodd" clip-rule="evenodd" d="M114.667 213.395L113.213 221.612C113.213 221.612 111.644 225.301 113.354 226.561L114.667 230.354C114.667 230.354 116.639 225.931 116.639 225.093C116.639 225.093 116.639 222.876 116.114 221.091L115.326 215.82L114.667 213.395Z" fill="#DF9D34"/>
<path fill-rule="evenodd" clip-rule="evenodd" d="M138.6 221.778L130.27 226.233C126.589 227.648 125.43 230.994 123.502 233.674C130.507 231.041 134.541 226.753 138.6 221.778Z" fill="#DF9D34"/>
<path fill-rule="evenodd" clip-rule="evenodd" d="M142.013 228.549C134.842 230.042 131.877 229.438 125.02 234.71C133.664 234.221 138.606 230.474 142.013 228.549Z" fill="#DF9D34"/>
<path fill-rule="evenodd" clip-rule="evenodd" d="M129.713 218.552C125.257 223.288 121.505 225.489 120.218 233.034C126.608 228.351 128.535 221.758 129.713 218.552Z" fill="#DF9D34"/>
<path fill-rule="evenodd" clip-rule="evenodd" d="M122.574 215.544C119.501 220.941 116.427 223.735 117.209 231.322C122.19 225.645 122.286 218.875 122.574 215.544Z" fill="#DF9D34"/>
<path fill-rule="evenodd" clip-rule="evenodd" d="M142.583 234.502C135.175 234.434 132.517 233.227 124.168 236.869C132.665 238.222 138.664 235.641 142.583 234.502Z" fill="#DF9D34"/>
<path fill-rule="evenodd" clip-rule="evenodd" d="M142.243 239.513C135.059 238.056 132.825 236.386 123.643 238.358C131.506 241.267 138.101 239.888 142.243 239.513Z" fill="#DF9D34"/>
<path fill-rule="evenodd" clip-rule="evenodd" d="M140.745 244.077C134.144 241.386 132.428 239.362 122.926 239.664C129.796 243.889 136.602 243.707 140.745 244.077Z" fill="#DF9D34"/>
<path fill-rule="evenodd" clip-rule="evenodd" d="M138.683 248.682C132.818 245.066 131.595 242.817 122.19 241.704C127.959 246.876 134.694 247.704 138.683 248.682Z" fill="#DF9D34"/>
<path fill-rule="evenodd" clip-rule="evenodd" d="M135.264 252.44C130.456 247.923 129.841 245.529 120.922 242.885C125.244 248.901 131.615 250.821 135.264 252.44Z" fill="#DF9D34"/>
<path fill-rule="evenodd" clip-rule="evenodd" d="M128.708 257.69C126.217 252.106 126.704 249.687 119.539 244.686C120.909 251.534 126.019 255.146 128.708 257.69Z" fill="#DF9D34"/>
<path fill-rule="evenodd" clip-rule="evenodd" d="M121.082 259.366C120.583 253.454 121.87 251.237 116.683 244.852C115.665 251.742 119.353 256.327 121.082 259.366Z" fill="#DF9D34"/>
<path fill-rule="evenodd" clip-rule="evenodd" d="M113.034 260.011C114.57 254.209 116.581 252.361 113.764 245.086C110.441 251.492 112.413 256.712 113.034 260.011Z" fill="#DF9D34"/>
<path fill-rule="evenodd" clip-rule="evenodd" d="M106.727 259.949C109.243 254.37 111.548 252.757 110.005 245.242C105.613 251.227 106.676 256.608 106.727 259.949Z" fill="#DF9D34"/>
<path fill-rule="evenodd" clip-rule="evenodd" d="M99.4087 257.118C104.288 252.642 107.156 251.804 109.109 244.353C102.322 248.656 100.875 253.985 99.4087 257.118Z" fill="#DF9D34"/>
<path fill-rule="evenodd" clip-rule="evenodd" d="M93.9919 254.136C100.049 250.727 103.09 250.457 107.207 243.593C99.3254 246.476 96.3354 251.378 93.9919 254.136Z" fill="#DF9D34"/>
<path fill-rule="evenodd" clip-rule="evenodd" d="M89.9967 249.947C96.6748 247.386 99.7289 247.522 105.203 241.298C96.8285 243.098 92.8779 247.537 89.9967 249.947Z" fill="#DF9D34"/>
<path fill-rule="evenodd" clip-rule="evenodd" d="M86.6224 242.391C94.024 242.464 96.6876 243.666 105.037 240.028C96.5403 238.675 90.5409 241.251 86.6224 242.391Z" fill="#DF9D34"/>
<path fill-rule="evenodd" clip-rule="evenodd" d="M86.2062 237.64C93.4669 238.816 95.7911 240.403 104.851 238.077C96.8156 235.475 90.3232 237.104 86.2062 237.64Z" fill="#DF9D34"/>
<path fill-rule="evenodd" clip-rule="evenodd" d="M90.368 227.419C96.4955 230.755 97.8849 232.93 107.355 233.586C101.202 228.699 94.421 228.2 90.368 227.419Z" fill="#DF9D34"/>
<path fill-rule="evenodd" clip-rule="evenodd" d="M94.1521 223.006C98.9606 227.518 99.5752 229.922 108.488 232.561C104.172 226.545 97.8017 224.625 94.1521 223.006Z" fill="#DF9D34"/>
<path fill-rule="evenodd" clip-rule="evenodd" d="M107.547 216.991C107.726 222.923 106.317 225.093 111.158 231.645C112.541 224.797 109.109 220.092 107.547 216.991Z" fill="#DF9D34"/>
<path fill-rule="evenodd" clip-rule="evenodd" d="M100.862 218.458C103.071 224.12 102.463 226.519 109.365 231.754C108.341 224.864 103.423 221.097 100.862 218.458Z" fill="#DF9D34"/>
<path fill-rule="evenodd" clip-rule="evenodd" d="M87.3651 232.79C94.3377 234.804 96.3546 236.635 105.735 235.386C98.2562 231.879 91.5333 232.748 87.3651 232.79Z" fill="#DF9D34"/>
<path fill-rule="evenodd" clip-rule="evenodd" d="M33.5435 213.291C33.5435 213.291 31.0464 199.693 38.6145 195.801C38.6145 195.801 49.0574 189.743 50.498 183.977C50.498 183.977 54.4613 165.374 53.7378 163.355C53.7378 163.355 44.7355 147.493 44.9084 142.445C44.9084 142.445 41.8543 143.455 40.5929 143.606C40.5929 143.606 36.0918 132.204 36.0918 129.618C36.0918 129.618 33.9212 131.059 33.0249 131.059L32.4806 125.143C32.4806 125.143 23.7601 116.421 26.0394 108.886C26.0394 108.886 26.7566 102.641 31.2513 92.5405L35.9509 75.5967C35.9509 75.5967 29.9643 77.1371 29.9643 79.7026C29.9643 79.7026 29.1128 84.3288 22.9149 83.2985C22.9149 83.2985 19.4894 81.0764 19.912 78.1622C19.912 78.1622 11.7933 74.2281 18.8491 70.6323C18.8491 70.6323 27.1855 69.4354 27.1855 67.3799C27.1855 67.3799 26.7566 61.0468 20.5587 62.7588C20.5587 62.7588 15.4685 63.6747 16.288 67.7285C16.288 67.7285 13.2915 70.804 10.3015 68.5767C10.3015 68.5767 8.02207 64.6843 6.65188 64.1379C6.65188 64.1379 0.313146 62.228 0.153076 59.8967C0.153076 59.8967 9.38586 47.1525 9.38586 43.1767C9.38586 43.1767 11.4411 36.0578 13.3236 35.6467C13.3236 35.6467 22.7484 30.6823 23.7281 30.2868C23.7281 30.2868 27.1535 28.429 27.1535 27.4403C27.1535 27.4403 30.7007 24.7915 32.8968 25.2859C32.8968 25.2859 39.0178 18.1201 48.8013 22.4393C48.8013 22.4393 51.2471 23.0274 51.8554 23.7143C51.8554 23.7143 56.0172 21.3621 59.3146 23.1263C59.3146 23.1263 71.4158 29.7976 72.2802 30.9789C72.2802 30.9789 71.5695 22.2676 77.428 20.8262C77.428 20.8262 70.4298 4.00729 86.059 8.05589C86.059 8.05589 89.318 0.484274 97.2958 6.61442C97.2958 6.61442 102.508 1.27006 108.533 6.22413C108.533 6.22413 113.745 1.40015 117.977 7.00471C117.977 7.00471 122.862 1.13996 126.448 7.1348C126.448 7.1348 131.82 0.619574 136.218 7.92059C136.218 7.92059 143.223 0.453051 146.783 10.8608C146.783 10.8608 146.194 15.2008 145.15 15.3257C145.15 15.3257 153.979 17.5321 148.716 26.7638L151.969 32.1706C151.969 32.1706 161.746 28.2937 166.023 28.3717C166.023 28.3717 178.035 14.3838 190.853 21.6796C190.853 21.6796 196.545 26.2434 196.545 28.8713C196.545 28.8713 198.824 31.4889 201.251 31.6033C201.251 31.6033 210.657 32.3891 214.281 38.8367L218.513 44.9668C218.513 44.9668 221.33 48.5107 222.937 48.672C222.937 48.672 230.345 51.966 228.066 57.862C228.066 57.862 224.352 62.5351 220.863 62.5351C220.863 62.5351 219.569 63.2636 219.569 64.2679C219.569 64.2679 217.629 68.3634 212.136 67.9471C212.136 67.9471 207.084 67.1145 205.599 64.3824C205.599 64.3824 202.41 58.4917 200.035 58.2575C200.035 58.2575 196.763 58.8507 196.391 60.9895C196.391 60.9895 194.509 66.4067 194.746 67.3018C194.746 67.3018 195.7 69.7944 199.049 69.4718C199.049 69.4718 206.143 67.843 208.192 70.5802C208.192 70.5802 212.533 80.0512 201.328 80.9671C201.328 80.9671 193.549 78.053 191.468 76.7208C191.468 76.7208 194.317 87.9091 196.219 88.5179C196.219 88.5179 200.297 96.74 200.297 97.9265C200.297 97.9265 197.742 108.012 196.98 108.922C196.98 108.922 197.973 113.601 200.393 113.829C200.393 113.829 191.192 119.346 191.448 125.767C191.448 125.767 191.705 128.775 194.784 129.118L186.922 136.435C186.922 136.435 180.384 143.262 180.801 146C180.801 146 181.364 152.104 181.364 152.983C181.364 152.983 182.683 163.641 178.528 172.643C178.528 172.643 175.102 185.565 183.413 192.226C183.413 192.226 194.944 202.966 195.489 208.836L196.379 212.979C196.411 213.114 154.837 210.606 113.136 210.325C79.6754 210.101 46.1954 211.886 33.5435 213.291Z" fill="#DF9D34"/>
<path fill-rule="evenodd" clip-rule="evenodd" d="M34.792 207.712L40.4648 207.645C40.4648 207.645 40.9579 211.006 37.7501 212.063C37.7501 212.063 35.1249 211.995 35.1249 210.351L34.792 207.712Z" fill="#FDF6EB"/>
<path fill-rule="evenodd" clip-rule="evenodd" d="M43.1604 207.161L48.8332 207.098C48.8332 207.098 49.3263 210.455 46.1249 211.511C46.1249 211.511 43.4933 211.443 43.4933 209.794L43.1604 207.161Z" fill="#FDF6EB"/>
<path fill-rule="evenodd" clip-rule="evenodd" d="M51.3303 206.328L56.9968 206.266C56.9968 206.266 57.4898 209.622 54.2884 210.678C54.2884 210.678 51.6633 210.611 51.6633 208.961L51.3303 206.328Z" fill="#FDF6EB"/>
<path fill-rule="evenodd" clip-rule="evenodd" d="M59.2058 206.026L64.8659 205.964C64.8659 205.964 65.3653 209.326 62.1639 210.382C62.1639 210.382 59.5259 210.314 59.5259 208.665L59.2058 206.026Z" fill="#FDF6EB"/>
<path fill-rule="evenodd" clip-rule="evenodd" d="M66.9275 205.225L73.3495 205.136C73.3495 205.136 73.9065 209.44 70.2761 210.788C70.2761 210.788 67.2989 210.705 67.2989 208.602L66.9275 205.225Z" fill="#FDF6EB"/>
<path fill-rule="evenodd" clip-rule="evenodd" d="M75.9039 204.778L82.3323 204.694C82.3323 204.694 82.8829 208.993 79.259 210.341C79.259 210.341 76.2753 210.262 76.2753 208.15L75.9039 204.778Z" fill="#FDF6EB"/>
<path fill-rule="evenodd" clip-rule="evenodd" d="M84.7848 204.387L91.2068 204.304C91.2068 204.304 91.7638 208.607 88.1334 209.95C88.1334 209.95 85.1497 209.867 85.1497 207.764L84.7848 204.387Z" fill="#FDF6EB"/>
<path fill-rule="evenodd" clip-rule="evenodd" d="M93.6591 204.189L100.087 204.101C100.087 204.101 100.638 208.675 97.0141 210.111C97.0141 210.111 94.0304 210.023 94.0304 207.775L93.6591 204.189Z" fill="#FDF6EB"/>
<path fill-rule="evenodd" clip-rule="evenodd" d="M102.328 204.122L108.75 204.028C108.75 204.028 109.307 208.607 105.677 210.043C105.677 210.043 102.7 209.955 102.7 207.707L102.328 204.122Z" fill="#FDF6EB"/>
<path fill-rule="evenodd" clip-rule="evenodd" d="M111.875 204.163L118.297 204.07C118.297 204.07 118.854 208.649 115.224 210.085C115.224 210.085 112.246 209.997 112.246 207.749L111.875 204.163Z" fill="#FDF6EB"/>
<path fill-rule="evenodd" clip-rule="evenodd" d="M120.717 204.122L127.139 204.033C127.139 204.033 127.696 208.607 124.066 210.044C124.066 210.044 121.088 209.955 121.088 207.712L120.717 204.122Z" fill="#FDF6EB"/>
<path fill-rule="evenodd" clip-rule="evenodd" d="M128.778 204.122L135.207 204.033C135.207 204.033 135.77 208.607 132.14 210.044C132.14 210.044 129.156 209.955 129.156 207.712L128.778 204.122Z" fill="#FDF6EB"/>
<path fill-rule="evenodd" clip-rule="evenodd" d="M136.769 204.054L143.204 203.966C143.204 203.966 143.761 208.54 140.13 209.976C140.13 209.976 137.153 209.888 137.153 207.645L136.769 204.054Z" fill="#FDF6EB"/>
<path fill-rule="evenodd" clip-rule="evenodd" d="M145.009 204.397L151.431 204.304C151.431 204.304 151.988 208.883 148.358 210.325C148.358 210.325 145.374 210.231 145.374 207.983L145.009 204.397Z" fill="#FDF6EB"/>
<path fill-rule="evenodd" clip-rule="evenodd" d="M153.077 204.788L159.172 204.704C159.172 204.704 159.704 209.05 156.259 210.413C156.259 210.413 153.429 210.325 153.429 208.196L153.077 204.788Z" fill="#FDF6EB"/>
<path fill-rule="evenodd" clip-rule="evenodd" d="M160.811 205.105L167.176 205.011C167.176 205.011 167.726 209.544 164.134 210.965C164.134 210.965 161.183 210.876 161.183 208.659L160.811 205.105Z" fill="#FDF6EB"/>
<path fill-rule="evenodd" clip-rule="evenodd" d="M168.815 206.037L174.161 205.964C174.161 205.964 174.628 209.773 171.6 210.965C171.6 210.965 169.128 210.892 169.128 209.024L168.815 206.037Z" fill="#FDF6EB"/>
<path fill-rule="evenodd" clip-rule="evenodd" d="M176.171 206.916L180.5 206.854C180.5 206.854 180.877 209.939 178.425 210.897C178.425 210.897 176.427 210.84 176.427 209.331L176.171 206.916Z" fill="#FDF6EB"/>
<path fill-rule="evenodd" clip-rule="evenodd" d="M182.318 207.629L186.646 207.567C186.646 207.567 187.018 210.647 184.572 211.615C184.572 211.615 182.574 211.553 182.574 210.044L182.318 207.629Z" fill="#FDF6EB"/>
<path fill-rule="evenodd" clip-rule="evenodd" d="M187.895 208.181L192.217 208.118C192.217 208.118 192.595 211.199 190.149 212.167C190.149 212.167 188.145 212.104 188.145 210.6L187.895 208.181Z" fill="#FDF6EB"/>
<path fill-rule="evenodd" clip-rule="evenodd" d="M21.2181 76.648L25.9241 80.7539C25.9241 80.7539 30.9055 75.8519 32.1924 74.9412C32.1924 74.9412 39.3123 67.5257 37.8845 66.1571C37.8845 66.1571 35.6115 62.8526 36.8921 58.9705C36.8921 58.9705 37.3147 46.4292 35.6115 45.3989C35.6115 45.3989 29.7722 44.4882 29.6185 42.8906C29.6185 42.8906 29.7722 40.2679 31.3345 39.8151C31.3345 39.8151 27.4928 37.7596 24.2146 36.2765L22.2233 34.5645C22.2233 34.5645 13.5348 37.7596 12.9649 40.9548L10.1157 49.1665L3.84741 59.314L10.2566 64.1068L12.9649 66.3912C12.9649 66.3912 16.2432 60.7294 21.6343 60.2195C21.6343 60.2195 28.2547 59.288 29.2024 62.7069C29.2024 62.7069 32.7239 70.0548 24.4963 72.5422L18.9451 73.9108L21.2181 76.648Z" fill="#FDF6EB"/>
<path fill-rule="evenodd" clip-rule="evenodd" d="M25.2007 43.9365C25.2007 43.9365 16.0256 40.3875 15.0715 45.7683C15.0715 45.7683 15.0267 50.0406 20.1617 48.2869C22.6972 47.1785 24.1891 45.6538 25.2007 43.9365ZM18.6827 44.6599C19.7071 44.6599 20.5395 45.326 20.5395 46.1482C20.5395 46.9704 19.7071 47.6365 18.6827 47.6365C17.6583 47.6365 16.8323 46.9704 16.8323 46.1482C16.8323 45.326 17.6583 44.6599 18.6827 44.6599Z" fill="#DF9D34" stroke="#DF9D34" stroke-width="0.266667"/>
<path fill-rule="evenodd" clip-rule="evenodd" d="M6.39575 57.9192C6.39575 57.9192 14.5081 51.2687 15.1099 50.7952C15.1099 50.7952 14.9883 55.0779 8.91844 57.2948L7.42019 57.9713L6.39575 57.9192Z" fill="#DF9D34"/>
<path fill-rule="evenodd" clip-rule="evenodd" d="M9.94287 59.6104L20.4562 50.8835C20.4562 50.8835 18.3433 56.0406 13.426 58.4031L11.5051 59.4179L9.94287 59.6104Z" fill="#DF9D34"/>
<path fill-rule="evenodd" clip-rule="evenodd" d="M12.9778 61.5412C12.9778 61.5412 23.5231 52.3668 24.2787 52.1482C24.2787 52.1482 20.373 57.8048 18.1832 58.908L14.8282 61.2706L13.6629 61.7649L12.9778 61.5412Z" fill="#DF9D34"/>
<path fill-rule="evenodd" clip-rule="evenodd" d="M194.195 70.955C194.195 70.955 203.012 72.1467 205.605 71.3609C205.605 71.3609 208.563 77.7461 202.436 78.3653C202.436 78.3653 193.433 76.3358 189.124 72.0739C189.124 72.0739 183.925 69.6385 187.223 64.0599L189.758 58.1639L186.839 56.8474C186.839 56.8474 192.8 48.6201 192.928 47.1994C192.928 47.1994 192.8 43.2497 191.404 42.5316C191.404 42.5316 197.614 38.3685 200.022 33.9036C200.022 33.9036 209.024 35.1213 209.658 37.2548C209.658 37.2548 213.212 44.5611 217.136 47.4076C217.136 47.4076 220.94 50.7537 222.592 51.5707C222.592 51.5707 228.04 54.7138 223.981 58.0703C223.981 58.0703 217.136 61.6193 216.88 63.1388C216.88 63.1388 213.724 67.6454 207.884 63.5447C207.884 63.5447 204.971 58.9757 204.081 57.8621C204.081 57.8621 199.26 52.4813 193.561 59.7876C193.561 59.7876 190.77 68.0149 192.166 68.6237L193.043 69.8414L194.195 70.955Z" fill="#FDF6EB"/>
<path fill-rule="evenodd" clip-rule="evenodd" d="M35.5286 106.06C35.5286 106.06 30.893 102.35 30.893 100.253C30.893 100.253 26.2638 113.798 31.2963 118.149L37.5326 124.112C37.5326 124.112 38.5443 122.343 38.9476 120.725C38.9476 120.725 36.7323 110.577 38.5443 112.19C40.3563 113.798 44.5757 117.665 44.5757 117.665C44.5757 117.665 42.975 101.543 41.9698 100.575L48.6094 105.899C48.6094 105.899 46.3941 93.321 45.3888 92.5196L52.6368 97.5153C52.6368 97.5153 50.018 85.1041 49.0064 83.9749L54.2503 87.68C54.2503 87.68 53.4435 75.7528 50.6263 73.6556C50.6263 73.6556 56.4528 75.5082 57.4004 76.4969C57.4004 76.4969 55.5948 70.1899 50.3766 66.8438C50.3766 66.8438 56.4528 68.1343 57.7782 69.2792C57.7782 69.2792 56.2543 61.2132 50.4662 58.3251C50.4662 58.3251 56.6385 58.1794 57.5925 59.241C57.5925 59.241 52.1758 51.1854 49.0448 49.8844C49.0448 49.8844 55.2171 50.5765 57.2019 52.2418C57.2019 52.2418 56.5232 44.9512 41.1182 36.9997C41.1182 36.9997 39.1589 34.9181 43.3976 36.344L51.862 37.7802L45.0239 32.8262L49.9028 33.7368C49.9028 33.7368 55.121 28.3925 60.0063 32.4359L61.6326 34.9181L67.8241 42.4741L60.1664 39.9971C60.1664 39.9971 66.5179 48.0839 66.0313 49.3848L59.8399 46.913L67.9842 61.6451L59.8399 57.3468L68.4708 72.0737L59.8399 67.3798L64.3282 80.4154L59.6862 77.8656L61.1524 86.8786L58.2136 85.3071C58.2136 85.3071 59.2828 94.1484 61.2613 95.2048L54.8137 92.5717L54.6792 94.674L57.5733 103.734L52.0477 100.05C52.0477 100.05 53.3795 109.708 54.8137 111.441C54.8137 111.441 49.7747 110.145 47.9755 108.844C47.9755 108.844 52.1181 116.348 53.738 117.071C53.738 117.071 53.8917 119.793 46.2148 115.989C46.2148 115.989 45.7794 125.621 47.1048 126.506C47.1048 126.506 42.578 123.233 41.4767 121.557C41.4767 121.557 36.8924 130.596 44.1531 135.269L46.7206 140.744H55.8317L68.2211 130.825C68.2211 130.825 60.9604 124.435 66.3707 116.686C66.3707 116.686 63.0989 111.894 66.5179 106.986L65.231 99.7998C65.231 99.7998 62.9004 97.0366 69.5465 88.164C69.5465 88.164 69.809 82.7676 68.5796 81.0139C68.5796 81.0139 67.7537 75.4249 70.2187 72.4692C70.2187 72.4692 76.9865 62.9357 75.2769 60.8021C75.2769 60.8021 66.6396 44.4256 70.5709 33.5027C70.5709 33.5027 55.6781 21.2268 50.351 27.0291C50.351 27.0291 40.7724 18.7758 36.6939 30.6145L33.0251 28.4549C33.0251 28.4549 29.0298 28.1271 27.8068 31.9884C27.8068 31.9884 26.0909 35.4541 31.3092 35.8496C31.3092 35.8496 36.6106 35.782 36.4506 38.5296C36.4506 38.5296 33.2684 42.1931 36.124 42.3909C36.124 42.3909 38.8132 41.6675 39.3766 41.2096C39.3766 41.2096 41.496 40.1636 42.1554 42.7812C42.1554 42.7812 45.1903 47.4698 45.0239 48.0318C45.0239 48.0318 40.4587 46.3406 39.9273 45.9919C39.9273 45.9919 43.007 52.5748 45.3568 54.0267C45.3568 54.0267 43.1991 54.2036 40.0169 52.6581C40.0169 52.6581 42.578 60.1204 46.4773 63.4821C46.4773 63.4821 40.7532 61.9261 39.9209 61.7076C39.9209 61.7076 44.5117 71.3503 46.9063 72.7241L39.9529 70.7207C39.9529 70.7207 40.1834 82.9237 45.4272 85.9628C45.4272 85.9628 39.2998 84.5213 37.808 82.6115C37.808 82.6115 36.8732 92.1189 41.0798 97.6766L34.0303 94.596L34.2416 101.444L35.5286 106.06Z" fill="#FDF6EB"/>
<path fill-rule="evenodd" clip-rule="evenodd" d="M49.0446 137.918C49.0446 137.918 52.2267 132.818 47.0853 129.384C47.0853 129.384 52.7134 130.659 54.0579 132.131C54.0579 132.131 53.5713 123.009 50.5108 121.042C50.5108 121.042 55.5242 121.042 57.2401 123.009C57.2401 123.009 54.1796 115.255 53.2 114.469L57.1185 114.079L55.8955 106.528L59.193 107.803C59.193 107.803 62.1318 100.83 62.8617 100.643C62.8617 100.643 63.3484 108.875 62.612 109.078L62.3751 112.705L60.0509 111.134C60.0509 111.134 63.2267 119.574 63.1114 120.751L59.9293 118.981C59.9293 118.981 62.8617 128.504 64.2127 129.285C64.2127 129.285 60.9089 129.483 58.0917 127.911C58.0917 127.911 56.0172 137.429 56.6254 138.017C56.6254 138.017 54.5766 136.836 52.4829 136.987L50.5748 137.502L49.0446 137.918Z" fill="#DF9D34"/>
<path fill-rule="evenodd" clip-rule="evenodd" d="M176.088 140.671L178.649 140.827C178.649 140.827 175.8 143.939 176.088 144.699C176.088 144.699 173.988 145.688 169.724 143.861C169.724 143.861 164.595 139.911 164.409 139.151C164.409 139.151 160.894 135.956 159.563 135.347C159.563 135.347 161.656 129.264 162.226 128.733C162.226 128.733 162.982 123.79 162.982 122.801C162.982 122.801 166.183 108.329 162.924 105.457C162.924 105.457 161.791 71.3348 149.51 62.7485C149.51 62.7485 154.171 52.2939 154.171 42.5835C154.171 42.5835 156.035 38.3528 159.146 38.3528C159.146 38.3528 154.171 44.3268 155.574 49.3069C155.574 49.3069 160.542 45.5757 162.565 45.6954C162.565 45.6954 153.864 54.6565 155.881 57.7684C155.881 57.7684 161.791 51.5446 164.429 52.4188C164.429 52.4188 156.195 61.8742 157.597 64.7363C157.597 64.7363 162.098 61.5099 164.121 61.5099C164.121 61.5099 159.146 70.4658 161.323 73.3331L166.145 71.085C166.145 71.085 163.052 79.1406 165.031 82.3098C165.031 82.3098 167.553 79.5725 168.815 79.5725C168.815 79.5725 165.921 91.6871 170.198 93.7426C170.198 93.7426 173.834 89.2881 174.468 87.0661C174.468 87.0661 173.405 98.8788 176.613 100.419C176.613 100.419 180.032 96.1364 180.032 94.5961C180.032 94.5961 182.388 106.331 184.674 107.247C184.674 107.247 186.044 99.3888 187.869 98.6603C187.869 98.6603 187.639 108.886 190.603 108.886C190.603 108.886 198.363 101.944 189.694 89.8918L187.415 94.2734L185.814 88.7938L182.388 91.9005L180.801 84.4121C180.801 84.4121 178.291 83.5014 176.69 84.23L177.606 79.661C177.606 79.661 178.515 76.9238 172.349 76.9238L174.18 69.4354H168.706L171.901 63.5915C171.901 63.5915 173.271 61.4007 168.706 59.9384C168.706 59.9384 172.131 55.1873 172.131 52.9964L171.446 47.1525L166.881 50.4413C166.881 50.4413 168.936 43.4994 168.936 42.5835L165.517 43.1351C165.517 43.1351 168.251 39.3051 168.482 38.0197L167.912 36.6511L164.947 36.3753C164.947 36.3753 175.217 20.3578 185.103 23.0482C185.103 23.0482 202.82 32.0041 188.055 40.8454C188.055 40.8454 190.546 46.5749 189.764 47.6885L181.998 57.0242L186.281 59.6782C186.281 59.6782 178.726 68.0148 183.797 73.6974C183.797 73.6974 188.081 80.0045 188.983 83.465C188.983 83.465 192.582 91.1095 193.843 92.4053C193.843 92.4053 197.685 103.084 193.312 111.639L189.489 120.459C189.489 120.459 188.695 112.534 187.741 111.639C187.741 111.639 186.307 117.196 186.064 117.582C186.064 117.582 184.476 109.859 183.278 109.026C183.278 109.026 179.136 111.066 178.822 112.086C178.822 112.086 178.662 104.551 177.785 103.781C177.785 103.781 174.046 107.262 174.148 107.835C174.148 107.835 173.886 98.6239 172.458 98.0306C172.458 98.0306 170.979 102.329 170.575 103.339C170.575 103.339 165.632 96.1833 164.922 95.4599C164.922 95.4599 166.401 101.085 166.401 102.012C166.401 102.012 167.656 117.8 173.053 120.902C173.053 120.902 174.494 115.063 175.121 114.849C175.121 114.849 176.466 126.491 180.026 128.426L179.174 119.876C179.174 119.876 183.016 126.954 184.296 127.745L184.725 122.614L189.713 128.203L184.156 134.588L182.593 133.901L181.025 135.727L177.036 128.203L175.467 132.079L171.625 123.639L169.775 129.004L168.347 120.902C168.347 120.902 162.924 129.712 164.877 134.015C164.877 134.015 166.567 140.406 168.021 140.661C168.021 140.661 170.198 136.003 171.446 135.415L172.586 140.739C172.586 140.739 174.974 136.836 175.698 136.669V138.834L176.088 140.671Z" fill="#FDF6EB"/>
<path fill-rule="evenodd" clip-rule="evenodd" d="M179.232 26.696L180.5 31.468C180.5 31.468 180.884 32.9875 177.587 35.1211C177.587 35.1211 182.907 37.7594 182.152 42.1255C182.152 42.1255 187.223 44.8679 185.065 49.4369C185.065 49.4369 178.976 56.9461 178.976 57.9608C178.976 57.9608 180.122 48.214 181.768 47.1004C181.768 47.1004 175.685 50.3528 175.685 50.9616C175.685 50.9616 175.557 45.0761 178.086 42.7343L178.854 39.586C178.854 39.586 174.033 44.155 174.033 44.9668C174.033 44.9668 171.626 42.7343 171.626 38.8783C171.626 38.8783 172.644 31.6709 174.545 30.4532L176.697 28.5226L179.232 26.696Z" fill="#DF9D34"/>
<path fill-rule="evenodd" clip-rule="evenodd" d="M176.761 61.6921C176.761 61.6921 174.398 65.0955 173.809 65.0955L177.471 68.0252C177.471 68.0252 175.935 72.6567 175.935 73.609L179.475 74.0773L180.775 68.9723L179.123 66.3236L177.35 62.7329L176.761 61.6921Z" fill="#DF9D34"/>
<path fill-rule="evenodd" clip-rule="evenodd" d="M182.177 78.0842L179.827 79.3019C179.827 79.3019 180.282 80.5769 180.282 81.0608L184.527 85.1927L185.052 86.5301C185.052 86.5301 186.877 85.8015 186.877 85.38C186.877 85.38 185.135 81.8518 184.226 81.1233L183.003 80.2751L182.254 79.2395L182.177 78.0842Z" fill="#DF9D34"/>
<path fill-rule="evenodd" clip-rule="evenodd" d="M85.6812 76.0079C85.6812 76.0079 78.7534 72.2247 77.0183 66.5109C77.0183 66.5109 71.768 77.6524 72.229 80.2179C72.229 80.2179 73.3687 84.7764 73.1382 87.1546C73.1382 87.1546 68.3425 95.3715 68.3425 97.5623C68.3425 97.5623 69.034 105.051 68.8035 107.247C68.8035 107.247 65.839 113.455 69.7191 116.015C69.7191 116.015 63.7902 126.969 73.3687 132.085C73.3687 132.085 104.845 143.955 108.264 146.146C108.264 146.146 113.053 149.434 119.667 145.235C119.667 145.235 129.252 134.64 142.25 134.64C142.25 134.64 155.254 135.368 156.163 133.36C156.163 133.36 160.728 120.761 160.728 114.366L160.043 107.059C160.043 107.059 157.078 90.6204 157.078 89.1633C157.078 89.1633 155.708 80.5769 155.478 78.7504C155.478 78.7504 150.913 69.0712 150.003 68.1553L147.039 64.3201C147.039 64.3201 140.655 71.0799 138.145 71.6263C138.145 71.6263 135.181 73.9992 135.405 75.6437L132.216 73.9992L131.301 77.6524L126.281 76.9238L123.547 80.9412L117.842 79.661L116.363 81.217L112.144 79.8484L111.459 82.5856L105.869 79.0262L103.474 81.9455C103.474 81.9455 98.0001 78.3861 98.4547 76.2837C98.4547 76.2837 97.4303 79.3904 96.5211 79.3904C96.5211 79.3904 91.6166 78.5682 90.1311 76.9238L86.3663 73.0886L85.9117 74.5561L85.6812 76.0079Z" fill="#FDF6EB"/>
<path fill-rule="evenodd" clip-rule="evenodd" d="M114.609 137.398L111.363 145.047L109.205 142.446C109.205 142.446 114.244 133.937 114.244 132.204L118.745 135.379L122.894 138.121C122.894 138.121 125.41 140 119.11 139.276L116.293 138.626L114.609 137.398Z" fill="#DF9D34"/>
<path fill-rule="evenodd" clip-rule="evenodd" d="M114.609 128.458L107.764 134.369L110.825 122.832L104.525 125.575C104.525 125.575 110.646 115.188 110.646 114.038C110.646 112.882 106.144 116.348 106.144 116.348C106.144 116.348 112.989 102.069 113.168 100.336L106.144 104.374C106.144 104.374 113.706 93.4147 113.706 91.9733L108.846 94.57C108.846 94.57 110.466 89.668 113.527 87.5032L115.326 84.1831L117.49 87.6541C117.49 87.6541 125.41 92.9828 124.514 94.7105C124.514 94.7105 117.849 92.5509 116.767 91.5414C116.767 91.5414 119.11 96.5891 121.633 97.4529L124.687 103.219C124.687 103.219 118.931 101.642 118.207 100.919C118.207 100.919 121.633 108.698 124.873 111.727L125.052 115.333C125.052 115.333 121.812 112.882 119.827 112.882L116.229 110.718L121.812 120.235L125.052 126.293C125.052 126.293 118.387 123.847 116.587 122.4L120.551 130.477L121.453 133.36L117.669 131.059L114.609 128.458Z" fill="#DF9D34"/>
<path fill-rule="evenodd" clip-rule="evenodd" d="M80.8343 89.3766L79.4513 85.6975L83.5107 86.4677C83.5107 86.4677 85.7517 86.9777 85.7517 88.0965L80.9496 92.884L79.1248 96.6516L76.5701 94.6846L75.6033 93.2275L78.8111 91.6039L80.8343 89.3766Z" fill="#DF9D34"/>
<path fill-rule="evenodd" clip-rule="evenodd" d="M88.1143 89.0383C88.1143 89.0383 83.7284 93.1494 83.0881 93.7426C83.0881 93.7426 80.098 98.0202 89.0747 99.3888L91.1044 99.3107C91.1044 99.3107 92.8139 95.5379 94.421 95.1997L92.6026 90.3185L90.9955 89.5483L88.1143 89.0383Z" fill="#DF9D34"/>
<path fill-rule="evenodd" clip-rule="evenodd" d="M96.8733 96.0531C96.8733 96.0531 91.8535 100.502 94.8436 101.871L99.8698 103.328C99.8698 103.328 100.939 100.253 100.939 99.7322L103.078 98.0201C103.078 98.0201 102.437 95.7096 99.6521 95.8813C102.437 95.7096 96.8733 96.0531 96.8733 96.0531Z" fill="#DF9D34"/>
<path fill-rule="evenodd" clip-rule="evenodd" d="M100.222 105.784C100.222 105.784 100.395 110.301 101.765 110.712C101.765 110.712 96.4635 114.548 93.038 112.909C93.038 112.909 90.8162 110.712 93.5438 108.527L97.8273 106.331L100.222 105.784Z" fill="#DF9D34"/>
<path fill-rule="evenodd" clip-rule="evenodd" d="M92.8715 105.509L88.9338 109.344C88.9338 109.344 82.6079 108.657 82.0892 106.055L86.3663 100.851L90.304 102.766L92.6986 103.453L92.8715 105.509Z" fill="#DF9D34"/>
<path fill-rule="evenodd" clip-rule="evenodd" d="M82.6078 99.8936C82.6078 99.8936 77.9786 104.551 78.6701 106.331C78.6701 106.331 74.7324 105.92 74.2202 103.042C73.2918 98.9517 76.4932 97.8329 80.2068 99.6178L82.6078 99.8936Z" fill="#DF9D34"/>
<path fill-rule="evenodd" clip-rule="evenodd" d="M82.7103 109.724C82.7103 109.724 77.4409 116.993 78.6126 118.091C78.6126 118.091 73.6312 116.837 73.6312 114.886L73.9258 110.9C73.9258 110.9 74.8926 110.041 75.488 110.041C76.0707 110.041 79.1952 108.709 79.1952 108.709L80.8471 108.084L82.7103 109.724Z" fill="#DF9D34"/>
<path fill-rule="evenodd" clip-rule="evenodd" d="M85.0537 111.758C85.0537 111.758 88.7545 112.227 89.5421 112.227C89.5421 112.227 90.6177 115.588 91.9815 116.213C91.9815 116.213 86.9041 117.774 87.5892 118.872C87.5892 118.872 83.293 117.93 82.3197 116.135C82.3197 116.135 82.1277 114.261 83.5875 113.007C82.1277 114.261 85.0537 111.758 85.0537 111.758Z" fill="#DF9D34"/>
<path fill-rule="evenodd" clip-rule="evenodd" d="M98.2306 114.964C98.2306 114.964 93.2877 118.352 91.6934 118.794C91.6934 118.794 88.9914 120.901 92.2568 121.989C92.2568 121.989 95.1253 122.629 95.8424 121.864L98.1474 120.714L98.2306 118.414L98.0706 116.369L98.2306 114.964Z" fill="#DF9D34"/>
<path fill-rule="evenodd" clip-rule="evenodd" d="M86.2831 121.094C86.2831 121.094 81.2569 124.799 84.9321 127.547C84.9321 127.547 87.7941 130.175 90.0287 127.932C90.0287 127.932 92.4169 125.569 92.4169 124.612C92.4169 124.612 92.7242 124.232 91.5397 123.717L88.1143 121.927L87.4804 121.479L86.2831 121.094Z" fill="#DF9D34"/>
<path fill-rule="evenodd" clip-rule="evenodd" d="M83.4146 121.094C83.4146 121.094 78.7918 123.649 79.9123 126.21C79.9123 126.21 74.1754 126.652 73.5415 123.332C73.5415 123.332 74.8925 119.944 77.921 119.944L81.1864 120.017L82.4606 120.074L83.4146 121.094Z" fill="#DF9D34"/>
<path fill-rule="evenodd" clip-rule="evenodd" d="M99.428 123.347C99.428 123.347 93.4094 124.591 94.1329 129.342C94.1329 129.342 95.279 132.418 98.4932 130.919C98.4932 130.919 100.049 129.509 99.8441 127.589L100.984 124.924L100.779 123.68L99.428 123.347Z" fill="#DF9D34"/>
<path fill-rule="evenodd" clip-rule="evenodd" d="M89.4909 130.752C89.4909 130.752 84.4903 130.622 83.0753 130.289C83.0753 130.289 84.4071 133.021 86.155 133.157C86.155 133.157 88.4921 132.891 88.825 132.288L89.4909 131.757V130.752Z" fill="#DF9D34"/>
<path fill-rule="evenodd" clip-rule="evenodd" d="M91.7382 133.755C91.7382 133.755 100.311 133.089 102.232 131.955C102.232 131.955 100.817 135.753 97.5647 135.753L94.152 135.358L92.5705 134.957L91.7382 133.755Z" fill="#DF9D34"/>
<path fill-rule="evenodd" clip-rule="evenodd" d="M146.7 121.307L143.165 125.236L145.445 129.072C145.445 129.072 148.64 126.147 148.524 125.143L147.269 122.4L146.7 121.307Z" fill="#DF9D34"/>
<path fill-rule="evenodd" clip-rule="evenodd" d="M140.995 126.636C140.995 126.636 139.906 127.916 139.471 128.031L136.564 129.254H131.474L134.233 132.105C134.233 132.105 139.176 131.06 139.906 129.842L140.995 128.38V126.636Z" fill="#DF9D34"/>
<path fill-rule="evenodd" clip-rule="evenodd" d="M132.709 119.018C132.709 119.018 130.821 119.824 131.768 120.001L131.403 122.442C131.403 122.442 132.709 126.287 132.639 126.865C132.639 126.865 136.487 126.693 138.235 124.888C138.235 124.888 141.865 122.567 135.834 119.418L133.798 118.96L132.709 119.018Z" fill="#DF9D34"/>
<path fill-rule="evenodd" clip-rule="evenodd" d="M141.648 112.908C141.648 112.908 145.355 114.646 149.427 112.029C149.427 112.029 146.015 120.548 142.448 121.162C142.448 121.162 140.483 117.961 138.158 117.904L140.559 115.635L141.142 114.704L141.648 112.908Z" fill="#DF9D34"/>
<path fill-rule="evenodd" clip-rule="evenodd" d="M151.892 116.452C151.892 116.452 149.273 118.024 149.785 119.018L152.257 122.156L154.44 119.653L153.204 117.852L151.892 116.452Z" fill="#DF9D34"/>
<path fill-rule="evenodd" clip-rule="evenodd" d="M153.704 109.817L151.892 111.269L151.527 114.823L154.076 113.715L153.858 110.634L153.704 109.817Z" fill="#DF9D34"/>
<path fill-rule="evenodd" clip-rule="evenodd" d="M153.205 124.425L150.509 127.042L151.386 129.545L152.11 130.825C152.11 130.825 154.005 129.134 154.005 128.562L153.781 126.23L153.275 125.294L153.205 124.425Z" fill="#DF9D34"/>
<path fill-rule="evenodd" clip-rule="evenodd" d="M130.827 109.412C130.827 109.412 135.706 108.636 135.905 108.246C135.905 108.246 140.386 111.602 136.289 114.964L132.479 116.447C132.479 116.447 132.389 112.227 131.999 111.602L131.704 110.744L130.827 109.412Z" fill="#DF9D34"/>
<path fill-rule="evenodd" clip-rule="evenodd" d="M137.953 106.445L141.174 103.864C141.174 103.864 145.861 102.849 146.738 102.537C146.738 102.537 148.704 109.609 141.565 110.978L139.81 108.475L139.317 107.616L137.953 106.445Z" fill="#DF9D34"/>
<path fill-rule="evenodd" clip-rule="evenodd" d="M150.445 104.645L154.152 103.552C154.152 103.552 153.147 108.917 148.979 109.255L150.253 106.992L150.445 104.645Z" fill="#DF9D34"/>
<path fill-rule="evenodd" clip-rule="evenodd" d="M138.133 96.5162C138.133 96.5162 143.581 94.8301 143.735 94.0183C143.735 94.0183 148.326 96.079 144.747 100.575C144.747 100.575 140.777 102.261 139.535 102.261C138.286 102.261 140.053 102.199 140.053 102.199L139.535 102.261C139.535 102.261 139.144 99.576 138.991 98.8267L138.747 97.7026L138.133 96.5162Z" fill="#DF9D34"/>
<path fill-rule="evenodd" clip-rule="evenodd" d="M132.453 95.1477L130.584 98.9517C130.584 98.9517 134.086 105.004 132.844 106.065C132.844 106.065 136.967 102.444 136.967 101.574L134.163 97.0159L133.465 96.3914L132.453 95.1477Z" fill="#DF9D34"/>
<path fill-rule="evenodd" clip-rule="evenodd" d="M135.411 83.7148C135.411 83.7148 138.747 82.7781 139.381 82.2786C139.381 82.2786 145.214 86.5249 141.167 92.3324C141.167 92.3324 138.747 95.1477 136.032 92.4573C136.032 92.4573 136.423 88.0861 135.949 86.655L135.879 85.4009L135.411 83.7148Z" fill="#DF9D34"/>
<path fill-rule="evenodd" clip-rule="evenodd" d="M147.013 76.7207L143.005 80.9723L146.078 86.5508C146.078 86.5508 150.208 81.6383 149.971 80.0304L148.198 78.4224L147.013 76.7207Z" fill="#DF9D34"/>
<path fill-rule="evenodd" clip-rule="evenodd" d="M147.75 93.0818C147.75 93.0818 149.971 97.3386 149.856 97.7965L153.512 94.7783C153.512 94.7783 155.619 91.1147 151.687 91.1147L149.177 92.2596L147.75 93.0818Z" fill="#DF9D34"/>
<path fill-rule="evenodd" clip-rule="evenodd" d="M89.446 14.925C89.446 14.925 87.3459 9.85642 81.6346 9.85642C81.6346 9.85642 74.694 13.0256 80.9303 20.9875C80.9303 20.9875 74.6812 23.7299 73.6376 30.4273L74.0025 49.1299C74.0025 49.1299 75.155 46.9963 75.917 46.7674C75.917 46.7674 75.5008 54.9843 76.6789 56.8733L78.4845 63.2428L80.6614 58.2679C80.6614 58.2679 82.4862 69.7996 84.3174 71.8083L86.5968 66.5108C86.5968 66.5108 90.7906 75.9766 96.361 77.9385L97.0205 70.9237L103.193 77.2828L104.012 73.0052L110.172 79.3071L111.215 74.0148L114.846 79.6037L118.335 73.9523L121.537 77.5794L123.765 72.5889L127.177 74.6705L132.53 69.6123L134.233 72.1102C134.233 72.1102 144.305 61.0364 144.856 55.2913L146.616 57.7683C146.616 57.7683 150.259 52.2418 150.259 51.3312C150.259 51.3312 150.471 38.1966 149.869 36.4221C149.869 36.4221 145.028 26.3735 145.028 24.6042C145.028 24.6042 149.184 17.5581 141.603 16.9701C141.603 16.9701 144.292 12.4636 144.292 10.5069C144.292 10.5069 141.116 5.61528 136.225 11.8755L133.683 12.3595C133.683 12.3595 133.913 8.86249 133.087 8.38893L128.138 8.58148L127.312 12.271H124.834L124.476 8.86249C124.476 8.86249 121.53 4.99082 119.405 8.86249L118.457 12.0785L116.453 12.271L115.505 8.58148C115.505 8.58148 112.56 4.89194 110.082 8.77402L109.371 12.271L107.719 12.3595L106.068 8.58148C106.068 8.58148 103.001 4.89194 99.8121 8.48781L98.7492 12.1721L96.8604 12.3595C96.8604 12.3595 95.9192 9.1487 95.3237 8.77402C95.3237 8.77402 91.8662 5.7818 89.1899 8.58148C88.3191 10.4393 88.8377 13.0672 89.446 14.925Z" fill="#FDF6EB"/>
<path fill-rule="evenodd" clip-rule="evenodd" d="M104.806 55.6452C104.806 55.6452 103.481 59.5325 96.092 58.4709C96.092 58.4709 91.4564 57.0658 91.2323 53.5272C91.2323 53.5272 90.6753 50.6079 88.8057 49.8169L87.0449 47.6937C87.0449 47.6937 84.9384 44.3372 86.4943 41.5115C86.4943 41.5115 89.2795 37.619 85.2457 34.3874C85.2457 34.3874 82.9536 32.7534 86.2894 28.5227C86.2894 28.5227 88.4855 23.8028 88.5688 21.4767C88.5688 21.4767 90.9442 14.363 103.41 14.8574C103.41 14.8574 120.711 13.5876 129.137 15.6327C129.137 15.6327 141.859 18.6041 142.57 31.3744C142.57 31.3744 140.719 38.2175 142.57 40.2678C142.57 40.2678 144.42 57.7163 131.454 57.3781C131.454 57.3781 127.626 56.5923 127.043 54.0736C127.043 54.0736 126.902 59.4284 118.643 59.3139C118.643 59.3139 114.513 56.4622 112.233 58.9705C112.233 58.9705 108.398 60.4952 106.106 57.2636L105.382 56.4049L104.806 55.6452ZM126.877 50.7536C126.877 50.7536 124.079 56.6443 121.044 56.6443C121.044 56.6443 115.339 55.4266 113.943 55.6296C113.943 55.6296 110.396 57.555 108.494 56.1343C108.494 56.1343 105.959 52.5801 105.959 51.0606C105.959 51.0606 103.673 55.6296 100.375 55.9314C100.375 55.9314 95.6887 57.2532 93.787 52.4812C93.787 52.4812 93.4029 47.8082 89.5996 46.6946C89.5996 46.6946 87.3202 44.561 89.7277 41.0067C89.7277 41.0067 91.6229 37.5566 89.0938 35.6259C89.0938 35.6259 86.0525 32.3787 88.588 29.7404C88.588 29.7404 91.3284 24.2763 91.3284 22.0855C91.3284 22.0855 93.3837 16.1948 102.789 16.8817C102.789 16.8817 126.569 14.2745 133.753 19.8895C133.753 19.8895 141.449 25.5097 139.227 34.1429C139.227 34.1429 136.321 38.7951 139.4 41.397C139.4 41.397 139.227 53.3139 135.123 54.1361C135.123 54.1361 130.673 56.4674 128.785 52.6322L127.901 51.633L126.877 50.7536Z" fill="#DF9D34"/>
<path fill-rule="evenodd" clip-rule="evenodd" d="M80.8343 24.4116L76.7814 38.2799L79.3489 40.1637C79.3489 40.1637 83.1969 29.3761 83.1969 27.3258L82.5951 25.5409L80.8343 24.4116Z" fill="#DF9D34"/>
<path fill-rule="evenodd" clip-rule="evenodd" d="M82.4478 40.2002C82.4478 40.2002 75.155 53.1838 78.875 55.9263C78.875 55.9263 80.5141 51.8724 81.5514 50.0875C81.5514 50.0875 84.2341 44.7276 84.2341 43.1768L83.9332 41.5064L82.4478 40.2002Z" fill="#DF9D34"/>
<path fill-rule="evenodd" clip-rule="evenodd" d="M88.46 52.1013C88.46 52.1013 81.1736 63.7267 84.8936 66.1725C84.8936 66.1725 86.5264 62.5455 87.57 60.9531C87.57 60.9531 90.2464 56.1551 90.2464 54.7657L89.9518 53.2774L88.46 52.1013Z" fill="#DF9D34"/>
<path fill-rule="evenodd" clip-rule="evenodd" d="M93.0763 59.6572C93.0763 59.6572 89.0298 72.2454 93.3132 74.0095C93.3132 74.0095 93.9471 70.1898 94.549 68.4517C94.549 68.4517 95.8936 63.3103 95.5158 61.9573L94.8371 60.5471L93.0763 59.6572Z" fill="#DF9D34"/>
<path fill-rule="evenodd" clip-rule="evenodd" d="M130.616 61.1301C130.616 61.1301 125.538 65.3817 126.364 70.5803C126.364 70.5803 130.142 67.3643 130.379 64.2472L130.731 62.8266L130.616 61.1301Z" fill="#DF9D34"/>
<path fill-rule="evenodd" clip-rule="evenodd" d="M138.389 58.2939C138.389 58.2939 133.318 62.5455 134.144 67.7442C134.144 67.7442 137.915 64.5282 138.152 61.4111L138.51 59.9956L138.389 58.2939Z" fill="#DF9D34"/>
<path fill-rule="evenodd" clip-rule="evenodd" d="M143.383 50.5454C143.383 50.5454 140.316 54.9427 141.443 59.751C143.357 56.535 143.46 53.9435 143.383 50.5454Z" fill="#DF9D34"/>
<path fill-rule="evenodd" clip-rule="evenodd" d="M144.76 35.2668L144.932 50.077L146.091 52.0181C148.038 47.2669 146.904 38.0405 144.76 35.2668Z" fill="#DF9D34"/>
<path fill-rule="evenodd" clip-rule="evenodd" d="M97.0845 59.6885L97.5903 64.9652L100.254 63.0398L101.009 70.7519L104.307 64.2575L107.732 72.1725L109.243 64.4604C109.243 64.4604 114.833 71.9696 115.973 72.0737L114.705 64.4604L121.677 69.5342C121.677 69.5342 119.501 62.6391 120.282 60.9062C120.282 60.9062 112.297 63.0398 106.842 61.4162L101.265 60.5992L97.0845 59.6885Z" fill="#DF9D34"/>
<path fill-rule="evenodd" clip-rule="evenodd" d="M96.0665 24.0108C96.0665 24.0108 103.955 20.8209 107.809 26.1652C107.809 26.1652 111.356 31.1713 109.275 34.0179C109.275 34.0179 105.485 37.3535 111.356 38.285L117.471 38.1393C117.471 38.1393 119.609 36.9164 119.001 35.1991C119.001 35.1991 116.485 32.1497 117.836 29.2615C117.836 29.2615 120.339 22.6891 129.335 24.1045C129.335 24.1045 126.825 21.1123 120.775 23.376C120.775 23.376 113.802 26.6596 115.633 32.644C115.633 32.644 116.37 34.5539 116.735 34.7568C116.735 34.7568 117.714 35.8808 115.211 35.9797H112.336C112.336 35.9797 110.678 35.782 111.164 34.9962C111.164 34.9962 113.437 32.4931 111.965 29.1106C111.965 29.1106 110.255 21.2112 99.7353 21.6067C97.5072 21.9657 96.5083 22.866 96.0665 24.0108Z" fill="#DF9D34"/>
<path fill-rule="evenodd" clip-rule="evenodd" d="M94.0048 29.6154C94.0048 29.6154 100.241 22.4341 106.388 29.5478C106.388 29.5478 104.55 31.6814 96.5723 30.7082L95.7143 30.37L94.0048 29.6154ZM100.196 27.2165C101.093 27.2165 101.823 27.8721 101.823 28.6839C101.823 29.4957 101.093 30.1566 100.196 30.1566C99.3062 30.1566 98.5763 29.4957 98.5763 28.6839C98.5763 27.8721 99.3062 27.2165 100.196 27.2165ZM121.293 29.5946C121.293 29.5946 127.53 22.4081 133.676 29.5218C133.676 29.5218 131.839 31.6553 123.854 30.6822L123.003 30.344L121.293 29.5946ZM127.478 27.1904C128.375 27.1904 129.105 27.8461 129.105 28.6579C129.105 29.4697 128.375 30.1306 127.478 30.1306C126.588 30.1306 125.865 29.4697 125.865 28.6579C125.865 27.8461 126.588 27.1904 127.478 27.1904Z" fill="#DF9D34"/>
<path fill-rule="evenodd" clip-rule="evenodd" d="M94.3569 42.063C94.3569 42.063 98.0769 50.8263 109.685 45.9867C106.458 50.8575 97.3598 49.338 94.7155 44.6129L94.5362 43.5045L94.3569 42.063ZM95.1701 38.8054C95.1701 38.8054 98.8965 47.5739 110.505 42.7291C107.278 47.5999 98.173 46.0804 95.535 41.3605L95.3558 40.2521L95.1701 38.8054ZM96.9437 35.4541C96.9437 35.4541 100.286 44.2174 110.722 39.3778C107.828 44.2486 99.6456 42.7291 97.2702 38.004L97.1101 36.8956L96.9437 35.4541ZM102.155 33.9502C102.155 33.9502 101.426 36.6302 107.137 38.3318C107.137 38.3318 104.934 38.8626 102.649 38.2694C99.7417 36.4949 100.017 35.6727 102.155 33.9502ZM135.744 41.6779C135.744 41.6779 130.917 50.4412 115.838 45.6016C120.026 50.4672 131.852 48.9477 135.277 44.2278L135.514 43.1142L135.744 41.6779ZM133.881 38.9719C133.881 38.9719 129.393 47.1003 115.416 42.6094C119.296 47.1316 130.264 45.7161 133.439 41.3345L133.664 40.3041L133.881 38.9719ZM131.282 36.5053C131.282 36.5053 127.344 43.6554 115.051 39.7057C118.463 43.6762 128.106 42.4377 130.898 38.5868L131.09 37.6814L131.282 36.5053ZM125.506 34.4654C125.506 34.4654 126.243 37.1454 120.538 38.847C120.538 38.847 122.74 39.3726 125.02 38.7846C127.933 37.0101 127.658 36.1826 125.506 34.4654Z" fill="#DF9D34"/>
<path fill-rule="evenodd" clip-rule="evenodd" d="M111.331 48.594L117.304 48.7449L114.647 50.8004L112.47 49.5047L111.331 48.594Z" fill="#DF9D34"/>
<path fill-rule="evenodd" clip-rule="evenodd" d="M109.371 49.7439C109.371 49.7439 110.985 53.3554 115.55 52.8142C115.55 52.8142 120.288 51.3415 120.115 49.6919L121.729 49.5826C121.729 49.5826 121.325 53.5479 117.144 54.4586C117.144 54.4586 112.47 55.3901 109.756 53.5167C109.756 53.5167 107.457 51.6745 107.457 49.5618L109.371 49.7439Z" fill="#DF9D34"/>
<path fill-rule="evenodd" clip-rule="evenodd" d="M48.8333 143.648L53.0655 142.758C53.0655 142.758 54.1796 155.898 54.3268 156.85C54.3268 156.85 50.9141 151.022 49.9473 148.711L48.8333 143.648Z" fill="#FDF6EB"/>
<path fill-rule="evenodd" clip-rule="evenodd" d="M55.7931 142.399C55.7931 142.399 64.8466 139.328 69.7767 134.187C69.7767 134.187 74.5788 145.23 71.5567 156.996L65.1155 183.431L67.0556 183.015C67.0556 183.015 72.293 174.709 72.6132 170.942C72.6132 170.942 75.6033 159.046 75.6033 152.884C75.6033 152.884 78.7086 158.963 78.9199 166.493C78.9199 166.493 77.7098 183.218 72.2674 189.946C72.2674 189.946 68.0736 193.672 68.0736 194.297C68.0736 194.297 61.9846 196.056 61.2418 203.471L36.7449 204.611C36.7449 204.611 38.7425 198.913 43.0132 197.201C43.0132 197.201 51.2727 191.841 51.9899 189.452C51.9899 189.452 57.7972 177.129 57.8356 169.396C57.8356 169.396 58.4759 152 57.6691 149.101L56.8624 144.262L55.7931 142.399Z" fill="#FDF6EB"/>
<path fill-rule="evenodd" clip-rule="evenodd" d="M75.0718 137.996C75.0718 137.996 81.5834 139.531 82.5566 139.531C82.5566 139.531 78.382 149.887 79.4513 151.854C79.4513 151.854 75.2831 145.864 75.1806 141.93L75.0718 137.996Z" fill="#FDF6EB"/>
<path fill-rule="evenodd" clip-rule="evenodd" d="M82.9472 170.879L84.4519 185.893L78.158 188.52C78.158 188.52 82.1277 176.801 82.1277 175.48L82.9472 170.879Z" fill="#FDF6EB"/>
<path fill-rule="evenodd" clip-rule="evenodd" d="M72.4275 193.532H75.8466C75.8466 193.532 74.7133 195.952 72.4275 197.424C72.4275 197.424 69.1045 201.166 69.3862 202.129L65.8326 202.737C65.8326 202.737 67.1324 199.355 69.1301 198.137C69.1301 198.137 71.5119 196.253 71.8576 195.114L72.2354 194.318L72.3379 193.912L72.4275 193.532Z" fill="#FDF6EB"/>
<path fill-rule="evenodd" clip-rule="evenodd" d="M88.0758 184.961C88.0758 184.961 85.3418 190.076 78.6125 194.64C78.6125 194.64 73.8233 199.667 74.1626 201.124L98.5699 200.666C98.5699 200.666 104.275 191.263 104.16 188.52C104.16 188.52 99.2614 177.337 99.1142 172.571C99.1142 172.571 94.6835 158.515 98.4547 145.235L86.3663 140.484C76.6533 155.356 87.1858 175.438 87.0514 177.379L88.1911 181.214L88.0758 184.961Z" fill="#FDF6EB"/>
<path fill-rule="evenodd" clip-rule="evenodd" d="M103.987 148.518L100.76 154.305C100.76 154.305 99.8057 174.402 104.563 177.447C104.563 177.447 104.941 165.722 107.226 159.327L107.796 154.456L103.987 148.518Z" fill="#FDF6EB"/>
<path fill-rule="evenodd" clip-rule="evenodd" d="M122.177 147.79L127.882 145.604C127.882 145.604 129.931 163.318 129.022 167.336L123.317 155.46L122.862 151.266L122.177 147.79Z" fill="#FDF6EB"/>
<path fill-rule="evenodd" clip-rule="evenodd" d="M110.774 150.714L117.842 149.252C117.842 149.252 122.632 169.891 126.512 172.082C126.512 172.082 122.407 187.058 122.407 188.344C122.407 188.344 120.583 198.939 124.232 200.578L102.559 200.396C102.559 200.396 107.355 191.991 107.355 187.428C107.355 187.428 108.264 162.22 110.319 158.021L111.004 154.55L110.774 150.714Z" fill="#FDF6EB"/>
<path fill-rule="evenodd" clip-rule="evenodd" d="M142.928 137.928L131.531 142.128C131.531 142.128 132.325 144.595 132.325 145.417C132.325 145.417 133.35 162.189 132.261 166.295C132.261 166.295 123.995 190.618 125.961 195.696C125.961 195.696 124.815 201.176 131.986 201.046L156.086 201.442C156.086 201.442 153.807 193.74 150.061 189.962C150.061 189.962 139.016 177.967 140.867 169.682C140.867 169.682 142.083 158.27 144.683 152.666C144.964 146.739 144.817 142.399 142.928 137.928Z" fill="#FDF6EB"/>
<path fill-rule="evenodd" clip-rule="evenodd" d="M146.668 139.386H149.735C149.735 139.386 154.223 146.848 150.797 156.486C150.797 156.486 144.772 171.14 144.894 171.988C144.894 171.988 143.601 164.614 145.605 161.684C145.605 161.684 148.083 153.181 148.083 152.047C148.083 152.047 147.494 143.731 147.372 143.257C147.257 142.784 146.904 140.895 146.904 140.895L146.668 139.386Z" fill="#FDF6EB"/>
<path fill-rule="evenodd" clip-rule="evenodd" d="M146.584 178.019C146.584 178.019 147.833 186.512 153.653 188.885C153.653 188.885 150.573 182.583 149.433 180.668L147.833 179.023L146.584 178.019Z" fill="#FDF6EB"/>
<path fill-rule="evenodd" clip-rule="evenodd" d="M160.702 201.639L174.846 202.883C174.846 202.883 172.202 195.416 170.338 192.803C170.338 192.803 164.896 186.579 164.896 182.973C164.896 182.973 164.275 173.388 166.766 166.669C166.766 166.669 174.206 143.679 154.114 136.466C154.114 136.466 158.673 163.131 148.172 173.726C148.172 173.726 156.393 181.032 156.393 185.232L156.336 193.131L159.473 196.784L160.702 201.639Z" fill="#FDF6EB"/>
<path fill-rule="evenodd" clip-rule="evenodd" d="M170.198 146.843L175.832 147.967C175.832 147.967 179.45 157.802 176.037 165.54C173.335 171.8 172.496 191.024 184.693 197.133C184.693 197.133 191.192 202.821 188.919 205.194L178.854 204.064C178.854 204.064 177.042 197.133 174.628 194.396C174.628 194.396 165.767 182.791 169.391 171.504C169.391 171.504 172.01 156.673 171.6 154.263L170.198 146.843Z" fill="#FDF6EB"/>
<path fill-rule="evenodd" clip-rule="evenodd" d="M199.83 42.6044C199.83 42.6044 207.41 41.7874 210.97 49.0624C210.97 49.0624 209.024 50.2801 203.889 48.5264C201.353 47.418 200.841 44.3217 199.83 42.6044ZM205.131 45.3468C204.107 45.3468 203.281 46.0129 203.281 46.8351C203.281 47.6573 204.107 48.3234 205.131 48.3234C206.156 48.3234 206.994 47.6573 206.994 46.8351C206.994 46.0129 206.156 45.3468 205.131 45.3468Z" fill="#DF9D34"/>
<path fill-rule="evenodd" clip-rule="evenodd" d="M219.025 60.287C219.025 60.287 212.392 52.6529 211.893 52.1013C211.893 52.1013 211.137 56.3477 216.663 59.3347L218.007 60.1985L219.025 60.287Z" fill="#DF9D34"/>
<path fill-rule="evenodd" clip-rule="evenodd" d="M215.183 61.4787L206.61 51.4873C206.61 51.4873 207.622 56.8525 211.995 59.8343L213.679 61.0832L215.183 61.4787Z" fill="#DF9D34"/>
<path fill-rule="evenodd" clip-rule="evenodd" d="M211.79 62.988C211.79 62.988 203.275 52.5438 202.577 52.2368C202.577 52.2368 205.266 58.3253 207.199 59.6991L210.023 62.4728L211.067 63.1181L211.79 62.988Z" fill="#DF9D34"/>
<mask id="mask0_446_1030" style="mask-type:luminance" maskUnits="userSpaceOnUse" x="32" y="285" width="167" height="26">
<path d="M32.8264 285.588H198.376V310.499H32.8264V285.588Z" fill="white"/>
</mask>
<g mask="url(#mask0_446_1030)">
<path fill-rule="evenodd" clip-rule="evenodd" d="M43.3461 296.068V301.293L44.9724 301.928C45.363 302.074 45.728 302.172 46.0801 302.24C46.4195 302.297 46.7652 302.323 47.0918 302.323C47.1942 302.323 47.3094 302.323 47.4311 302.323C47.5528 302.323 47.6744 302.313 47.7961 302.297C47.9433 302.277 48.1098 302.24 48.3019 302.188C48.5004 302.136 48.7052 302.074 48.9293 301.99C49.3199 301.886 49.6657 301.767 49.973 301.631C50.2803 301.48 50.5492 301.34 50.7733 301.194V296.068H43.3461ZM40.9899 296.068H34.8241L33.5947 294.237H54.7623L55.9852 296.068H53.0719V310.259L50.6773 309.192L50.7093 303.395C50.6261 303.432 50.5428 303.468 50.4532 303.499C50.3572 303.531 50.2291 303.572 50.069 303.609C49.9218 303.666 49.7553 303.723 49.5632 303.775C49.3647 303.827 49.1534 303.874 48.9293 303.911C48.7052 303.957 48.5004 303.983 48.3019 304.004C48.1098 304.025 47.9433 304.035 47.7961 304.035C47.3671 304.035 46.9509 304.004 46.5411 303.942C46.1313 303.885 45.728 303.78 45.3438 303.64C44.9532 303.494 44.5947 303.317 44.2553 303.104C43.916 302.891 43.5958 302.651 43.2885 302.386L42.4882 303.026C42.3473 303.172 42.2 303.296 42.04 303.395C41.8927 303.494 41.7326 303.588 41.5726 303.666C41.2973 303.77 41.0924 303.853 40.9451 303.911C40.7914 303.973 40.6826 304.025 40.6506 304.072C40.6058 304.087 40.5737 304.114 40.5417 304.14C40.5097 304.171 40.4713 304.207 40.4329 304.249C40.4137 304.27 40.4009 304.296 40.4009 304.327C40.4009 304.353 40.4009 304.368 40.4009 304.368C40.6314 304.571 40.8363 304.759 41.0155 304.92C41.2012 305.081 41.3869 305.248 41.5726 305.409C41.611 305.43 41.7839 305.576 42.0912 305.852C42.3985 306.127 42.8595 306.512 43.4742 306.996L46.4771 309.406L45.4014 310.259C43.7303 308.818 42.3537 307.605 41.278 306.627C40.2088 305.654 39.4148 304.91 38.9026 304.405C38.288 303.812 37.8398 303.302 37.5516 302.875C37.2699 302.448 37.1226 302.11 37.1226 301.865C37.1226 301.746 37.1419 301.631 37.1867 301.517C37.2251 301.407 37.3083 301.298 37.43 301.194C37.5324 301.095 37.6477 301.017 37.7821 300.96C37.9166 300.892 38.0575 300.851 38.1983 300.83C38.2303 300.851 38.288 300.871 38.352 300.892C38.4096 300.913 38.4864 300.934 38.5569 300.96C38.6401 300.97 38.7554 301.007 38.8898 301.059C39.0179 301.111 39.1715 301.184 39.3636 301.293L40.5609 301.683C40.6378 301.704 40.7146 301.657 40.7722 301.548C40.8363 301.434 40.8747 301.257 40.8875 301.017C40.8875 300.991 40.8939 300.856 40.9131 300.601C40.9195 300.351 40.9387 299.966 40.9579 299.461C40.9579 299.211 40.9579 298.962 40.9579 298.691C40.9579 298.431 40.9707 298.155 40.9899 297.869C40.9899 297.603 40.9899 297.322 40.9899 297.021C40.9899 296.708 40.9899 296.407 40.9899 296.1V296.068ZM54.8839 296.068L53.6866 294.237H64.4176L65.647 296.068H54.8839ZM67.3373 300.585H62.6441C61.498 300.606 60.6336 300.819 60.0509 301.225C59.4683 301.631 59.1738 302.256 59.1738 303.088C59.1738 303.473 59.2506 303.874 59.3915 304.28C59.5259 304.686 59.7564 305.113 60.0638 305.56C60.3711 306.013 60.7937 306.528 61.3379 307.121C61.8821 307.709 62.5416 308.381 63.3164 309.13L62.087 309.9C61.1522 308.958 60.3455 308.12 59.6988 307.361C59.0457 306.606 58.5399 305.945 58.1941 305.378C57.9893 305.071 57.8164 304.78 57.6755 304.493C57.5283 304.207 57.4194 303.931 57.3362 303.666C57.2529 303.427 57.1953 303.166 57.1697 302.891C57.1377 302.615 57.1185 302.334 57.1185 302.053C57.1185 301.522 57.2273 301.059 57.445 300.663C57.6563 300.263 57.9893 299.914 58.431 299.607C58.8088 299.383 59.225 299.211 59.6796 299.092C60.1406 298.967 60.64 298.91 61.165 298.91L67.3373 298.878V300.585ZM77.5689 304.098C77.4345 304.238 77.2808 304.358 77.1335 304.462C76.9799 304.571 76.8326 304.665 76.6917 304.769C76.5381 304.847 76.3908 304.931 76.2307 305.014C76.0643 305.092 75.8914 305.165 75.7057 305.227C75.3151 305.368 74.9438 305.477 74.5852 305.545C74.2267 305.623 73.9001 305.654 73.5928 305.654C72.5876 305.654 71.6784 305.519 70.8588 305.253C70.0457 304.993 69.3093 304.603 68.6499 304.098C68.1184 303.666 67.651 303.172 67.2605 302.599C66.8571 302.032 66.5498 301.381 66.3193 300.648C67.0364 300.544 67.683 300.414 68.2529 300.252C68.8291 300.086 69.335 299.883 69.7831 299.638C70.257 299.414 70.5963 299.17 70.8332 298.91C71.0573 298.644 71.1661 298.379 71.1661 298.113C71.1661 297.952 71.1277 297.78 71.0445 297.593C70.9613 297.411 70.8396 297.198 70.6795 296.953L70.0969 296.068H64.0207L62.8874 294.237H81.7179L82.8832 296.068H79.9699V310.259L77.5689 309.192V304.098ZM71.8704 296.068L72.8501 297.806C72.9781 298.134 73.0742 298.41 73.1446 298.634C73.215 298.858 73.2534 299.04 73.2534 299.185C73.2534 299.508 73.151 299.815 72.9461 300.096C72.7412 300.382 72.4339 300.648 72.0241 300.892C71.864 300.97 71.6784 301.064 71.4735 301.168C71.2686 301.267 71.0381 301.361 70.7692 301.439C70.5067 301.543 70.2249 301.636 69.924 301.73C69.6295 301.824 69.3093 301.917 68.9508 302.022C68.9508 302.365 69.0084 302.682 69.1109 302.958C69.2133 303.224 69.3734 303.473 69.6039 303.697C69.828 303.905 70.0969 304.056 70.417 304.155C70.7244 304.259 71.1085 304.311 71.5375 304.311C71.8833 304.311 72.2226 304.296 72.5491 304.249C72.8757 304.207 73.183 304.145 73.4968 304.072C73.5928 304.046 73.708 304.02 73.8233 303.989C73.9321 303.963 74.041 303.921 74.1434 303.885C74.5532 303.739 75.0526 303.515 75.6417 303.198C76.2371 302.88 76.9158 302.479 77.6714 301.99V296.068H71.8704ZM99.7225 294.237L100.913 296.068H98.0065V310.259L95.6119 309.192V303.796H88.7097V305.196C88.7097 305.477 88.6521 305.685 88.5304 305.805C88.4024 305.924 88.2103 305.987 87.935 305.987C87.7813 305.987 87.5124 305.872 87.1474 305.638C86.7761 305.404 86.3087 305.05 85.7388 304.582C85.1626 304.114 84.7272 303.728 84.4455 303.427C84.1638 303.125 84.0165 302.906 84.0165 302.781C84.0165 302.724 84.0293 302.662 84.0421 302.599C84.0677 302.542 84.1125 302.469 84.2022 302.386C84.2662 302.308 84.343 302.245 84.4327 302.204C84.5223 302.162 84.6248 302.131 84.7208 302.11L86.4111 302.079V296.068H81.7179L80.5526 294.237H99.7225ZM88.7097 302.079H95.7015V296.068H88.7097V302.079ZM94.5362 294.45L93.6206 292.374C93.3965 291.848 93.1853 291.395 92.9932 291.015C92.7947 290.641 92.6282 290.365 92.4809 290.178C92.3593 289.995 92.2056 289.829 92.0264 289.673C91.8407 289.527 91.6358 289.376 91.4117 289.23C91.1876 289.111 90.9763 289.007 90.7842 288.929C90.5857 288.845 90.4193 288.793 90.272 288.773C90.1311 288.773 89.9839 288.788 89.8302 288.819C89.6765 288.851 89.5101 288.887 89.3244 288.929L88.5496 287.831L87.8133 286.639C87.9222 286.618 88.0054 286.597 88.0822 286.577C88.1527 286.556 88.2167 286.545 88.2807 286.545L89.1643 286.488C89.414 286.504 89.6701 286.545 89.939 286.608C90.2016 286.67 90.4769 286.759 90.765 286.884C91.0723 287.003 91.3477 287.165 91.5974 287.362C91.8407 287.55 92.0776 287.779 92.3017 288.044C92.5066 288.289 92.7499 288.679 93.038 289.215C93.3197 289.756 93.6719 290.443 94.0816 291.276L95.3686 294.205L94.5362 294.45ZM113.424 304.337C113.245 304.483 113.047 304.623 112.81 304.754C112.592 304.884 112.368 305.019 112.144 305.165C111.901 305.305 111.67 305.43 111.452 305.529C111.241 305.633 111.03 305.721 110.825 305.805C110.351 305.987 109.877 306.127 109.397 306.2C108.91 306.289 108.424 306.325 107.912 306.325C107.259 306.325 106.605 306.221 105.965 306.018C105.318 305.815 104.691 305.498 104.076 305.071C103.378 304.603 102.86 304.093 102.514 303.531C102.168 302.974 101.989 302.375 101.989 301.746C101.989 301.277 102.091 300.851 102.277 300.466C102.476 300.075 102.764 299.721 103.154 299.394C103.628 299.029 104.217 298.748 104.922 298.556C105.626 298.363 106.439 298.264 107.361 298.264C107.521 298.264 107.688 298.264 107.867 298.264C108.04 298.264 108.219 298.264 108.424 298.264C108.597 298.285 108.757 298.311 108.917 298.342C109.09 298.374 109.263 298.4 109.442 298.42C109.647 298.441 109.858 298.483 110.076 298.556C110.287 298.634 110.53 298.722 110.793 298.852C110.998 298.925 111.19 299.029 111.363 299.149C111.536 299.274 111.702 299.409 111.869 299.55C112.029 299.69 112.253 299.888 112.522 300.143C112.797 300.398 113.104 300.71 113.424 301.074V296.068H99.6841L98.5572 294.237H118.335L119.507 296.068H115.825V310.259L113.424 309.192V304.337ZM104.044 302.386C104.044 302.813 104.115 303.187 104.243 303.499C104.377 303.817 104.576 304.087 104.845 304.311C105.133 304.535 105.459 304.702 105.824 304.811C106.196 304.925 106.612 304.983 107.086 304.983C107.483 304.983 107.956 304.91 108.481 304.769C109 304.629 109.57 304.41 110.178 304.129C110.793 303.848 111.369 303.52 111.926 303.166C112.483 302.807 113.002 302.417 113.495 301.99C113.136 301.767 112.778 301.543 112.387 301.319C112.003 301.095 111.574 300.882 111.132 300.684C110.55 300.46 110.025 300.278 109.519 300.159C109.019 300.039 108.558 299.976 108.123 299.976C107.483 299.976 106.926 300.044 106.426 300.174C105.92 300.304 105.491 300.497 105.12 300.741C104.755 300.981 104.48 301.246 104.307 301.532C104.134 301.819 104.044 302.11 104.044 302.417V302.386ZM144.254 299.763C144.35 299.987 144.446 300.169 144.516 300.309C144.587 300.46 144.644 300.554 144.683 300.617C144.728 300.7 144.811 300.83 144.932 301.017C145.054 301.194 145.208 301.439 145.381 301.746C145.585 302.053 145.81 302.334 146.034 302.599C146.258 302.865 146.482 303.125 146.706 303.364C146.936 303.609 147.193 303.838 147.493 304.051C147.788 304.264 148.108 304.462 148.448 304.644C148.825 304.826 149.171 304.967 149.498 305.055C149.824 305.149 150.125 305.196 150.388 305.196C150.695 305.196 150.97 305.154 151.22 305.071C151.463 304.993 151.687 304.878 151.892 304.738C152.059 304.571 152.187 304.389 152.27 304.186C152.366 303.983 152.411 303.749 152.411 303.484C152.411 303.14 152.289 302.776 152.046 302.407C151.803 302.027 151.425 301.642 150.906 301.257C150.586 300.991 150.183 300.726 149.69 300.45C149.216 300.174 148.665 299.883 148.051 299.581L148.364 298.91H157.29V296.068H140.7L139.592 294.237H162.015L163.302 296.068H159.588V310.259L157.2 309.192L157.258 300.617H151.828C152.097 300.84 152.334 301.043 152.539 301.225C152.737 301.407 152.942 301.584 153.147 301.746C153.314 301.907 153.461 302.058 153.595 302.188C153.73 302.318 153.832 302.438 153.909 302.542C154.14 302.865 154.319 303.192 154.453 303.515C154.588 303.848 154.652 304.166 154.652 304.493C154.652 304.878 154.549 305.238 154.344 305.545C154.14 305.862 153.845 306.143 153.454 306.382C153.109 306.591 152.737 306.747 152.347 306.856C151.963 306.97 151.566 307.028 151.156 307.028C150.279 307.028 149.427 306.846 148.608 306.492C147.794 306.138 147.013 305.591 146.277 304.858C145.829 304.389 145.336 303.775 144.792 303.015C144.247 302.251 143.652 301.319 142.999 300.221L144.254 299.763ZM175.627 304.098C175.486 304.238 175.339 304.358 175.185 304.462C175.032 304.571 174.878 304.665 174.737 304.769C174.596 304.847 174.443 304.931 174.283 305.014C174.116 305.092 173.943 305.165 173.758 305.227C173.373 305.368 172.996 305.477 172.644 305.545C172.279 305.623 171.952 305.654 171.645 305.654C170.639 305.654 169.73 305.519 168.917 305.253C168.098 304.993 167.361 304.603 166.708 304.098C166.177 303.666 165.709 303.172 165.312 302.599C164.903 302.032 164.602 301.381 164.378 300.648C165.088 300.544 165.735 300.414 166.305 300.252C166.881 300.086 167.393 299.883 167.841 299.638C168.309 299.414 168.661 299.17 168.885 298.91C169.109 298.644 169.218 298.379 169.218 298.113C169.218 297.952 169.18 297.78 169.096 297.593C169.02 297.411 168.892 297.198 168.731 296.953L168.149 296.068H162.073L160.939 294.237H179.77L180.935 296.068H178.015V310.259L175.627 309.192V304.098ZM169.929 296.068L170.908 297.806C171.03 298.134 171.12 298.41 171.19 298.634C171.273 298.858 171.305 299.04 171.305 299.185C171.305 299.508 171.203 299.815 170.998 300.096C170.793 300.382 170.486 300.648 170.082 300.892C169.916 300.97 169.73 301.064 169.525 301.168C169.321 301.267 169.09 301.361 168.821 301.439C168.559 301.543 168.277 301.636 167.976 301.73C167.681 301.824 167.361 301.917 167.016 302.022C167.016 302.365 167.067 302.682 167.156 302.958C167.272 303.224 167.432 303.473 167.656 303.697C167.88 303.905 168.155 304.056 168.469 304.155C168.789 304.259 169.16 304.311 169.589 304.311C169.935 304.311 170.275 304.296 170.601 304.249C170.928 304.207 171.248 304.145 171.555 304.072C171.651 304.046 171.76 304.02 171.869 303.989C171.984 303.963 172.093 303.921 172.195 303.885C172.605 303.739 173.098 303.515 173.7 303.198C174.289 302.88 174.968 302.479 175.723 301.99V296.068H169.929ZM191.519 309.192L191.583 300.554L187.594 300.585C186.448 300.606 185.584 300.819 185.001 301.225C184.418 301.631 184.124 302.256 184.124 303.088C184.124 303.473 184.201 303.869 184.341 304.264C184.482 304.66 184.706 305.071 185.014 305.498C185.302 305.924 185.718 306.434 186.256 307.028C186.8 307.621 187.472 308.297 188.26 309.073L187.043 309.833C186.589 309.427 186.179 309.026 185.795 308.63C185.417 308.235 185.065 307.845 184.738 307.46C184.412 307.085 184.117 306.736 183.848 306.382C183.586 306.039 183.362 305.701 183.176 305.378C182.786 304.769 182.504 304.186 182.331 303.64C182.158 303.088 182.075 302.558 182.075 302.053C182.075 301.522 182.177 301.059 182.389 300.663C182.606 300.263 182.933 299.914 183.394 299.607C183.752 299.383 184.175 299.211 184.63 299.092C185.091 298.967 185.59 298.91 186.121 298.91L191.609 298.878V296.068H179.309L178.176 294.237H197.038L198.203 296.068H193.914V310.259L191.519 309.192ZM191.673 294.45L190.751 292.374C190.526 291.848 190.309 291.395 190.123 291.015C189.931 290.641 189.758 290.365 189.617 290.178C189.489 289.995 189.342 289.829 189.15 289.673C188.971 289.527 188.766 289.376 188.535 289.23C188.318 289.111 188.106 289.007 187.914 288.929C187.716 288.845 187.549 288.793 187.408 288.773C187.267 288.773 187.12 288.788 186.967 288.819C186.813 288.851 186.64 288.887 186.461 288.929L185.692 287.831L184.956 286.639C185.052 286.618 185.142 286.597 185.212 286.577C185.289 286.556 185.353 286.545 185.417 286.545L186.307 286.488C186.55 286.504 186.806 286.545 187.069 286.608C187.338 286.67 187.613 286.759 187.901 286.884C188.209 287.003 188.484 287.165 188.727 287.362C188.971 287.55 189.208 287.779 189.425 288.044C189.63 288.289 189.88 288.679 190.168 289.215C190.45 289.756 190.802 290.443 191.212 291.276L192.499 294.205L191.673 294.45Z" fill="#DF9D34"/>
</g>
<mask id="mask1_446_1030" style="mask-type:luminance" maskUnits="userSpaceOnUse" x="32" y="285" width="169" height="26">
<path d="M32.8264 285.588H200.015V310.499H32.8264V285.588Z" fill="white"/>
</mask>
<g mask="url(#mask1_446_1030)">
<path d="M43.3461 296.068V301.293L44.9724 301.928C45.363 302.074 45.728 302.172 46.0801 302.24C46.4195 302.297 46.7652 302.323 47.0918 302.323C47.1942 302.323 47.3094 302.323 47.4311 302.323C47.5528 302.323 47.6744 302.313 47.7961 302.297C47.9433 302.277 48.1098 302.24 48.3019 302.188C48.5004 302.136 48.7052 302.074 48.9293 301.99C49.3199 301.886 49.6657 301.767 49.973 301.631C50.2803 301.48 50.5492 301.34 50.7733 301.194V296.068H43.3461ZM40.9899 296.068H34.8241L33.5947 294.237H54.7623L55.9852 296.068H53.0719V310.259L50.6773 309.192L50.7093 303.395C50.6261 303.432 50.5428 303.468 50.4532 303.499C50.3572 303.531 50.2291 303.572 50.069 303.609C49.9218 303.666 49.7553 303.723 49.5632 303.775C49.3647 303.827 49.1534 303.874 48.9293 303.911C48.7052 303.957 48.5004 303.983 48.3019 304.004C48.1098 304.025 47.9433 304.035 47.7961 304.035C47.3671 304.035 46.9509 304.004 46.5411 303.942C46.1313 303.885 45.728 303.78 45.3438 303.64C44.9532 303.494 44.5947 303.317 44.2553 303.104C43.916 302.891 43.5958 302.651 43.2885 302.386L42.4882 303.026C42.3473 303.172 42.2 303.297 42.04 303.395C41.8927 303.494 41.7326 303.588 41.5726 303.666C41.2973 303.77 41.0924 303.853 40.9451 303.911C40.7914 303.973 40.6826 304.025 40.6506 304.072C40.6058 304.088 40.5737 304.114 40.5417 304.14C40.5097 304.171 40.4713 304.207 40.4329 304.249C40.4137 304.27 40.4009 304.296 40.4009 304.327C40.4009 304.353 40.4009 304.369 40.4009 304.369C40.6314 304.571 40.8363 304.759 41.0155 304.92C41.2012 305.081 41.3869 305.248 41.5726 305.409C41.611 305.43 41.7839 305.576 42.0912 305.852C42.3985 306.127 42.8595 306.512 43.4742 306.996L46.4771 309.406L45.4014 310.259C43.7303 308.818 42.3537 307.605 41.278 306.627C40.2088 305.654 39.4148 304.91 38.9026 304.405C38.288 303.812 37.8398 303.302 37.5516 302.875C37.2699 302.448 37.1226 302.11 37.1226 301.865C37.1226 301.746 37.1419 301.631 37.1867 301.517C37.2251 301.408 37.3083 301.298 37.43 301.194C37.5324 301.095 37.6477 301.017 37.7821 300.96C37.9166 300.892 38.0575 300.851 38.1983 300.83C38.2303 300.851 38.288 300.872 38.352 300.892C38.4096 300.913 38.4864 300.934 38.5569 300.96C38.6401 300.97 38.7554 301.007 38.8898 301.059C39.0179 301.111 39.1715 301.184 39.3636 301.293L40.5609 301.683C40.6378 301.704 40.7146 301.657 40.7722 301.548C40.8363 301.434 40.8747 301.257 40.8875 301.017C40.8875 300.991 40.8939 300.856 40.9131 300.601C40.9195 300.351 40.9387 299.966 40.9579 299.461C40.9579 299.211 40.9579 298.962 40.9579 298.691C40.9579 298.431 40.9707 298.155 40.9899 297.869C40.9899 297.603 40.9899 297.322 40.9899 297.021C40.9899 296.708 40.9899 296.407 40.9899 296.1V296.068ZM54.8839 296.068L53.6866 294.237H64.4176L65.647 296.068H54.8839ZM67.3373 300.585H62.6441C61.498 300.606 60.6336 300.819 60.0509 301.225C59.4683 301.631 59.1738 302.256 59.1738 303.088C59.1738 303.473 59.2506 303.874 59.3915 304.28C59.5259 304.686 59.7564 305.113 60.0638 305.56C60.3711 306.013 60.7937 306.528 61.3379 307.121C61.8821 307.709 62.5416 308.381 63.3164 309.13L62.087 309.9C61.1522 308.958 60.3455 308.12 59.6988 307.361C59.0457 306.606 58.5399 305.945 58.1941 305.378C57.9893 305.071 57.8164 304.78 57.6755 304.493C57.5283 304.207 57.4194 303.931 57.3362 303.666C57.2529 303.427 57.1953 303.166 57.1697 302.891C57.1377 302.615 57.1185 302.334 57.1185 302.053C57.1185 301.522 57.2273 301.059 57.445 300.663C57.6563 300.263 57.9893 299.914 58.431 299.607C58.8088 299.383 59.225 299.211 59.6796 299.092C60.1406 298.967 60.64 298.91 61.165 298.91L67.3373 298.878V300.585ZM77.5689 304.098C77.4345 304.238 77.2808 304.358 77.1335 304.462C76.9799 304.571 76.8326 304.665 76.6917 304.769C76.5381 304.847 76.3908 304.931 76.2307 305.014C76.0643 305.092 75.8914 305.165 75.7057 305.227C75.3151 305.368 74.9438 305.477 74.5852 305.545C74.2267 305.623 73.9001 305.654 73.5928 305.654C72.5876 305.654 71.6784 305.519 70.8588 305.253C70.0457 304.993 69.3093 304.603 68.6499 304.098C68.1184 303.666 67.651 303.172 67.2605 302.599C66.8571 302.032 66.5498 301.381 66.3193 300.648C67.0364 300.544 67.683 300.414 68.2529 300.252C68.8291 300.086 69.335 299.883 69.7831 299.638C70.257 299.414 70.5963 299.17 70.8332 298.91C71.0573 298.644 71.1661 298.379 71.1661 298.113C71.1661 297.952 71.1277 297.78 71.0445 297.593C70.9613 297.411 70.8396 297.198 70.6795 296.953L70.0969 296.068H64.0207L62.8874 294.237H81.7179L82.8832 296.068H79.9699V310.259L77.5689 309.192V304.098ZM71.8705 296.068L72.8501 297.806C72.9781 298.134 73.0742 298.41 73.1446 298.634C73.215 298.858 73.2534 299.04 73.2534 299.185C73.2534 299.508 73.151 299.815 72.9461 300.096C72.7412 300.382 72.4339 300.648 72.0241 300.892C71.864 300.97 71.6784 301.064 71.4735 301.168C71.2686 301.267 71.0381 301.361 70.7692 301.439C70.5067 301.543 70.2249 301.636 69.924 301.73C69.6295 301.824 69.3093 301.917 68.9508 302.022C68.9508 302.365 69.0084 302.682 69.1109 302.958C69.2133 303.224 69.3734 303.473 69.6039 303.697C69.828 303.905 70.0969 304.056 70.417 304.155C70.7244 304.259 71.1085 304.311 71.5375 304.311C71.8833 304.311 72.2226 304.296 72.5491 304.249C72.8757 304.207 73.183 304.145 73.4968 304.072C73.5928 304.046 73.708 304.02 73.8233 303.989C73.9321 303.963 74.041 303.921 74.1434 303.885C74.5532 303.739 75.0526 303.515 75.6417 303.198C76.2371 302.88 76.9158 302.48 77.6714 301.99V296.068H71.8705ZM99.7225 294.237L100.913 296.068H98.0065V310.259L95.6119 309.192V303.796H88.7097V305.196C88.7097 305.477 88.6521 305.685 88.5304 305.805C88.4024 305.924 88.2103 305.987 87.935 305.987C87.7813 305.987 87.5124 305.872 87.1474 305.638C86.7761 305.404 86.3087 305.05 85.7388 304.582C85.1626 304.114 84.7272 303.728 84.4455 303.427C84.1638 303.125 84.0165 302.906 84.0165 302.781C84.0165 302.724 84.0293 302.662 84.0421 302.599C84.0677 302.542 84.1125 302.469 84.2022 302.386C84.2662 302.308 84.343 302.245 84.4327 302.204C84.5223 302.162 84.6248 302.131 84.7208 302.11L86.4111 302.079V296.068H81.7179L80.5526 294.237H99.7225ZM88.7097 302.079H95.7015V296.068H88.7097V302.079ZM94.5362 294.45L93.6206 292.374C93.3965 291.848 93.1853 291.395 92.9932 291.015C92.7947 290.641 92.6282 290.365 92.4809 290.178C92.3593 289.995 92.2056 289.829 92.0264 289.673C91.8407 289.527 91.6358 289.376 91.4117 289.23C91.1876 289.111 90.9763 289.007 90.7842 288.929C90.5857 288.845 90.4193 288.793 90.272 288.773C90.1311 288.773 89.9839 288.788 89.8302 288.819C89.6765 288.851 89.5101 288.887 89.3244 288.929L88.5497 287.831L87.8133 286.639C87.9222 286.618 88.0054 286.597 88.0822 286.577C88.1527 286.556 88.2167 286.545 88.2807 286.545L89.1643 286.488C89.414 286.504 89.6701 286.545 89.9391 286.608C90.2016 286.67 90.4769 286.759 90.765 286.884C91.0723 287.003 91.3477 287.165 91.5974 287.362C91.8407 287.55 92.0776 287.779 92.3017 288.044C92.5066 288.289 92.7499 288.679 93.038 289.215C93.3197 289.756 93.6719 290.443 94.0816 291.276L95.3686 294.205L94.5362 294.45ZM113.424 304.337C113.245 304.483 113.047 304.623 112.81 304.754C112.592 304.884 112.368 305.019 112.144 305.165C111.901 305.305 111.67 305.43 111.452 305.529C111.241 305.633 111.03 305.722 110.825 305.805C110.351 305.987 109.877 306.127 109.397 306.2C108.91 306.289 108.424 306.325 107.912 306.325C107.259 306.325 106.605 306.221 105.965 306.018C105.318 305.815 104.691 305.498 104.076 305.071C103.378 304.603 102.86 304.093 102.514 303.531C102.168 302.974 101.989 302.375 101.989 301.746C101.989 301.277 102.091 300.851 102.277 300.466C102.476 300.075 102.764 299.721 103.154 299.394C103.628 299.029 104.217 298.748 104.922 298.556C105.626 298.363 106.439 298.264 107.361 298.264C107.521 298.264 107.688 298.264 107.867 298.264C108.04 298.264 108.219 298.264 108.424 298.264C108.597 298.285 108.757 298.311 108.917 298.342C109.09 298.374 109.263 298.4 109.442 298.421C109.647 298.441 109.858 298.483 110.076 298.556C110.287 298.634 110.53 298.722 110.793 298.852C110.998 298.925 111.19 299.029 111.363 299.149C111.536 299.274 111.702 299.409 111.869 299.55C112.029 299.69 112.253 299.888 112.522 300.143C112.797 300.398 113.104 300.71 113.424 301.074V296.068H99.6841L98.5572 294.237H118.335L119.507 296.068H115.825V310.259L113.424 309.192V304.337ZM104.044 302.386C104.044 302.813 104.115 303.187 104.243 303.499C104.377 303.817 104.576 304.088 104.845 304.311C105.133 304.535 105.459 304.702 105.824 304.811C106.196 304.925 106.612 304.983 107.086 304.983C107.483 304.983 107.956 304.91 108.481 304.769C109 304.629 109.57 304.41 110.178 304.129C110.793 303.848 111.369 303.52 111.926 303.166C112.483 302.807 113.002 302.417 113.495 301.99C113.136 301.767 112.778 301.543 112.387 301.319C112.003 301.095 111.574 300.882 111.132 300.684C110.55 300.46 110.025 300.278 109.519 300.159C109.019 300.039 108.558 299.976 108.123 299.976C107.483 299.976 106.926 300.044 106.426 300.174C105.92 300.304 105.491 300.497 105.12 300.741C104.755 300.981 104.48 301.246 104.307 301.532C104.134 301.819 104.044 302.11 104.044 302.417V302.386ZM144.254 299.763C144.35 299.987 144.446 300.169 144.516 300.31C144.587 300.46 144.644 300.554 144.683 300.617C144.728 300.7 144.811 300.83 144.932 301.017C145.054 301.194 145.208 301.439 145.381 301.746C145.585 302.053 145.81 302.334 146.034 302.599C146.258 302.865 146.482 303.125 146.706 303.364C146.936 303.609 147.193 303.838 147.493 304.051C147.788 304.264 148.108 304.462 148.448 304.644C148.825 304.826 149.171 304.967 149.498 305.055C149.824 305.149 150.125 305.196 150.388 305.196C150.695 305.196 150.97 305.154 151.22 305.071C151.463 304.993 151.687 304.878 151.892 304.738C152.059 304.571 152.187 304.389 152.27 304.186C152.366 303.983 152.411 303.749 152.411 303.484C152.411 303.14 152.289 302.776 152.046 302.407C151.803 302.027 151.425 301.642 150.906 301.257C150.586 300.991 150.183 300.726 149.69 300.45C149.216 300.174 148.665 299.883 148.051 299.581L148.364 298.91H157.29V296.068H140.7L139.592 294.237H162.015L163.302 296.068H159.588V310.259L157.2 309.192L157.258 300.617H151.828C152.097 300.84 152.334 301.043 152.539 301.225C152.737 301.408 152.942 301.584 153.147 301.746C153.314 301.907 153.461 302.058 153.595 302.188C153.73 302.318 153.832 302.438 153.909 302.542C154.14 302.865 154.319 303.192 154.453 303.515C154.588 303.848 154.652 304.166 154.652 304.493C154.652 304.878 154.549 305.238 154.344 305.545C154.14 305.862 153.845 306.143 153.454 306.382C153.109 306.591 152.737 306.747 152.347 306.856C151.963 306.97 151.566 307.028 151.156 307.028C150.279 307.028 149.427 306.846 148.608 306.492C147.794 306.138 147.013 305.591 146.277 304.858C145.829 304.389 145.336 303.775 144.792 303.016C144.247 302.251 143.652 301.319 142.999 300.221L144.254 299.763ZM175.627 304.098C175.486 304.238 175.339 304.358 175.185 304.462C175.032 304.571 174.878 304.665 174.737 304.769C174.596 304.847 174.443 304.931 174.283 305.014C174.116 305.092 173.943 305.165 173.758 305.227C173.373 305.368 172.996 305.477 172.644 305.545C172.279 305.623 171.952 305.654 171.645 305.654C170.639 305.654 169.73 305.519 168.917 305.253C168.098 304.993 167.361 304.603 166.708 304.098C166.177 303.666 165.709 303.172 165.312 302.599C164.903 302.032 164.602 301.381 164.378 300.648C165.088 300.544 165.735 300.414 166.305 300.252C166.881 300.086 167.393 299.883 167.841 299.638C168.309 299.414 168.661 299.17 168.885 298.91C169.109 298.644 169.218 298.379 169.218 298.113C169.218 297.952 169.18 297.78 169.096 297.593C169.02 297.411 168.892 297.198 168.731 296.953L168.149 296.068H162.073L160.939 294.237H179.77L180.935 296.068H178.015V310.259L175.627 309.192V304.098ZM169.929 296.068L170.908 297.806C171.03 298.134 171.12 298.41 171.19 298.634C171.273 298.858 171.305 299.04 171.305 299.185C171.305 299.508 171.203 299.815 170.998 300.096C170.793 300.382 170.486 300.648 170.082 300.892C169.916 300.97 169.73 301.064 169.525 301.168C169.321 301.267 169.09 301.361 168.821 301.439C168.559 301.543 168.277 301.636 167.976 301.73C167.681 301.824 167.361 301.917 167.016 302.022C167.016 302.365 167.067 302.682 167.156 302.958C167.272 303.224 167.432 303.473 167.656 303.697C167.88 303.905 168.155 304.056 168.469 304.155C168.789 304.259 169.16 304.311 169.589 304.311C169.935 304.311 170.275 304.296 170.601 304.249C170.928 304.207 171.248 304.145 171.555 304.072C171.651 304.046 171.76 304.02 171.869 303.989C171.984 303.963 172.093 303.921 172.195 303.885C172.605 303.739 173.098 303.515 173.7 303.198C174.289 302.88 174.968 302.48 175.723 301.99V296.068H169.929ZM191.519 309.192L191.583 300.554L187.594 300.585C186.448 300.606 185.584 300.819 185.001 301.225C184.418 301.631 184.124 302.256 184.124 303.088C184.124 303.473 184.201 303.869 184.341 304.264C184.482 304.66 184.706 305.071 185.014 305.498C185.302 305.924 185.718 306.434 186.256 307.028C186.8 307.621 187.472 308.297 188.26 309.073L187.043 309.833C186.589 309.427 186.179 309.026 185.795 308.63C185.417 308.235 185.065 307.845 184.738 307.46C184.412 307.085 184.117 306.736 183.848 306.382C183.586 306.039 183.362 305.701 183.176 305.378C182.786 304.769 182.504 304.186 182.331 303.64C182.158 303.088 182.075 302.558 182.075 302.053C182.075 301.522 182.177 301.059 182.389 300.663C182.606 300.263 182.933 299.914 183.394 299.607C183.752 299.383 184.175 299.211 184.63 299.092C185.091 298.967 185.59 298.91 186.121 298.91L191.609 298.878V296.068H179.309L178.176 294.237H197.038L198.203 296.068H193.914V310.259L191.519 309.192ZM191.673 294.45L190.751 292.374C190.526 291.848 190.309 291.395 190.123 291.015C189.931 290.641 189.758 290.365 189.617 290.178C189.489 289.995 189.342 289.829 189.15 289.673C188.971 289.527 188.766 289.376 188.535 289.23C188.318 289.111 188.106 289.007 187.914 288.929C187.716 288.845 187.549 288.793 187.408 288.773C187.267 288.773 187.12 288.788 186.967 288.819C186.813 288.851 186.64 288.887 186.461 288.929L185.692 287.831L184.956 286.639C185.052 286.618 185.142 286.597 185.212 286.577C185.289 286.556 185.353 286.545 185.417 286.545L186.307 286.488C186.55 286.504 186.806 286.545 187.069 286.608C187.338 286.67 187.613 286.759 187.901 286.884C188.209 287.003 188.484 287.165 188.727 287.362C188.971 287.55 189.208 287.779 189.425 288.044C189.63 288.289 189.88 288.679 190.168 289.215C190.45 289.756 190.802 290.443 191.212 291.276L192.499 294.205L191.673 294.45Z" stroke="#DF9D34" stroke-width="0.2892" stroke-linecap="round" stroke-linejoin="round"/>
</g>
</g>
<defs>
<clipPath id="clip0_446_1030">
<rect width="230.295" height="310" fill="white" transform="translate(0.0441895 0.5)"/>
</clipPath>
</defs>
</svg>
