<svg width="151" height="150" viewBox="0 0 151 150" fill="none" xmlns="http://www.w3.org/2000/svg">
<path fill-rule="evenodd" clip-rule="evenodd" d="M85.1147 59.3542H127.869V113.601C111.678 114.997 97.0424 119.525 85.1147 129.504H65.3819C53.4542 119.525 38.8187 114.996 22.6274 113.601V59.3542H85.1147Z" fill="#60B7FE"/>
<path fill-rule="evenodd" clip-rule="evenodd" d="M32.4941 105.13V39.1409C48.6857 40.5368 63.3209 45.0653 75.2486 55.0445L83.4707 63.2909V109.223L75.2486 121.034C63.3209 111.054 48.6854 106.526 32.4941 105.13Z" fill="#E6E6E6"/>
<path fill-rule="evenodd" clip-rule="evenodd" d="M118.003 105.13V39.1409C101.811 40.5368 87.176 45.0653 75.2483 55.0445V121.034C87.176 111.054 101.811 106.526 118.003 105.13Z" fill="#CCCCCC"/>
<path fill-rule="evenodd" clip-rule="evenodd" d="M55.3284 20.5034H95.1681C97.3947 20.5034 99.216 22.325 99.216 24.5513V86.8139C99.216 89.0402 97.3947 90.8618 95.1681 90.8618H55.3284C53.1021 90.8618 51.2805 89.0402 51.2805 86.8139V24.5513C51.2805 22.3247 53.1021 20.5034 55.3284 20.5034Z" fill="#19CFBA"/>
<path fill-rule="evenodd" clip-rule="evenodd" d="M60.0968 52.1951H63.8915C64.4198 52.1951 64.8521 52.6274 64.8521 53.1557V56.9504C64.8521 57.4787 64.4198 57.911 63.8915 57.911H60.0968C59.5685 57.911 59.1362 57.4787 59.1362 56.9504V53.1557C59.1362 52.6274 59.5682 52.1951 60.0968 52.1951ZM85.6445 64.8221H91.3607V83.1653H85.6445V64.8221ZM73.3511 77.4488H77.1458C77.6741 77.4488 78.1067 77.8811 78.1067 78.4094V82.2041C78.1067 82.7324 77.6744 83.1647 77.1458 83.1647H73.3511C72.8228 83.1647 72.3905 82.7324 72.3905 82.2041V78.4094C72.3905 77.8811 72.8225 77.4488 73.3511 77.4488ZM60.0968 77.4488H63.8915C64.4198 77.4488 64.8521 77.8811 64.8521 78.4094V82.2041C64.8521 82.7324 64.4198 83.1647 63.8915 83.1647H60.0968C59.5685 83.1647 59.1362 82.7324 59.1362 82.2041V78.4094C59.1362 77.8811 59.5682 77.4488 60.0968 77.4488ZM73.3511 64.8221H77.1458C77.6741 64.8221 78.1067 65.2544 78.1067 65.7827V69.5774C78.1067 70.1057 77.6744 70.5383 77.1458 70.5383H73.3511C72.8228 70.5383 72.3905 70.106 72.3905 69.5774V65.7827C72.3905 65.2544 72.8225 64.8221 73.3511 64.8221ZM73.3511 52.1951H77.1458C77.6741 52.1951 78.1067 52.6274 78.1067 53.1557V56.9504C78.1067 57.4787 77.6744 57.911 77.1458 57.911H73.3511C72.8228 57.911 72.3905 57.4787 72.3905 56.9504V53.1557C72.3905 52.6274 72.8225 52.1951 73.3511 52.1951ZM86.6054 52.1951H90.4001C90.9284 52.1951 91.3607 52.6274 91.3607 53.1557V56.9504C91.3607 57.4787 90.9284 57.911 90.4001 57.911H86.6054C86.0771 57.911 85.6448 57.4787 85.6448 56.9504V53.1557C85.6445 52.6274 86.0768 52.1951 86.6054 52.1951ZM60.0968 64.8221H63.8915C64.4198 64.8221 64.8521 65.2544 64.8521 65.7827V69.5774C64.8521 70.1057 64.4198 70.5383 63.8915 70.5383H60.0968C59.5685 70.5383 59.1362 70.106 59.1362 69.5774V65.7827C59.1362 65.2544 59.5682 64.8221 60.0968 64.8221Z" fill="#FFE177"/>
<path fill-rule="evenodd" clip-rule="evenodd" d="M60.8595 43.1431H89.6367C90.5847 43.1431 91.3605 42.3676 91.3605 41.4193V32.2399C91.3605 31.2919 90.5847 30.5161 89.6367 30.5161H60.8595C59.9115 30.5161 59.1357 31.2916 59.1357 32.2399V41.4193C59.136 42.3676 59.9115 43.1431 60.8595 43.1431Z" fill="#FFE177"/>
<path fill-rule="evenodd" clip-rule="evenodd" d="M61.1875 32.5682H89.3125V41.0837H61.1875V32.5682ZM60.8584 45.1949H89.6416C91.7197 45.1949 93.4171 43.4978 93.4171 41.4161V32.2373C93.4171 30.1505 91.72 28.4567 89.6416 28.4567H60.8584C58.7803 28.4567 57.0829 30.1505 57.0829 32.2373V41.4161C57.0829 43.4978 58.7803 45.1949 60.8584 45.1949ZM61.1875 66.8741H62.7982V68.4794H61.1875V66.8741ZM60.0964 72.5909H63.889C65.5516 72.5909 66.9025 71.2367 66.9025 69.5723V65.7761C66.9025 64.1153 65.5516 62.7626 63.889 62.7626H60.0964C58.4338 62.7626 57.0829 64.1153 57.0829 65.7761V69.5723C57.0829 71.2367 58.4338 72.5909 60.0964 72.5909ZM61.1875 79.4993H62.7982V81.1064H61.1875V79.4993ZM60.0964 85.2161H63.889C65.5516 85.2161 66.9025 83.8634 66.9025 82.1993V78.4067C66.9025 76.7423 65.5516 75.3881 63.889 75.3881H60.0964C58.4338 75.3881 57.0829 76.7423 57.0829 78.4067V82.1993C57.0829 83.8634 58.4338 85.2161 60.0964 85.2161ZM89.3125 81.1064H87.7021V66.8741H89.3125V81.1064ZM91.3561 62.7626H85.6411C84.5155 62.7626 83.5975 63.6824 83.5975 64.8182V83.1617C83.5975 84.296 84.5152 85.2158 85.6411 85.2158H91.3561C92.4991 85.2158 93.4171 84.296 93.4171 83.1617V64.8182C93.4171 63.6824 92.4991 62.7626 91.3561 62.7626ZM89.3125 55.8509H87.7021V54.2471H89.3125V55.8509ZM90.4036 50.1359H86.611C84.9484 50.1359 83.5975 51.4868 83.5975 53.1509V56.9471C83.5975 58.6097 84.9484 59.9621 86.611 59.9621H90.4036C92.0662 59.9621 93.4171 58.6094 93.4171 56.9471V53.1509C93.4171 51.4868 92.0662 50.1359 90.4036 50.1359ZM76.0468 55.8509H74.4535V54.2471H76.0468V55.8509ZM77.155 50.1359H73.345C71.6824 50.1359 70.3315 51.4868 70.3315 53.1509V56.9471C70.3315 58.6097 71.6824 59.9621 73.345 59.9621H77.155C78.8176 59.9621 80.1685 58.6094 80.1685 56.9471V53.1509C80.1685 51.4868 78.8176 50.1359 77.155 50.1359ZM61.1875 54.2474H62.7982V55.8512H61.1875V54.2474ZM60.0964 59.9624H63.889C65.5516 59.9624 66.9025 58.6097 66.9025 56.9474V53.1512C66.9025 51.4871 65.5516 50.1362 63.889 50.1362H60.0964C58.4338 50.1362 57.0829 51.4871 57.0829 53.1512V56.9474C57.0829 58.6097 58.4338 59.9624 60.0964 59.9624ZM76.0468 81.1064H74.4535V79.4993H76.0468V81.1064ZM77.155 75.3878H73.345C71.6824 75.3878 70.3315 76.742 70.3315 78.4064V82.199C70.3315 83.8631 71.6824 85.2158 73.345 85.2158H77.155C78.8176 85.2158 80.1685 83.8631 80.1685 82.199V78.4064C80.1685 76.742 78.8176 75.3878 77.155 75.3878ZM76.0468 68.4797H74.4535V66.8744H76.0468V68.4797ZM77.155 62.7626H73.345C71.6824 62.7626 70.3315 64.1153 70.3315 65.7761V69.5723C70.3315 71.2367 71.6824 72.5909 73.345 72.5909H77.155C78.8176 72.5909 80.1685 71.2367 80.1685 69.5723V65.7761C80.1685 64.1153 78.8176 62.7626 77.155 62.7626ZM125.82 111.725V61.4066H120.053V105.125C120.053 106.194 119.239 107.082 118.182 107.176C100.795 108.672 87.1825 113.72 76.5664 122.605C75.7945 123.247 74.7094 123.244 73.9339 122.605C63.3178 113.72 49.7056 108.672 32.3179 107.176C31.2616 107.082 30.4477 106.194 30.4477 105.125V61.4066H24.6805V111.725C41.7391 113.464 55.3168 118.618 66.1234 127.445H84.3769C95.1835 118.618 108.761 113.464 125.82 111.725ZM34.552 41.399C39.8341 41.9549 44.6659 42.8381 49.2205 44.0765V86.8094C49.2205 90.1745 51.9742 92.9123 55.3339 92.9123H73.1893V116.822C62.8675 109.304 50.1733 104.848 34.552 103.255V41.399ZM53.3422 24.5465V86.8094C53.3422 87.9074 54.2254 88.8011 55.3336 88.8011H95.1658C96.2743 88.8011 97.1575 87.9074 97.1575 86.8094V24.5465C97.1575 23.4485 96.2743 22.5548 95.1658 22.5548H55.3339C54.2257 22.5548 53.3422 23.4485 53.3422 24.5465ZM115.948 41.399V103.255C100.344 104.848 87.6325 109.301 77.3107 116.817V92.9126H95.1658C98.5429 92.9126 101.279 90.1745 101.279 86.8097V44.0762C105.834 42.8381 110.666 41.9549 115.948 41.399ZM127.863 57.2954H120.053V39.1355C120.053 37.8989 119.01 36.986 117.819 37.0886C111.844 37.6064 106.389 38.5052 101.28 39.8231V24.5465C101.28 21.1814 98.5432 18.4436 95.1661 18.4436H55.3339C51.9742 18.4436 49.2205 21.1817 49.2205 24.5465V39.8231C44.1115 38.5052 38.6563 37.6064 32.6641 37.0886C31.4659 36.9842 30.4474 37.9367 30.4474 39.1355V57.2954H22.6369C21.4939 57.2954 20.5759 58.2149 20.5759 59.351V113.597C20.5759 114.662 21.3898 115.553 22.4464 115.645C39.8341 117.142 53.4463 122.191 64.0624 131.077C64.426 131.387 64.8937 131.557 65.3785 131.557H85.1215C85.6063 131.557 86.0566 131.387 86.4376 131.077C97.0537 122.191 110.666 117.142 128.054 115.645C129.11 115.553 129.924 114.663 129.924 113.597V59.351C129.924 58.2149 129.006 57.2954 127.863 57.2954Z" fill="#1E2F3F"/>
</svg>
