<svg width="25" height="24" viewBox="0 0 25 24" fill="none" xmlns="http://www.w3.org/2000/svg">
<g clip-path="url(#clip0_792_5793)">
<path d="M24.5 12.0375L21.35 9.49575L23.375 5.982L19.1 5.6085L18.725 1.49625L15.125 3.216L12.65 0L10.325 3.2895L6.575 1.3455L6.35 5.60775L2.15 5.832L3.725 9.86925L0.5 11.8133L3.8 14.2808L2.15 17.7945L6.275 18.243L6.5 22.4303L10.325 20.6355L12.875 24L15.125 20.6355L18.65 22.3552L18.95 18.168L23.075 18.093L21.575 14.6535L24.5 12.0375Z" fill="#FF0000"/>
<path d="M7.67154 15.2115L6.19104 10.9815L7.30779 10.5907L8.72904 11.8335C9.13629 12.1912 9.57129 12.6307 9.92754 13.0417L9.94629 13.035C9.68754 12.498 9.46854 11.9332 9.24729 11.3002L8.81454 10.0635L9.69279 9.75675L11.1733 13.9867L10.169 14.3385L8.69454 13.023C8.28504 12.6592 7.81779 12.2092 7.43679 11.787L7.42104 11.7997C7.64154 12.3495 7.86279 12.9412 8.10354 13.6312L8.54979 14.9055L7.67154 15.2115Z" fill="white"/>
<path d="M12.257 12.2265C12.4273 12.6112 12.881 12.663 13.328 12.507C13.6543 12.393 13.9025 12.2557 14.1305 12.0847L14.4823 12.687C14.213 12.9225 13.8515 13.1197 13.4375 13.2652C12.3958 13.6297 11.5888 13.236 11.252 12.276C10.9805 11.4982 11.1628 10.4692 12.2293 10.0957C13.2208 9.7485 13.868 10.389 14.1335 11.148C14.1905 11.3107 14.2228 11.4622 14.2348 11.5357L12.257 12.2265ZM13.1518 11.181C13.0708 10.9485 12.8338 10.5952 12.3943 10.749C11.993 10.89 11.957 11.31 12.0223 11.577L13.1518 11.181Z" fill="white"/>
<path d="M14.8145 9.26775L15.4978 10.437C15.6725 10.7348 15.8548 11.052 16.0273 11.3865L16.04 11.382C15.98 11.0085 15.944 10.626 15.9148 10.299L15.7993 8.9235L16.553 8.6595L17.288 9.7755C17.4905 10.092 17.693 10.4093 17.879 10.7378L17.891 10.7332C17.813 10.3672 17.7545 9.999 17.7005 9.624L17.5378 8.31375L18.4738 7.986L18.6058 11.3842L17.7088 11.6985L17.042 10.7198C16.8613 10.4453 16.7075 10.1888 16.514 9.834L16.5005 9.8385C16.5785 10.2405 16.6138 10.545 16.634 10.8622L16.7038 12.0495L15.8068 12.3638L13.8425 9.606L14.8145 9.26775Z" fill="white"/>
</g>
<defs>
<clipPath id="clip0_792_5793">
<rect width="24" height="24" fill="white" transform="translate(0.5)"/>
</clipPath>
</defs>
</svg>
