<svg width="151" height="150" viewBox="0 0 151 150" fill="none" xmlns="http://www.w3.org/2000/svg">
<path d="M106.476 82.2101L77.9864 89.6181C76.2257 90.076 74.3782 90.0851 72.6131 89.645L42.5579 82.1506C37.7916 80.962 34.4468 76.6809 34.4468 71.7686V38.9329C34.4468 18.6454 50.8932 2.19897 71.1807 2.19897H77.7497C98.0372 2.19897 114.484 18.6454 114.484 38.9329V71.8545C114.483 76.7269 111.192 80.984 106.476 82.2101Z" fill="#FD9727"/>
<path d="M77.7494 2.19922H71.1805C69.5305 2.19922 67.9065 2.30996 66.314 2.52061C84.3008 4.90157 98.1814 20.2956 98.1814 38.9329V71.8544C98.1814 76.7268 94.8896 80.9839 90.1743 82.21L66.9816 88.2405L72.6131 89.6447C74.3782 90.0848 76.2257 90.0757 77.9864 89.6178L106.476 82.2097C111.192 80.9837 114.483 76.7265 114.483 71.8541V38.9329C114.483 18.6453 98.037 2.19922 77.7494 2.19922Z" fill="#FF6D3A"/>
<path d="M36.1469 61.8654H43.942V42.8347H36.1469C33.8568 42.8347 32.0002 44.6913 32.0002 46.9814V57.719C32.0002 60.0089 33.8568 61.8654 36.1469 61.8654Z" fill="#3D6687"/>
<path d="M114.353 61.8654H106.558V42.8347H114.353C116.643 42.8347 118.5 44.6913 118.5 46.9814V57.719C118.5 60.0089 116.644 61.8654 114.353 61.8654Z" fill="#3D6687"/>
<path d="M92.8509 95.0712C90.1248 94.5234 88.1633 92.1286 88.1633 89.3478V76.1885H75.2501H62.3369V89.3478C62.3369 92.1286 60.3755 94.5234 57.6494 95.0712L54.5029 95.7037V116.836H75.2501H95.9971V95.7037L92.8509 95.0712Z" fill="#FED9A8"/>
<path d="M119.737 102.166L93.8361 94.0906C93.0319 93.8398 92.1554 94.0435 91.544 94.623L75.2502 110.064L58.9564 94.623C58.345 94.0438 57.4684 93.8401 56.6642 94.0906L30.7634 102.166C19.2801 105.547 11.3958 116.088 11.3958 128.059V145.314C11.3958 146.687 12.5093 147.801 13.8828 147.801H136.617C137.991 147.801 139.105 146.687 139.105 145.314V128.059C139.105 116.088 131.22 105.547 119.737 102.166Z" fill="#FF4C4C"/>
<path d="M119.737 102.166L93.8362 94.0906C93.0323 93.8398 92.1554 94.0435 91.544 94.623L88.4983 97.5093L103.435 102.166C114.918 105.547 122.803 116.088 122.803 128.059V147.801H136.617C137.991 147.801 139.105 146.687 139.105 145.314V128.059C139.105 116.088 131.22 105.547 119.737 102.166Z" fill="#EF2929"/>
<path d="M75.2502 87.1299C57.4731 87.1299 43.0623 72.7188 43.0623 54.942V45.896C43.0623 28.1192 57.4734 13.708 75.2502 13.708C93.027 13.708 107.438 28.1192 107.438 45.896V54.942C107.438 72.7191 93.027 87.1299 75.2502 87.1299Z" fill="#FED9A8"/>
<path d="M91.1361 17.897V54.9421C91.1361 69.9028 80.929 82.4786 67.0991 86.0879C69.7024 86.7673 72.4338 87.13 75.2501 87.13C93.0269 87.13 107.438 72.7189 107.438 54.9421V45.8963C107.438 33.8969 100.871 23.4323 91.1361 17.897Z" fill="#F4C892"/>
<path d="M58.9563 94.6228L75.2501 110.064L65.2013 113.487C62.7391 114.326 60.0142 113.597 58.3001 111.641L45.8708 97.4561L56.6638 94.0911C57.468 93.84 58.3449 94.0436 58.9563 94.6228Z" fill="#D4145A"/>
<path d="M91.5438 94.6229L75.25 110.064L84.3575 113.167C87.3892 114.199 90.7446 113.302 92.8554 110.893L104.629 97.4559L93.8363 94.0909C93.0321 93.8401 92.1552 94.0437 91.5438 94.6229Z" fill="#D4145A"/>
<path d="M56.0232 135.029H39.4558C38.5359 135.029 37.7903 134.283 37.7903 133.363V126.025C37.7903 125.105 38.5359 124.36 39.4558 124.36H56.0232C56.9432 124.36 57.6888 125.105 57.6888 126.025V133.363C57.6888 134.283 56.9432 135.029 56.0232 135.029Z" fill="#EDA558"/>
<path d="M114.483 45.7178C114.483 45.7178 100.596 44.6157 95.8438 31.8416C95.8438 31.8416 62.2733 58.7186 34.4465 45.7178V38.9329C34.4465 18.6454 50.893 2.19897 71.1805 2.19897H77.7495C98.037 2.19897 114.483 18.6454 114.483 38.9329L114.483 45.7178Z" fill="#FD9727"/>
<path d="M77.7494 2.19922H71.1805C69.5305 2.19922 67.9065 2.30996 66.314 2.52061C83.4166 4.78467 96.8056 18.8138 98.0806 36.2094C103.937 44.8793 114.483 45.7178 114.483 45.7178V38.9329C114.483 18.6453 98.037 2.19922 77.7494 2.19922Z" fill="#FF6D3A"/>
<path d="M80.9885 83.128C78.9556 83.128 77.1579 81.6655 76.8028 79.5942C76.4059 77.2798 77.9604 75.0816 80.2748 74.6849L87.4444 73.4553C89.7594 73.0578 91.957 74.6129 92.354 76.9273C92.7509 79.2418 91.1964 81.4399 88.882 81.8366L81.7124 83.0662C81.4693 83.1081 81.2273 83.128 80.9885 83.128Z" fill="#D4145A"/>
<path d="M135.488 110.574C131.687 105.492 126.462 101.858 120.375 100.062L105.287 95.3574C105.286 95.3571 105.285 95.3565 105.284 95.3562L94.4914 91.9915C93.5263 91.6897 92.5062 91.7269 91.5869 92.0638C90.8228 91.3833 90.3626 90.3971 90.3626 89.3477V88.6727L107.03 84.3391C112.713 82.8611 116.683 77.7277 116.683 71.8548V63.62C119.032 62.6893 120.699 60.3959 120.699 57.7191V46.9814C120.699 44.2885 119.047 42.0065 116.683 41.0834V38.9333C116.683 37.2765 116.577 35.6087 116.37 33.9751C116.217 32.7704 115.115 31.9205 113.911 32.0708C112.706 32.224 111.853 33.325 112.007 34.5299C112.191 35.9801 112.284 37.4614 112.284 38.9333V42.8415V43.1002C111.107 42.8172 109.591 42.3546 107.965 41.6128C107.888 41.5776 107.812 41.5416 107.735 41.5058C104.629 40.0471 101.17 37.5598 98.9258 33.3443C98.8921 33.2804 98.8584 33.2163 98.8253 33.1518C98.7412 32.9892 98.6589 32.8246 98.5783 32.6567C98.5162 32.5266 98.4567 32.3945 98.3973 32.2624C98.3422 32.1402 98.2862 32.0195 98.2332 31.895C98.1189 31.6255 98.0085 31.3527 97.9051 31.0747C97.659 30.4131 97.1105 29.9101 96.4303 29.722C96.26 29.6749 96.0869 29.6488 95.914 29.6432C95.8815 29.642 95.849 29.6453 95.8165 29.6459C95.7629 29.6464 95.7093 29.6456 95.6559 29.6503C95.2771 29.6828 94.9112 29.8167 94.593 30.0373C94.5517 30.066 94.5093 30.0929 94.4694 30.1246C94.4618 30.1307 94.4307 30.1553 94.3815 30.1937C94.376 30.1981 94.3721 30.201 94.366 30.2057C94.3475 30.2201 94.3232 30.2388 94.3001 30.2567C94.2834 30.2696 94.2673 30.2822 94.2479 30.2968C94.228 30.3121 94.2043 30.3302 94.182 30.3475C94.1495 30.3724 94.1158 30.3982 94.078 30.4269C94.061 30.4398 94.0423 30.4542 94.0241 30.4679C93.974 30.5057 93.9207 30.5462 93.8624 30.5901C93.8504 30.5992 93.8378 30.6086 93.8255 30.6179C89.7561 33.6704 67.1119 49.7318 45.3812 46.6665C45.3428 46.6609 45.3045 46.6551 45.2661 46.6495C44.9169 46.5991 44.5676 46.5429 44.219 46.4825C44.1194 46.4652 44.0201 46.4474 43.9205 46.4292C43.6193 46.3744 43.3187 46.3155 43.0181 46.2531C42.9215 46.2329 42.8242 46.2136 42.7278 46.1925C42.3806 46.1175 42.034 46.0369 41.6878 45.9511C41.5471 45.9162 41.4077 45.8781 41.2676 45.8415C41.0532 45.7855 40.8393 45.7278 40.6255 45.6678C40.4564 45.6203 40.2874 45.572 40.1192 45.5219C39.8854 45.4521 39.6519 45.3789 39.4187 45.3042C39.2095 45.2371 39.0012 45.168 38.7935 45.0971C38.5591 45.0171 38.3251 44.9353 38.0916 44.8498C37.9524 44.7988 37.8135 44.7473 37.6753 44.6945C37.3603 44.5747 37.046 44.4514 36.7325 44.3213C36.7038 44.3093 36.6745 44.2984 36.6458 44.2864V43.2021V38.933C36.6458 19.8906 52.138 4.39835 71.1804 4.39835H77.7494C91.5591 4.39835 104.014 12.5942 109.48 25.2786C109.961 26.3942 111.255 26.9089 112.37 26.4279C113.486 25.9471 114.001 24.6534 113.52 23.538C107.358 9.23937 93.3172 0 77.7494 0H71.1807C49.7128 0 32.2477 17.4651 32.2477 38.933V41.9834C30.729 43.1699 29.8011 45.0054 29.8011 46.9811V57.7188C29.8011 59.7485 30.7603 61.5572 32.2477 62.7197V71.7687C32.2477 77.7025 36.2687 82.8491 42.0258 84.2846L60.1378 88.801V89.3477C60.1378 90.3974 59.6775 91.3839 58.9132 92.0644C57.9938 91.7278 56.974 91.6909 56.0096 91.9915L45.2166 95.3565C45.2154 95.3568 45.2142 95.3574 45.2131 95.3577L30.1257 100.062C21.7609 102.53 14.9921 108.544 11.5532 116.564C11.289 117.18 11.0426 117.814 10.8214 118.449C10.4212 119.596 11.0262 120.85 12.1732 121.25C13.3201 121.649 14.5737 121.045 14.9742 119.898C15.1623 119.359 15.3715 118.82 15.5959 118.297C18.5186 111.48 24.2734 106.37 31.3843 104.276C31.3955 104.273 31.4066 104.27 31.4177 104.266L45.1597 99.9813L56.6459 113.09C58.317 114.997 60.6818 116.034 63.1182 116.034C64.0501 116.033 64.9926 115.882 65.9105 115.569L75.25 112.388L83.6483 115.249C84.7247 115.615 85.8292 115.793 86.9219 115.793C89.7781 115.793 92.5508 114.577 94.5096 112.342L105.34 99.9813L119.082 104.266C119.093 104.27 119.105 104.273 119.116 104.276C124.291 105.8 128.735 108.889 131.966 113.209C135.197 117.528 136.905 122.663 136.905 128.058V145.313C136.905 145.472 136.776 145.601 136.617 145.601H124.738V125.497C124.738 124.282 123.753 123.297 122.539 123.297C121.324 123.297 120.339 124.282 120.339 125.497V145.601H30.1609V125.497C30.1609 124.282 29.1762 123.297 27.9616 123.297C26.7469 123.297 25.7622 124.282 25.7622 125.497V145.601H13.8826C13.7238 145.601 13.5949 145.472 13.5949 145.313V129.475C13.5949 128.261 12.6103 127.276 11.3956 127.276C10.181 127.276 9.19629 128.26 9.19629 129.475V145.313C9.19629 147.897 11.2986 150 13.8826 150H136.617C139.201 150 141.304 147.898 141.304 145.313V128.058C141.304 121.707 139.293 115.661 135.488 110.574ZM112.284 71.8545C112.284 75.7247 109.668 79.1079 105.923 80.0817L95.3609 82.828C95.4963 82.7301 95.6264 82.6261 95.7599 82.5265C95.815 82.4855 95.8695 82.4436 95.9243 82.4023C96.3005 82.1187 96.6702 81.8278 97.0335 81.5295C97.0809 81.4906 97.1284 81.4516 97.1756 81.4124C97.5635 81.0904 97.944 80.7608 98.317 80.4227C98.3348 80.4063 98.3533 80.3905 98.3712 80.3741C98.9674 79.8315 99.5436 79.269 100.1 78.6872C100.141 78.6438 100.182 78.5996 100.223 78.5562C100.498 78.2653 100.769 77.9706 101.034 77.6706L103.516 77.2449C107.605 76.5435 110.863 73.7568 112.284 70.0844V71.8545H112.284ZM109.323 59.5821C109.421 58.8578 109.497 58.1266 109.549 57.3886C109.555 57.3139 109.559 57.2392 109.564 57.1648C109.582 56.8765 109.597 56.5876 109.608 56.2976C109.612 56.2041 109.616 56.1109 109.619 56.0175C109.63 55.6601 109.637 55.3021 109.637 54.942V46.9492C112.203 47.7203 114.071 47.8908 114.304 47.9096C114.305 47.9096 114.308 47.9099 114.309 47.9099C114.31 47.9099 114.311 47.9099 114.312 47.9099C114.922 47.9579 115.525 47.7487 115.975 47.3327C116.034 47.2782 116.09 47.2205 116.142 47.1607C116.16 47.1396 116.176 47.1168 116.194 47.0951C116.226 47.055 116.258 47.0148 116.288 46.9726C116.292 46.9671 116.297 46.9618 116.3 46.9562C116.3 46.9641 116.3 46.9726 116.3 46.9809V57.7185C116.3 58.7606 115.477 59.6116 114.447 59.6609C114.435 59.6611 114.423 59.6597 114.41 59.6603C114.376 59.6614 114.342 59.6632 114.303 59.6658H109.312C109.317 59.6383 109.319 59.6102 109.323 59.5821ZM105.834 70.6519C105.987 70.3542 106.136 70.0539 106.281 69.7513C106.355 69.5981 106.426 69.444 106.497 69.2899C106.633 68.9966 106.765 68.7013 106.892 68.4036C106.958 68.2498 107.021 68.0949 107.084 67.9399C107.195 67.6703 107.302 67.3991 107.406 67.1263C107.454 67.0003 107.503 66.8752 107.55 66.7487C107.677 66.4012 107.797 66.0505 107.913 65.6981C107.957 65.5665 108 65.4353 108.042 65.3032C108.157 64.9405 108.266 64.5751 108.369 64.2074C108.382 64.1597 108.398 64.1131 108.411 64.0654H108.661V65.9269C108.661 68.5575 107.229 70.8822 105.045 72.1044C105.101 72.0078 105.152 71.9081 105.207 71.8112C105.333 71.5871 105.458 71.3618 105.579 71.1347C105.665 70.9739 105.75 70.8136 105.834 70.6519ZM35.3494 59.493C35.3476 59.4921 35.3456 59.4918 35.3435 59.4909C34.6697 59.1842 34.1995 58.5063 34.1995 57.7191V48.0218C34.2639 48.0502 34.3292 48.0771 34.3937 48.1053C34.4948 48.1495 34.5964 48.1929 34.6981 48.2359C34.9167 48.3291 35.1361 48.4202 35.3567 48.5093C35.4531 48.5482 35.5489 48.5875 35.6456 48.6256C35.942 48.7428 36.24 48.8567 36.54 48.9669C36.5523 48.9713 36.5643 48.9763 36.5766 48.9807C37.9703 49.4901 39.4014 49.9237 40.8625 50.2779V54.9423C40.8625 55.3024 40.8698 55.6604 40.8809 56.0178C40.8839 56.1112 40.888 56.2044 40.8915 56.2979C40.9029 56.5879 40.9175 56.8768 40.936 57.1651C40.9407 57.2398 40.9448 57.3145 40.9504 57.3889C41.0025 58.1266 41.0784 58.8578 41.1765 59.5823C41.1803 59.6105 41.1827 59.6386 41.1868 59.6664H36.1465C35.8732 59.6661 35.6048 59.6078 35.3494 59.493ZM43.0899 80.0167C39.296 79.0709 36.6461 75.679 36.6461 71.7687V64.0648H42.0897C42.1026 64.1116 42.1184 64.1573 42.1313 64.2042C42.2368 64.581 42.3487 64.9548 42.4668 65.3263C42.5081 65.457 42.5508 65.587 42.5939 65.7168C42.7129 66.0769 42.8362 66.4349 42.9669 66.7894C43.0149 66.9198 43.0656 67.049 43.1151 67.1787C43.227 67.4717 43.3427 67.7632 43.4626 68.0524C43.5335 68.2241 43.6061 68.3949 43.6797 68.5654C43.7986 68.8396 43.9208 69.112 44.0465 69.3825C44.1141 69.5284 44.1809 69.6746 44.2509 69.8196C44.4004 70.1298 44.5556 70.4366 44.7141 70.7412C44.7976 70.9021 44.882 71.0626 44.9681 71.222C45.1252 71.5132 45.286 71.8021 45.4512 72.088C45.5482 72.2559 45.6478 72.4223 45.7474 72.5884C45.8711 72.7944 45.9973 72.9989 46.1251 73.2019C46.2768 73.4436 46.4318 73.683 46.5897 73.9206C46.6961 74.0805 46.8036 74.2396 46.9126 74.3975C47.1033 74.6747 47.2984 74.9486 47.4971 75.2202C47.5961 75.3552 47.6954 75.4903 47.7962 75.6239C48.0279 75.9309 48.2658 76.2333 48.5075 76.5324C48.5881 76.632 48.6675 76.7322 48.7492 76.8309C48.9127 77.0287 49.0782 77.2241 49.2458 77.418C49.2856 77.4643 49.3266 77.5091 49.3668 77.5551C49.677 77.9102 49.9943 78.2591 50.3192 78.6013C50.3737 78.6587 50.4288 78.7153 50.4839 78.7724C50.8017 79.1029 51.1264 79.4272 51.4574 79.7451C51.5098 79.7955 51.5626 79.8459 51.6153 79.896C51.9601 80.2229 52.312 80.5425 52.6706 80.8554C52.7128 80.8921 52.7544 80.9293 52.7966 80.9656C53.4077 81.4935 54.0373 82.0012 54.6862 82.4867C54.6965 82.4946 54.7073 82.5019 54.7176 82.5098C54.9959 82.7175 55.273 82.9264 55.5578 83.1259L43.0899 80.0167ZM47.0957 65.2733C47.0878 65.2513 47.0796 65.2296 47.0717 65.2076C46.9931 64.9932 46.917 64.7776 46.8434 64.5611C46.8387 64.547 46.8341 64.5329 46.8294 64.5189C46.6105 63.8711 46.4142 63.2134 46.2393 62.5466C46.227 62.4997 46.2138 62.4531 46.2018 62.4063C46.1608 62.2463 46.1224 62.0852 46.0838 61.924C46.0565 61.8104 46.0293 61.697 46.0035 61.5827C45.971 61.4401 45.9402 61.2968 45.9097 61.1532C45.8848 61.0355 45.8605 60.9177 45.8371 60.7993C45.8125 60.6754 45.7887 60.5515 45.7656 60.427C45.7386 60.2805 45.7126 60.1337 45.6877 59.9866C45.6704 59.8844 45.6531 59.7819 45.6367 59.6793C45.6094 59.5085 45.5843 59.3371 45.5599 59.1657C45.5479 59.0819 45.5359 58.9982 45.5245 58.9141C45.4993 58.7242 45.4767 58.5341 45.4551 58.3437C45.4471 58.2736 45.4384 58.2036 45.431 58.1333C45.4096 57.9315 45.3912 57.7293 45.3736 57.5272C45.3683 57.465 45.3619 57.4032 45.3569 57.3411C45.3405 57.134 45.327 56.9266 45.315 56.7192C45.3115 56.66 45.3068 56.6011 45.3036 56.5416C45.2925 56.3304 45.2848 56.1192 45.2778 55.9079C45.2761 55.8517 45.2728 55.796 45.2714 55.7398C45.2643 55.4737 45.2605 55.2074 45.2605 54.9411V51.0909C48.5312 51.5113 51.9578 51.5591 55.5062 51.2418C55.622 51.2315 55.7386 51.2187 55.8546 51.2078C56.1423 51.1803 56.4306 51.151 56.7197 51.1185C56.9755 51.0903 57.2318 51.0602 57.4888 51.0282C57.5611 51.0191 57.6338 51.0092 57.7064 50.9995C63.6769 50.2331 69.9578 48.4606 76.4468 45.676C84.9406 42.0308 91.6349 37.6205 94.9499 35.2515C97.5749 40.3231 101.554 43.3753 105.226 45.2069C105.232 45.4387 105.238 45.6716 105.238 45.8963V54.942C105.238 55.2083 105.234 55.4743 105.227 55.7406C105.226 55.7969 105.223 55.8526 105.221 55.9088C105.214 56.12 105.206 56.3316 105.195 56.5425C105.192 56.602 105.187 56.6609 105.184 56.72C105.171 56.9275 105.158 57.1349 105.142 57.342C105.137 57.4041 105.131 57.4659 105.125 57.528C105.108 57.7302 105.089 57.9323 105.068 58.1342C105.06 58.2045 105.051 58.2742 105.044 58.3445C105.022 58.535 104.999 58.7251 104.974 58.915C104.963 58.999 104.951 59.0828 104.939 59.1666C104.914 59.338 104.889 59.5094 104.862 59.6802C104.846 59.7827 104.828 59.8853 104.811 59.9875C104.786 60.1346 104.76 60.2814 104.733 60.4278C104.71 60.5524 104.686 60.6763 104.662 60.8002C104.638 60.9183 104.614 61.0363 104.589 61.1541C104.558 61.2977 104.528 61.4406 104.495 61.5833C104.469 61.6979 104.442 61.8118 104.415 61.9258C104.376 62.0861 104.338 62.2466 104.297 62.406C104.284 62.4552 104.271 62.5038 104.258 62.5531C104.084 63.2155 103.889 63.8691 103.671 64.5127C103.665 64.5297 103.66 64.5467 103.654 64.5637C103.581 64.7782 103.506 64.9917 103.428 65.2038C103.42 65.2281 103.411 65.2528 103.402 65.2771C102.283 68.314 100.686 71.1206 98.7028 73.6074L93.7634 74.4546C93.3022 73.644 92.6712 72.9338 91.8872 72.3792C90.48 71.3837 88.7694 70.9955 87.0714 71.2882L79.9018 72.5178C76.3958 73.119 74.0328 76.4603 74.6339 79.9663C75.0092 82.1553 76.4492 83.917 78.3672 84.7692C77.3418 84.8756 76.3015 84.9309 75.2486 84.9309C70.8918 84.9309 66.7495 83.9961 63.0107 82.3179C62.9277 82.2807 62.8451 82.2426 62.7625 82.2046C55.5437 78.8846 49.859 72.7797 47.0957 65.2733ZM89.839 78.8313C89.5223 79.279 89.0507 79.5763 88.5101 79.6692L81.3394 80.8988C81.2234 80.9187 81.1053 80.929 80.9884 80.929C79.9885 80.929 79.1398 80.2115 78.9702 79.2227C78.7789 78.1071 79.5306 77.0442 80.6462 76.8526L87.8164 75.623C87.9339 75.6031 88.0513 75.5928 88.1679 75.5928C88.5883 75.5928 88.9979 75.7223 89.3483 75.9699C89.796 76.2863 90.0936 76.7586 90.1862 77.2988C90.2791 77.8393 90.1557 78.3834 89.839 78.8313ZM64.4922 111.406C62.8668 111.959 61.0856 111.482 59.9541 110.192L49.7529 98.5493L57.3188 96.1903C57.3622 96.1768 57.4097 96.188 57.4431 96.2193L71.0946 109.157L64.4922 111.406ZM75.25 107.034L62.3693 94.8274C63.7334 93.3629 64.5361 91.4099 64.5361 89.3474V87.6262C64.6791 87.6731 64.8241 87.7136 64.9677 87.7587C65.0401 87.7815 65.113 87.8032 65.1854 87.8255C65.6207 87.9591 66.0584 88.0836 66.4985 88.1993C66.5776 88.2201 66.6564 88.2415 66.7358 88.2617C66.981 88.3244 67.2265 88.385 67.4729 88.4422C67.5367 88.4571 67.6009 88.4703 67.6651 88.4846C68.0887 88.5802 68.5138 88.6677 68.9409 88.7471C69.0892 88.7747 69.2377 88.8013 69.3865 88.8271C69.5934 88.8626 69.8002 88.8986 70.0079 88.9303C70.3205 88.9783 70.6349 89.0214 70.9501 89.0609C71.1154 89.0814 71.2809 89.0996 71.4464 89.1177C71.713 89.1473 71.9805 89.1734 72.2489 89.1969C72.3616 89.2065 72.4739 89.2182 72.5869 89.227C72.9634 89.256 73.3419 89.2768 73.7213 89.2935C73.8283 89.2982 73.9355 89.302 74.0424 89.3058C74.4432 89.3196 74.8454 89.3293 75.2497 89.3293C75.654 89.3293 76.056 89.3196 76.4571 89.3058C76.5643 89.302 76.6712 89.2982 76.7782 89.2935C77.1579 89.2768 77.5364 89.2557 77.9125 89.227C78.0253 89.2185 78.1378 89.2065 78.2506 89.1969C78.519 89.1734 78.7865 89.1473 79.0531 89.1177C79.2186 89.0996 79.3841 89.0814 79.5494 89.0609C79.8646 89.0214 80.1789 88.9783 80.4915 88.9303C80.6993 88.8986 80.9061 88.8626 81.1129 88.8271C81.2618 88.8013 81.4103 88.7747 81.5585 88.7471C81.9857 88.6677 82.4111 88.5802 82.8344 88.4846C82.8983 88.4703 82.9627 88.4571 83.0266 88.4422C83.273 88.385 83.5188 88.3244 83.7637 88.2617C83.8431 88.2415 83.9219 88.2201 84.001 88.1993C84.4411 88.0836 84.8785 87.9588 85.3141 87.8255C85.3868 87.8032 85.4594 87.7815 85.5318 87.7587C85.6754 87.7136 85.8201 87.6734 85.9633 87.6262V89.3474C85.9633 91.4102 86.7661 93.3632 88.1301 94.8274L75.25 107.034ZM91.2013 109.444C89.6715 111.189 87.263 111.833 85.0666 111.085L79.4052 109.157L93.0567 96.2193C93.0898 96.1883 93.1373 96.1766 93.1812 96.1906L100.747 98.5496L91.2013 109.444Z" fill="black"/>
<path d="M56.0231 137.228C58.1541 137.228 59.8879 135.494 59.8879 133.363V126.025C59.8879 123.894 58.1541 122.16 56.0231 122.16H39.4557C37.3246 122.16 35.5908 123.894 35.5908 126.025V133.363C35.5908 135.494 37.3246 137.228 39.4557 137.228H56.0231ZM39.9892 126.559H55.4893V132.829H39.9892V126.559Z" fill="black"/>
</svg>
