<svg width="153" height="153" viewBox="0 0 153 153" fill="none" xmlns="http://www.w3.org/2000/svg">
<path d="M118.92 73.3161C115.158 72.9409 106.881 72.9409 106.881 67.6731C106.881 60.5268 117.414 51.1218 134.343 40.9639C139.608 37.5771 150.522 32.3118 150.522 25.163C150.522 19.52 146.382 15.3828 137.73 16.5109C129.453 17.639 116.661 23.282 99.7346 37.5771C82.0527 52.2499 65.5013 76.7029 65.5013 100.778C65.5013 125.231 82.0527 149.684 108.764 149.684C130.206 149.684 148.641 133.508 148.641 111.311C148.638 94.3824 136.977 74.8219 118.92 73.3161Z" fill="#000099"/>
<path d="M66.0357 62.7378C62.9458 61.1228 59.5567 60.0659 55.8992 59.7619C52.1372 59.3867 43.8603 59.3867 43.8603 54.1189C43.8603 46.9726 54.3935 37.5676 71.3225 27.4097C76.5902 24.0229 87.4986 18.7576 87.4986 11.6088C87.4986 5.96582 83.359 1.82857 74.7068 2.9567C66.43 4.08482 53.6382 9.72782 36.7116 24.0229C19.0321 38.6957 2.47833 63.1487 2.47833 87.2264C2.47833 111.679 19.0297 136.132 45.7413 136.132C52.0208 136.132 58.0391 134.736 63.4137 132.216C58.1436 122.688 55.334 111.663 55.334 100.781C55.3363 87.3428 59.6636 74.3112 66.0357 62.7378Z" fill="#000099"/>
</svg>
