<svg width="142" height="147" viewBox="0 0 142 147" fill="none" xmlns="http://www.w3.org/2000/svg">
<path d="M86.7782 52.4113C86.7782 56.8934 83.1448 60.5268 78.6627 60.5268H27.3478C22.8656 60.5268 19.2322 64.1602 19.2322 68.6424V137.29C19.2322 141.772 22.8656 145.406 27.3478 145.406H131.627C136.109 145.406 139.742 141.772 139.742 137.29V76.3891V60.5268V52.4113C139.742 47.9292 136.109 44.2958 131.627 44.2958H94.8938C90.4116 44.2958 86.7782 47.9292 86.7782 52.4113Z" fill="#E5AE13"/>
<path d="M130.261 23.6417H42.3747V135.949H130.261V23.6417Z" fill="#CBCBCB"/>
<path d="M116.121 1.85083H28.2349V76.3733H116.121V1.85083Z" fill="#CBCBCB"/>
<path d="M101.981 23.6415H14.0947V76.3733H101.981V23.6415Z" fill="#E6E6E6"/>
<path d="M69.3868 52.4111C69.3868 56.8932 65.7534 60.5266 61.2712 60.5266H9.95658C5.47445 60.5266 1.84076 64.16 1.84076 68.6421V137.29C1.84076 141.772 5.47445 145.406 9.95658 145.406H114.235C118.717 145.406 122.351 141.772 122.351 137.29V76.3888V60.5266V52.4111C122.351 47.9289 118.717 44.2956 114.235 44.2956H77.5023C73.0201 44.2956 69.3868 47.9289 69.3868 52.4111Z" fill="#F7C421"/>
<path d="M18.5584 60.5269H9.95659C5.47446 60.5269 1.84106 64.1603 1.84106 68.6424V137.29C1.84106 141.772 5.47446 145.406 9.95659 145.406H114.236C118.717 145.406 122.351 141.772 122.351 137.29V76.3891V60.5269V52.4113C122.351 47.9292 118.717 44.2958 114.236 44.2958H77.5026C73.0205 44.2958 69.3871 47.9292 69.3871 52.4113C69.3871 56.8935 65.7537 60.5269 61.2712 60.5269H27.3478" stroke="black" stroke-width="3" stroke-miterlimit="10" stroke-linecap="round" stroke-linejoin="round"/>
<path d="M130.26 44.2959H131.628C136.107 44.2959 139.743 47.9287 139.743 52.4111V60.5264V76.3877V137.29C139.743 141.772 136.107 145.405 131.628 145.405H114.234" stroke="black" stroke-width="3" stroke-miterlimit="10" stroke-linecap="round" stroke-linejoin="round"/>
<path d="M101.98 44.2959V23.6416H42.3751H28.2335H14.0948V60.5264" stroke="black" stroke-width="3" stroke-miterlimit="10" stroke-linecap="round" stroke-linejoin="round"/>
<path d="M116.121 44.5188V1.85113H101.98H42.3751H28.2335V23.6418" stroke="black" stroke-width="3" stroke-miterlimit="10" stroke-linecap="round" stroke-linejoin="round"/>
<path d="M130.26 77.6932V135.948H122.35" stroke="black" stroke-width="3" stroke-miterlimit="10" stroke-linecap="round" stroke-linejoin="round"/>
<path d="M116.121 23.6414H130.26V68.9036" stroke="black" stroke-width="3" stroke-miterlimit="10" stroke-linecap="round" stroke-linejoin="round"/>
<path d="M27.8732 35.0676H80.605" stroke="black" stroke-width="3" stroke-miterlimit="10" stroke-linecap="round" stroke-linejoin="round"/>
<path d="M27.8732 46.0532H58.0379" stroke="black" stroke-width="3" stroke-miterlimit="10" stroke-linecap="round" stroke-linejoin="round"/>
<path d="M111.804 88.678H66.1037V72.4191H111.804V88.678Z" fill="#FC5F61" stroke="black" stroke-width="3" stroke-miterlimit="10" stroke-linecap="round" stroke-linejoin="round"/>
</svg>
