<svg width="151" height="150" viewBox="0 0 151 150" fill="none" xmlns="http://www.w3.org/2000/svg">
<path d="M88.362 79.5144V97.1424L75.5001 106.83L62.6382 97.1424V79.5144H88.362Z" fill="#FFCEBF"/>
<path d="M88.362 79.5144V92.3499C84.9677 93.9591 81.1777 94.8561 77.1826 94.8561H73.8176C69.8224 94.8561 66.0325 93.9591 62.6382 92.3499V79.5144H88.362Z" fill="#FFB09E"/>
<path d="M125.576 117.895V147.801H25.4241V117.895C25.4241 112.522 28.9092 107.768 34.0358 106.153L47.0062 102.067L62.6468 97.1423L75.4999 106.83L88.353 97.1423L103.994 102.067L116.964 106.153C122.091 107.768 125.576 112.522 125.576 117.895Z" fill="#336037"/>
<path d="M103.994 102.067L92.1904 122.383C92.0497 122.625 91.8608 122.836 91.6356 123.003C91.4103 123.169 91.1533 123.288 90.8804 123.351C90.6076 123.414 90.3246 123.421 90.049 123.371C89.7734 123.321 89.511 123.215 89.278 123.06L81.5852 117.93L75.5001 113.874L69.415 117.93L61.7222 123.06C61.4891 123.215 61.2267 123.321 60.9511 123.371C60.6755 123.421 60.3926 123.414 60.1197 123.351C59.8469 123.288 59.5899 123.169 59.3646 123.003C59.1393 122.836 58.9505 122.625 58.8098 122.383L47.0063 102.067L62.647 97.1423L75.5001 106.83L88.3532 97.1423L103.994 102.067Z" fill="#003E1E"/>
<path d="M62.6468 97.1423L65.2379 99.0945L42.8293 106.153C37.7027 107.768 34.2175 112.522 34.2175 117.895V147.801H25.4241V117.895C25.4241 112.522 28.9092 107.768 34.0358 106.153L62.6468 97.1423Z" fill="#003E1E"/>
<path d="M62.6463 97.1423L75.5 106.829L61.8428 115.934L52.7378 100.263L62.6463 97.1423ZM88.3539 97.1423L75.5 106.829L89.1574 115.934L98.2621 100.263L88.3539 97.1423Z" fill="#016531"/>
<path d="M75.5 106.829L66.3953 112.899L70.9476 120.486H80.0524L84.6048 112.899L75.5 106.829Z" fill="#00654F"/>
<path d="M84.6041 112.897L81.585 117.93L75.4999 113.873L69.4148 117.93L66.3958 112.897L75.4999 106.83L84.6041 112.897Z" fill="#01291C"/>
<path d="M70.9476 120.486L66.3953 147.801H84.6048L80.0524 120.486H70.9476Z" fill="#00654F"/>
<path d="M97.557 41.8549V68.6193C97.557 79.872 88.4352 88.9937 77.1825 88.9937H73.8176C62.5649 88.9937 53.4431 79.872 53.4431 68.6193V41.8549C53.4431 38.4108 56.2365 35.6174 59.6835 35.6174H91.3165C94.7636 35.6174 97.557 38.4108 97.557 41.8549Z" fill="#FFEEE6"/>
<path d="M97.5563 47.3159H101.971C105.354 47.3159 108.096 50.0583 108.096 53.4411V58.031C108.096 61.4139 105.354 64.1563 101.971 64.1563H97.5563V47.3159ZM53.4436 47.3159H49.029C45.6462 47.3159 42.9038 50.0583 42.9038 53.4411V58.031C42.9038 61.4139 45.6462 64.1563 49.029 64.1563H53.4436V47.3159Z" fill="#FFCEBF"/>
<path d="M58.7151 7.26877L47.3434 14.869C42.9297 17.8189 41.9741 23.908 45.2719 28.0682L53.4437 38.3771H97.5564L105.794 28.0357C109.096 23.8899 108.163 17.8095 103.771 14.8435L92.6693 7.34821C87.6574 3.96439 81.7515 2.14973 75.7043 2.13558C69.6571 2.12143 63.7427 3.90844 58.7151 7.26877Z" fill="#336037"/>
<path d="M80.0285 2.45451C78.5219 2.67434 77.0388 3.00556 75.5879 3.44817C72.7216 4.31631 69.9995 5.60332 67.5096 7.26746L56.1367 14.8679C51.7224 17.8196 50.7669 23.9076 54.0644 28.0669L62.2365 38.3758H53.443L45.2709 28.0669C41.9734 23.9076 42.9289 17.8196 47.3433 14.8679L58.7161 7.26746C61.206 5.60332 63.9282 4.31631 66.7944 3.44817C69.6435 2.58055 72.6215 2.13501 75.6318 2.13501C77.1091 2.13501 78.5776 2.24346 80.0285 2.45451Z" fill="#003E1E"/>
<path d="M91.3165 35.6174H59.6835C56.2365 35.6174 53.4431 38.4108 53.4431 41.8549V68.6193C53.4431 79.8717 62.5652 88.9937 73.8176 88.9937H77.1825C78.1029 88.9937 79.0086 88.9322 79.8968 88.812C69.9279 87.4871 62.2366 78.9516 62.2366 68.6193V57.5724C62.2366 55.1439 64.2031 53.1753 66.6315 53.1756L88.617 53.178C91.9731 53.178 95.0714 52.0553 97.557 50.1647V41.8549C97.557 38.4108 94.7636 35.6174 91.3165 35.6174Z" fill="#FFDFCF"/>
<path d="M88.6174 47.316H62.3824C57.4458 47.316 53.4436 43.3138 53.4436 38.3772H97.5563C97.5563 43.3138 93.5541 47.316 88.6174 47.316Z" fill="#00654F"/>
<path d="M71.1766 47.3157H62.3831C57.4471 47.3157 53.4431 43.3147 53.4431 38.3757H62.2366C62.2366 43.3147 66.2405 47.3157 71.1766 47.3157Z" fill="#01291C"/>
<path d="M48.1738 29.4382H102.815V38.3771H48.1738V29.4382Z" fill="#016531"/>
<path d="M48.1729 29.4387H56.9663V38.3758H48.1729V29.4387Z" fill="#0E8045"/>
<path d="M75.5393 11.2718V11.2405L75.51 11.2563L75.4807 11.2405V11.2718L66.3953 16.1305C66.3953 21.5039 69.4305 27.0458 74.2358 29.45H76.7839C81.5892 27.0458 84.6244 21.5036 84.6244 16.1305L75.5393 11.2718Z" fill="#FFDE5C"/>
<path d="M125.576 126.993C126.159 126.993 126.718 126.762 127.13 126.349C127.543 125.937 127.774 125.378 127.774 124.795V117.895C127.774 111.53 123.695 105.969 117.624 104.056L90.5602 95.5323V86.7978C96.3387 82.5497 99.7553 75.8423 99.7553 68.6196V66.3547H101.971C106.561 66.3547 110.295 62.6207 110.295 58.0311V53.4415C110.295 48.8519 106.561 45.118 101.971 45.118H99.7553C99.7966 43.6694 99.8772 42.0168 99.6571 40.5744H102.815C103.398 40.5744 103.958 40.3428 104.37 39.9305C104.782 39.5182 105.014 38.959 105.014 38.376V32.5436C110.416 27.2089 112.291 17.9444 105.001 13.023L93.9006 5.52775C83.0169 -1.8186 68.3767 -1.83706 57.4948 5.43982L46.1216 13.0406C39.0095 17.7955 38.8975 25.5475 45.9748 32.4932V38.3757C45.9748 38.9588 46.2064 39.5179 46.6186 39.9302C47.0309 40.3425 47.5901 40.5741 48.1731 40.5741H51.3432C51.123 42.0165 51.2039 43.6691 51.245 45.1177H49.0293C44.4397 45.1177 40.7057 48.8517 40.7057 53.4413V58.0309C40.7057 62.6204 44.4397 66.3544 49.0293 66.3544H51.245V68.6194C51.245 75.8432 54.6621 82.5511 60.44 86.7975V95.532L45.7303 100.166C45.455 100.253 45.1994 100.393 44.9782 100.578C44.757 100.764 44.5745 100.991 44.4411 101.247C44.3077 101.503 44.2261 101.783 44.2009 102.071C44.1756 102.358 44.2073 102.648 44.294 102.923C44.3807 103.199 44.5207 103.454 44.7062 103.676C44.8917 103.897 45.119 104.079 45.3751 104.213C45.6311 104.346 45.911 104.428 46.1986 104.453C46.4862 104.478 46.776 104.446 47.0514 104.359L51.7213 102.888L59.9423 117.037C60.5895 118.151 62.0404 118.443 63.0625 117.762L65.6967 116.006L68.6463 120.923L64.5331 145.603H45.8317V129.591C45.8317 128.376 44.8474 127.392 43.6333 127.392C42.4193 127.392 41.435 128.376 41.435 129.591V145.603H27.6225V117.895C27.6225 113.458 30.4651 109.583 34.6963 108.249L37.8795 107.247C38.1581 107.163 38.4172 107.025 38.6419 106.84C38.8666 106.655 39.0523 106.427 39.1884 106.17C39.3244 105.913 39.408 105.631 39.4343 105.341C39.4607 105.051 39.4292 104.759 39.3418 104.482C39.2544 104.204 39.1128 103.947 38.9251 103.724C38.7374 103.502 38.5075 103.319 38.2486 103.186C37.9897 103.053 37.707 102.973 37.417 102.951C37.1269 102.928 36.8352 102.963 36.5587 103.054L33.3755 104.056C27.3048 105.968 23.2261 111.53 23.2261 117.895V147.802C23.2261 148.385 23.4577 148.944 23.87 149.356C24.2822 149.768 24.8414 150 25.4244 150H125.576C126.159 150 126.718 149.768 127.131 149.356C127.543 148.944 127.774 148.385 127.774 147.802V134.377C127.774 133.162 126.79 132.178 125.576 132.178C124.362 132.178 123.378 133.162 123.378 134.377V145.603H110.295V129.591C110.295 128.376 109.311 127.392 108.096 127.392C106.882 127.392 105.898 128.376 105.898 129.591V145.603H86.4675L82.3542 120.923L85.3038 116.006L87.938 117.762C88.9601 118.444 90.4107 118.152 91.0582 117.038L99.2795 102.888L116.304 108.249C120.535 109.582 123.377 113.458 123.377 117.894V124.794C123.377 125.083 123.434 125.369 123.545 125.636C123.655 125.903 123.817 126.145 124.021 126.349C124.225 126.553 124.468 126.715 124.734 126.826C125.001 126.936 125.287 126.993 125.576 126.993ZM86.1635 89.3332V96.04L75.5 104.076L64.8364 96.04V89.3332C70.4194 92.4634 80.0523 91.9935 86.1635 89.3332ZM101.971 49.5144C104.136 49.5144 105.898 51.276 105.898 53.4413V58.0309C105.898 60.1964 104.136 61.9577 101.971 61.9577H99.7553V49.5141H101.971V49.5144ZM48.565 16.6957L59.9385 9.09467C69.3557 2.79855 82.0227 2.81438 91.4408 9.17147L102.541 16.6664C107.774 20.345 104.592 27.2403 102.816 27.2403H82.8859C85.3498 24.1925 86.823 20.2207 86.823 16.1303C86.8231 15.7323 86.715 15.3418 86.5104 15.0004C86.3059 14.659 86.0124 14.3796 85.6614 14.1919L76.8703 9.49067C76.0885 8.89653 74.9316 8.89799 74.1496 9.49067L65.3585 14.1919C65.0075 14.3796 64.7141 14.6591 64.5095 15.0004C64.305 15.3418 64.1969 15.7323 64.1969 16.1303C64.1969 20.2207 65.6698 24.1925 68.134 27.2403H48.1731C46.6281 27.2406 42.8542 20.7478 48.565 16.6957ZM74.7648 27.2406C71.4529 25.3596 69.0778 21.5017 68.6595 17.4127L75.5102 13.7493L82.3606 17.4127C81.9423 21.5019 79.5669 25.3599 76.2553 27.2406H74.7648ZM50.3712 31.6373H100.617V36.1774H80.3305C79.1164 36.1774 78.1321 37.1613 78.1321 38.3757C78.1321 39.5901 79.1164 40.5741 80.3305 40.5741H94.9942C94.0785 43.2411 91.4932 45.1174 88.6169 45.1174H62.383C59.2986 44.9644 57.1741 43.4498 56.0101 40.5741H70.7486C71.9626 40.5741 72.9469 39.5901 72.9469 38.3757C72.9469 37.1613 71.9626 36.1774 70.7486 36.1774H50.3712V31.6373ZM49.0293 61.958C46.8641 61.958 45.1024 60.1964 45.1024 58.0311V53.4415C45.1024 51.276 46.8641 49.5147 49.0293 49.5147H51.245V61.9583L49.0293 61.958ZM55.6414 68.6196L55.642 47.316C57.1313 49.986 60.1357 49.5144 62.383 49.5141H88.6169C92.2808 49.5144 95.3579 47.9943 95.3579 47.316L95.3585 68.6196C95.3585 74.7616 92.292 80.4419 87.1528 83.8165C80.8654 87.9565 70.1755 87.9837 63.8445 83.8147C58.7083 80.4419 55.6414 74.7616 55.6414 68.6196ZM62.5689 112.808L56.0195 101.535L62.2218 99.5814L71.7 106.72L62.5689 112.808ZM82.0098 145.602H68.9905L72.81 122.684H78.1902L82.0098 145.602ZM78.8078 118.288H72.1924L69.3589 113.565L75.5003 109.471L81.6416 113.565L78.8078 118.288ZM88.431 112.808L79.3002 106.72L88.7784 99.5811L94.981 101.534L88.431 112.808Z" fill="black"/>
<path d="M61.843 131.801C63.057 131.801 64.0413 130.817 64.0413 129.603C64.0413 128.388 63.057 127.404 61.843 127.404H52.7379C51.5238 127.404 50.5396 128.388 50.5396 129.603C50.5396 130.817 51.5238 131.801 52.7379 131.801H61.843ZM89.1572 127.404C87.9431 127.404 86.9588 128.388 86.9588 129.603C86.9588 130.817 87.9431 131.801 89.1572 131.801H98.2622C99.4763 131.801 100.461 130.817 100.461 129.603C100.461 128.388 99.4763 127.404 98.2622 127.404H89.1572ZM66.0084 60.7468C66.5915 60.7468 67.1506 60.5152 67.5629 60.1029C67.9752 59.6906 68.2068 59.1315 68.2068 58.5484V55.6627C68.2068 54.4483 67.2225 53.4644 66.0084 53.4644C64.7943 53.4644 63.8101 54.4483 63.8101 55.6627V58.5484C63.8101 59.1315 64.0417 59.6906 64.4539 60.1029C64.8662 60.5152 65.4254 60.7468 66.0084 60.7468ZM84.9486 60.7468C85.5317 60.7468 86.0909 60.5152 86.5031 60.1029C86.9154 59.6906 87.147 59.1315 87.147 58.5484V55.6627C87.147 54.4483 86.1627 53.4644 84.9486 53.4644C83.7346 53.4644 82.7503 54.4483 82.7503 55.6627V58.5484C82.7503 59.1315 82.9819 59.6906 83.3942 60.1029C83.8064 60.5152 84.3656 60.7468 84.9486 60.7468ZM75.5001 78.2138C79.7523 78.2138 83.2116 74.7545 83.2116 70.5023C83.2116 69.2879 82.2274 68.3039 81.0133 68.3039C79.7992 68.3039 78.8149 69.2879 78.8149 70.5023C78.8149 72.3298 77.3279 73.8171 75.5001 73.8171C73.6722 73.8171 72.1852 72.3301 72.1852 70.5023C72.1852 69.2879 71.201 68.3039 69.9869 68.3039C68.7728 68.3039 67.7885 69.2879 67.7885 70.5023C67.7888 74.7545 71.2479 78.2138 75.5001 78.2138Z" fill="black"/>
</svg>
