<svg width="151" height="150" viewBox="0 0 151 150" fill="none" xmlns="http://www.w3.org/2000/svg">
<g clip-path="url(#clip0_712_816)">
<mask id="mask0_712_816" style="mask-type:luminance" maskUnits="userSpaceOnUse" x="1" y="0" width="150" height="150">
<path d="M1 1.52588e-05H151V150H1V1.52588e-05Z" fill="white"/>
</mask>
<g mask="url(#mask0_712_816)">
<path d="M126.396 121.702H30.6704C15.5216 121.702 3.19727 109.378 3.19727 94.2295C3.19727 79.0807 15.5216 66.7561 30.6704 66.7561H121.33C131.632 66.7561 140.014 58.3746 140.014 48.0723C140.014 37.7701 131.632 29.3882 121.33 29.3882H25.6041C23.1772 29.3882 21.2096 27.4209 21.2096 24.9937C21.2096 22.5667 23.1772 20.5992 25.6041 20.5992H121.33C136.478 20.5992 148.803 32.9238 148.803 48.0723C148.803 63.2208 136.478 75.5452 121.33 75.5452H30.6704C20.3679 75.5452 11.9863 83.927 11.9863 94.2292C11.9863 104.532 20.3679 112.913 30.6704 112.913H126.396C128.823 112.913 130.791 114.881 130.791 117.308C130.791 119.735 128.823 121.702 126.396 121.702Z" fill="#E4E0E4"/>
<path d="M48.0106 24.6042C48.0106 37.9419 31.3718 53.6128 26.7707 57.6909C26.1042 58.2815 25.1037 58.2818 24.4366 57.6915C19.83 53.6145 3.16562 37.9427 3.19756 24.6042C3.22715 12.2295 13.2294 2.19762 25.6041 2.19762C37.9788 2.19762 48.0106 12.2295 48.0106 24.6042Z" fill="#F27C7C"/>
<path d="M25.6041 2.19737C24.0994 2.19737 22.631 2.34854 21.2101 2.63096C31.4801 4.67413 39.2215 13.7336 39.2215 24.6039C39.2215 35.6887 27.7301 48.3836 21.2063 54.6977C22.5346 55.9814 23.6582 57.0024 24.4366 57.6915C25.1037 58.2818 26.1041 58.2815 26.7707 57.6906C31.3717 53.6122 48.0106 37.9419 48.0106 24.6039C48.0106 12.2292 37.9788 2.19737 25.6041 2.19737Z" fill="#ED6161"/>
<path d="M37.2114 24.9937C37.2114 31.4041 32.0147 36.6011 25.604 36.6011C19.1936 36.6011 13.9966 31.4041 13.9966 24.9937C13.9966 18.5829 19.1936 13.3862 25.604 13.3862C32.0147 13.3862 37.2114 18.5829 37.2114 24.9937Z" fill="white"/>
<path d="M148.803 114.273C148.803 127.61 132.164 143.281 127.563 147.359C126.896 147.95 125.896 147.951 125.229 147.36C120.622 143.283 103.958 127.612 103.99 114.273C104.019 101.898 114.021 91.8662 126.396 91.8662C138.771 91.8662 148.803 101.898 148.803 114.273Z" fill="#F27C7C"/>
<path d="M126.396 91.8662C124.891 91.8662 123.423 92.0174 122.002 92.2998C132.272 94.343 140.014 103.403 140.014 114.273C140.014 125.358 128.522 138.052 121.998 144.366C123.327 145.651 124.45 146.671 125.229 147.36C125.896 147.951 126.896 147.95 127.563 147.359C132.164 143.281 148.803 127.611 148.803 114.273C148.803 101.898 138.771 91.8662 126.396 91.8662Z" fill="#ED6161"/>
<path d="M138.004 114.663C138.004 121.073 132.807 126.27 126.396 126.27C119.986 126.27 114.789 121.073 114.789 114.663C114.789 108.252 119.986 103.055 126.396 103.055C132.807 103.055 138.004 108.252 138.004 114.663Z" fill="white"/>
<path d="M58.4219 99.9348C55.9949 99.9348 54.0273 97.9672 54.0273 95.5403V84.0498H62.8164V95.5403C62.8164 97.9672 60.8488 99.9348 58.4219 99.9348Z" fill="#685E68"/>
<path d="M93.5781 99.9348C91.1512 99.9348 89.1836 97.9672 89.1836 95.5403V84.0498H97.9727V95.5403C97.9727 97.9672 96.0051 99.9348 93.5781 99.9348Z" fill="#685E68"/>
<path d="M102.367 66.3958V82.585C102.367 85.8211 99.7439 88.4443 96.5078 88.4443H55.4922C52.2561 88.4443 49.6328 85.8211 49.6328 82.585V66.3958H102.367Z" fill="#9BE69D"/>
<path d="M93.5781 66.3958V82.585C93.5781 85.8211 90.9549 88.4443 87.7188 88.4443H96.5078C99.7439 88.4443 102.367 85.8211 102.367 82.585V66.3958H93.5781Z" fill="#6FD7A3"/>
<path d="M96.5078 41.8623H55.4922C52.2561 41.8623 49.6328 44.4855 49.6328 47.7216V66.3958H102.367V47.7216C102.367 44.4855 99.7439 41.8623 96.5078 41.8623Z" fill="#D9EBFC"/>
<path d="M96.5078 41.8623H87.7188C90.9549 41.8623 93.5781 44.4855 93.5781 47.7216V66.3958H102.367V47.7216C102.367 44.4855 99.7439 41.8623 96.5078 41.8623Z" fill="#C2E3FF"/>
<path d="M91.3809 79.6172C92.5929 79.6172 93.5782 78.6317 93.5782 77.42C93.5782 76.2085 92.5929 75.2227 91.3809 75.2227C90.1689 75.2227 89.1836 76.2085 89.1836 77.42C89.1836 78.6317 90.1689 79.6172 91.3809 79.6172ZM126.395 145.457C116.555 136.681 106.164 123.966 106.187 114.278C106.214 103.132 115.279 94.0635 126.396 94.0635C137.54 94.0635 146.606 103.129 146.606 114.273C146.606 123.963 136.221 136.681 126.395 145.457ZM51.8301 68.5931H100.17V82.585C100.17 84.6042 98.5273 86.2471 96.5079 86.2471H55.4922C53.4728 86.2471 51.8301 84.6042 51.8301 82.585V68.5931ZM51.8301 47.7217C51.8301 45.7023 53.4728 44.0596 55.4922 44.0596H96.5079C98.5273 44.0596 100.17 45.7023 100.17 47.7217V64.1986H51.8301V47.7217ZM95.7754 95.5404C95.7754 96.7518 94.7899 97.7376 93.5782 97.7376C92.3664 97.7376 91.3809 96.7518 91.3809 95.5404V90.6417H95.7754V95.5404ZM60.6192 95.5404C60.6192 96.7518 59.6336 97.7376 58.4219 97.7376C57.2102 97.7376 56.2247 96.7518 56.2247 95.5404V90.6417H60.6192V95.5404ZM104.564 68.9535H121.331C132.844 68.9535 142.211 59.5867 142.211 48.0733C142.211 36.5584 132.844 27.1905 121.331 27.1905H50.0301C50.147 26.3101 50.2077 25.4476 50.2077 24.6041C50.2077 23.9954 50.1778 23.3936 50.1341 22.796H121.331C135.268 22.796 146.606 34.1353 146.606 48.0733C146.606 62.0095 135.268 73.348 121.331 73.348H104.564V68.9535ZM126.396 89.669C114.066 89.669 103.812 98.8295 102.06 110.716H66.8008C65.5873 110.716 64.6036 111.7 64.6036 112.913C64.6036 114.127 65.5873 115.11 66.8008 115.11H101.812C101.873 116.525 102.094 117.991 102.474 119.505H30.669C16.7328 119.505 5.39458 108.167 5.39458 94.2305C5.39458 80.2928 16.7328 68.9535 30.669 68.9535H47.4356V73.348H30.669C19.1559 73.348 9.78911 82.7145 9.78911 94.2276C9.78911 105.742 19.1559 115.11 30.669 115.11H56.5469C57.7604 115.11 58.7442 114.127 58.7442 112.913C58.7442 111.7 57.7604 110.716 56.5469 110.716H30.669C21.5791 110.716 14.1836 103.319 14.1836 94.2276C14.1836 85.1376 21.5791 77.7425 30.669 77.7425H47.4356V82.585C47.4356 85.7089 49.2242 88.4215 51.8301 89.7575V95.5404C51.8301 99.175 54.7871 102.132 58.4219 102.132C62.0568 102.132 65.0137 99.175 65.0137 95.5404V90.6417H86.9864V95.5404C86.9864 99.175 89.9436 102.132 93.5782 102.132C97.2127 102.132 100.17 99.175 100.17 95.5404V89.7575C102.776 88.4215 104.564 85.7089 104.564 82.585V77.7425H121.331C137.69 77.7425 151 64.433 151 48.0733C151 31.7122 137.69 18.4014 121.331 18.4014H49.4143C46.6581 7.82788 37.0288 4.57764e-05 25.6039 4.57764e-05C22.2795 4.57764e-05 19.0551 0.652496 16.0203 1.93892C14.9029 2.41295 14.3811 3.7023 14.8548 4.81967C15.3283 5.93677 16.6185 6.45943 17.7353 5.98511C20.2247 4.92953 22.8722 4.39458 25.6039 4.39458C36.7475 4.39458 45.8131 13.4608 45.8131 24.6041C45.8131 34.2938 35.4286 47.0119 25.603 55.7886C15.7625 47.0122 5.37144 34.2967 5.39458 24.6091C5.4063 19.7362 7.16587 15.0314 10.3496 11.3614C11.1447 10.4447 11.0462 9.05688 10.1295 8.26176C9.21284 7.46693 7.82505 7.56538 7.02993 8.48178C3.15571 12.9481 1.01411 18.6718 1.00005 24.5989C0.985403 30.7855 4.12867 37.9755 10.3428 45.9692C15.2515 52.2841 20.8159 57.4213 22.9803 59.3368C23.728 59.9986 24.6655 60.3296 25.603 60.3296C26.5414 60.3296 27.48 59.998 28.228 59.335C30.3892 57.4193 35.9454 52.2824 40.8511 45.968C44.8487 40.8223 47.575 36.0106 49.0118 31.585H121.331C130.421 31.585 137.816 38.9816 137.816 48.0733C137.816 57.1632 130.421 64.5589 121.331 64.5589H104.564V47.7217C104.564 43.2794 100.95 39.6651 96.5079 39.6651H55.4922C51.0497 39.6651 47.4356 43.2794 47.4356 47.7217V64.5589H30.669C14.3096 64.5589 1.00005 77.8694 1.00005 94.2305C1.00005 110.59 14.3096 123.899 30.669 123.899H103.968C105.527 127.579 107.918 131.501 111.135 135.638C116.044 141.953 121.608 147.09 123.772 149.005C124.52 149.667 125.457 149.998 126.395 149.998C127.334 149.998 128.272 149.667 129.02 149.004C131.182 147.089 136.737 141.952 141.643 135.637C147.852 127.645 151 120.457 151 114.273C151 100.706 139.963 89.669 126.396 89.669ZM126.396 124.073C121.207 124.073 116.986 119.851 116.986 114.662C116.986 109.474 121.207 105.252 126.396 105.252C131.585 105.252 135.806 109.474 135.806 114.662C135.806 119.851 131.585 124.073 126.396 124.073ZM126.396 100.858C118.784 100.858 112.591 107.051 112.591 114.662C112.591 122.275 118.784 128.467 126.396 128.467C134.008 128.467 140.201 122.275 140.201 114.662C140.201 107.051 134.008 100.858 126.396 100.858ZM60.6192 79.6172C61.8309 79.6172 62.8164 78.6317 62.8164 77.42C62.8164 76.2085 61.8309 75.2227 60.6192 75.2227C59.4075 75.2227 58.4219 76.2085 58.4219 77.42C58.4219 78.6317 59.4075 79.6172 60.6192 79.6172ZM16.1937 24.9938C16.1937 19.805 20.4154 15.5836 25.6039 15.5836C30.7926 15.5836 35.014 19.805 35.014 24.9938C35.014 30.1826 30.7926 34.404 25.6039 34.404C20.4154 34.404 16.1937 30.1826 16.1937 24.9938ZM39.4085 24.9938C39.4085 17.3816 33.2158 11.1891 25.6039 11.1891C17.9922 11.1891 11.7992 17.3816 11.7992 24.9938C11.7992 32.6057 17.9922 38.7985 25.6039 38.7985C33.2158 38.7985 39.4085 32.6057 39.4085 24.9938ZM69.4082 79.6172H82.5918C83.8056 79.6172 84.7891 78.6337 84.7891 77.42C84.7891 76.2062 83.8056 75.2227 82.5918 75.2227H69.4082C68.1948 75.2227 67.211 76.2062 67.211 77.42C67.211 78.6337 68.1948 79.6172 69.4082 79.6172Z" fill="black"/>
</g>
</g>
<defs>
<clipPath id="clip0_712_816">
<rect width="150" height="150" fill="white" transform="translate(1)"/>
</clipPath>
</defs>
</svg>
